<?xml version="1.0" encoding="UTF-8"?>
<svg version="1.1" xmlns="http://www.w3.org/2000/svg" width="3556" height="3509">
<path d="M0 0 C16.50819535 11.75070994 31.09756496 18.70518013 51.49853516 19.08251953 C81.9194669 20.00953897 109.66646309 27.68444351 138.60375977 36.50610352 C139.87104164 36.89193855 139.87104164 36.89193855 141.16392517 37.28556824 C142.74954182 37.76911378 144.3345991 38.25449925 145.91896057 38.74214172 C158.06362402 42.44991015 168.85170859 43.904043 181.59619141 43.39892578 C182.804048 43.35320938 184.0119046 43.30749298 185.25636292 43.26039124 C195.17069739 42.83529821 205.04635143 42.08808623 214.93212891 41.23486328 C215.69449482 41.1692281 216.45686073 41.10359291 217.24232864 41.03596878 C224.31024931 40.42497218 231.3769291 39.80053044 238.44165039 39.15356445 C255.24302885 37.62188901 272.00305448 36.36393427 288.88173103 36.23044014 C290.45205758 36.21800915 292.02235131 36.19964562 293.59252739 36.17460442 C303.74361484 36.0340162 312.65202341 37.25311955 322.31103516 40.64501953 C323.16599075 40.93943436 324.02094635 41.23384918 324.90180969 41.53718567 C327.20339985 42.36049786 329.48046209 43.22986275 331.75634766 44.12158203 C332.5929039 44.44399368 333.42946014 44.76640533 334.29136658 45.09858704 C337.00899708 46.14881726 339.72268967 47.20877233 342.43603516 48.27001953 C344.37670731 49.02466252 346.31738117 49.7793011 348.25805664 50.53393555 C369.04950471 58.6420736 389.69920328 67.09228757 410.31103516 75.64501953 C411.67512512 76.21056549 411.67512512 76.21056549 413.06677246 76.78753662 C438.91464326 87.50649459 464.70019884 98.37000671 490.31103516 109.64501953 C491.0659021 109.9771344 491.82076904 110.30924927 492.59851074 110.65142822 C497.13232533 112.6487314 501.65951556 114.66014197 506.17913818 116.68936157 C507.56738635 117.31166669 508.95685677 117.93125462 510.34771729 118.54769897 C542.50733884 132.82653909 542.50733884 132.82653909 548.52758789 147.16333008 C549.8300881 151.28919939 549.81515919 155.2881584 549.81103516 159.58251953 C550.16665405 172.78759261 553.94000568 181.30185784 563.37744141 190.70361328 C568.21152787 195.13990372 573.41849488 198.9607566 578.74072266 202.78564453 C591.10707262 211.73151472 599.65304458 224.4219826 602.31103516 239.64501953 C602.70761992 244.2482355 602.90524215 248.20641313 601.12353516 252.52001953 C595.59498996 259.00176217 589.79376628 259.98644012 581.79150391 261.62353516 C575.85137152 262.95001585 571.96857526 264.67635643 567.31103516 268.64501953 C564.15456122 274.11624102 562.46275876 280.49452429 563.74853516 286.78564453 C566.17979538 294.02416929 570.01125385 298.18590911 576.62353516 301.83251953 C593.26749171 309.60242554 609.17941063 307.73727827 626.56103516 303.39501953 C629.19363791 302.75585704 631.82833491 302.12559552 634.46337891 301.49658203 C635.12033249 301.33910492 635.77728607 301.18162781 636.45414734 301.01937866 C642.98321024 299.46415615 649.54250706 298.08542914 656.12353516 296.77001953 C657.12352539 296.56731445 658.12351562 296.36460937 659.15380859 296.15576172 C699.31917306 288.22676546 738.57588711 297.7410768 772.49707031 320.08496094 C781.06691649 325.88973793 789.34105211 332.03938951 797.31103516 338.64501953 C798.15408203 339.32693359 798.99712891 340.00884766 799.86572266 340.71142578 C810.1815681 349.06875564 820.25161762 357.71326779 830.08447266 366.63330078 C832.14207907 368.49236622 834.21950279 370.32430311 836.31103516 372.14501953 C849.9205513 384.01599469 863.12411435 396.28290804 875.87011719 409.07373047 C877.70214511 410.91117713 879.53954121 412.74313603 881.37744141 414.57470703 C887.23594188 420.42965241 892.96410221 426.31278852 898.31103516 432.64501953 C899.25910412 433.71750447 900.20956785 434.78787797 901.16259766 435.85595703 C920.8868886 458.24084816 943.39350034 486.78247811 942.65869141 518.02783203 C941.66006908 528.41799236 936.81815062 536.52491295 929.37353516 543.64501953 C914.73086347 555.36550945 895.48602552 560.14289829 877.72753906 564.96020508 C873.85102808 566.0432764 870.6583312 567.40490603 867.31103516 569.64501953 C868.46525248 574.237331 870.59823466 575.91734827 874.41308594 578.33618164 C875.10128418 578.74747314 875.78948242 579.15876465 876.49853516 579.58251953 C877.21251465 580.01636963 877.92649414 580.45021973 878.66210938 580.8972168 C903.45079077 595.55898152 927.87215279 595.03913329 955.53417969 591.08618164 C977.7083305 587.96825298 995.8986666 589.46409345 1014.81103516 602.34814453 C1042.79144917 623.51753671 1061.04028567 655.44865676 1077.62744141 685.68798828 C1078.19825439 686.71915771 1078.76906738 687.75032715 1079.35717773 688.81274414 C1080.46056207 690.80876466 1081.55355776 692.810578 1082.6340332 694.8190918 C1088.082655 704.67475077 1093.95568162 709.90309156 1103.93603516 714.95751953 C1124.26635301 725.77202936 1140.41518606 741.56765943 1154.08447266 760.00830078 C1155.28933446 761.61606224 1156.53433036 763.19349448 1157.77978516 764.77001953 C1164.3526651 773.09012072 1170.25693286 781.80413958 1176.02197266 790.70043945 C1177.15609234 792.41128477 1178.3650072 794.07204697 1179.58447266 795.72314453 C1186.83051194 807.98567255 1183.70749979 828.52882065 1180.34619141 841.60595703 C1177.54959327 851.56615829 1173.22659606 860.57636128 1168.31103516 869.64501953 C1167.77865234 870.65951172 1167.24626953 871.67400391 1166.69775391 872.71923828 C1156.58120874 891.11980305 1141.65352413 907.04756854 1127.32446289 922.23999023 C1123.1152073 926.72380075 1119.14040988 931.31057237 1115.31494141 936.12939453 C1114.02337163 937.75078037 1112.69959309 939.34726982 1111.33837891 940.91064453 C1107.08583179 945.88181293 1103.77914101 951.10161522 1100.64306641 956.81298828 C1100.20888397 957.59953796 1099.77470154 958.38608765 1099.32736206 959.19647217 C1095.04465019 967.02055101 1091.060056 974.98378947 1087.12286377 982.98583984 C1079.85958897 997.72978341 1072.45882737 1012.36558382 1064.31103516 1026.64501953 C1063.79379883 1027.55590332 1063.2765625 1028.46678711 1062.74365234 1029.40527344 C1055.57135764 1041.97507487 1047.9474348 1054.03065573 1039.31103516 1065.64501953 C1038.88226074 1066.22541992 1038.45348633 1066.80582031 1038.01171875 1067.40380859 C1035.18595408 1071.21192064 1032.27928512 1074.94711808 1029.31103516 1078.64501953 C1028.49248047 1079.66982422 1027.67392578 1080.69462891 1026.83056641 1081.75048828 C1020.26823301 1089.76019896 1013.04372491 1097.12200866 1005.74853516 1104.45751953 C1005.26575104 1104.94557068 1004.78296692 1105.43362183 1004.28555298 1105.9364624 C997.64383716 1112.63413071 990.73312402 1118.81852245 983.31103516 1124.64501953 C982.54283447 1125.25128174 981.77463379 1125.85754395 980.9831543 1126.48217773 C978.87360915 1128.13373108 976.75154957 1129.76735978 974.62353516 1131.39501953 C973.929375 1131.93255859 973.23521484 1132.47009766 972.52001953 1133.02392578 C959.85452026 1142.72666613 949.03933329 1146.96773408 932.78417969 1145.04638672 C870.3573516 1136.27097276 805.43990053 1107.12154288 751.21728516 1076.32861328 C713.83735645 1055.42244762 669.52295916 1040.72254363 628.51025391 1028.62939453 C623.32578774 1027.04841293 618.7107124 1025.11490965 613.99853516 1022.45751953 C613.29269287 1022.07241211 612.58685059 1021.68730469 611.85961914 1021.29052734 C609.6684561 1020.08963657 607.48841027 1018.87071047 605.31103516 1017.64501953 C604.24320801 1017.04536377 604.24320801 1017.04536377 603.15380859 1016.43359375 C600.38770235 1014.87821335 597.62375187 1013.31904715 594.86108398 1011.75756836 C584.66687906 1005.58913122 584.66687906 1005.58913122 573.31103516 1002.64501953 C574.82326683 1011.52938063 580.73390123 1016.99427452 587.86010742 1022.12744141 C599.61896651 1030.16312304 612.5925239 1036.29989558 625.31103516 1042.64501953 C626.91205078 1043.44746094 626.91205078 1043.44746094 628.54541016 1044.26611328 C647.45396901 1053.6968746 666.80335443 1062.07301229 686.19873047 1070.43798828 C694.61960735 1074.07088604 703.0283896 1077.73162536 711.43603516 1081.39501953 C712.25244476 1081.75073029 713.06885437 1082.10644104 713.91000366 1082.47293091 C729.09209414 1089.09082325 744.2391766 1095.77895063 759.31103516 1102.64501953 C761.0604541 1103.44141846 761.0604541 1103.44141846 762.84521484 1104.25390625 C792.54785188 1117.82612511 822.25882406 1131.88204777 850.31103516 1148.64501953 C851.65222412 1149.44431885 851.65222412 1149.44431885 853.02050781 1150.25976562 C874.96618668 1163.41469273 895.75409381 1177.98336922 914.31103516 1195.64501953 C915.02775391 1196.30888672 915.74447266 1196.97275391 916.48291016 1197.65673828 C931.89961031 1212.36427023 943.25323391 1231.50997377 944.29931641 1253.08251953 C944.33994624 1265.43398859 940.32407891 1275.59949963 935.31103516 1286.64501953 C934.60744873 1288.20808838 934.60744873 1288.20808838 933.88964844 1289.80273438 C917.8689151 1325.26526876 917.8689151 1325.26526876 908.15478516 1340.65673828 C905.36342481 1345.26804591 903.90625831 1349.59874961 902.74853516 1354.83251953 C902.34327238 1356.49355613 901.9343678 1358.15370809 901.52197266 1359.81298828 C901.3218457 1360.62687012 901.12171875 1361.44075195 900.91552734 1362.27929688 C897.0595771 1377.36982913 891.27493421 1389.44514251 880.31103516 1400.64501953 C879.17408203 1401.82257812 879.17408203 1401.82257812 878.01416016 1403.02392578 C874.60399894 1406.49876247 871.19472197 1409.75450464 867.37353516 1412.77001953 C861.3787761 1417.96390704 857.49206585 1424.99243679 853.31103516 1431.64501953 C842.97742475 1448.03960259 832.85585739 1463.69526988 819.31103516 1477.64501953 C818.64458984 1478.33724609 817.97814453 1479.02947266 817.29150391 1479.74267578 C804.99551884 1491.52093516 788.06347457 1494.13936947 771.73681641 1493.99438477 C745.19097055 1493.33028838 721.12474377 1483.64209788 697.27392578 1472.71142578 C689.53103113 1469.18194927 684.25260308 1467.23314298 675.81103516 1469.64501953 C674.98603516 1469.97501953 674.16103516 1470.30501953 673.31103516 1470.64501953 C671.5463419 1477.57491046 673.45949754 1483.22693075 675.43603516 1489.95751953 C675.73251953 1491.03453125 676.02900391 1492.11154297 676.33447266 1493.22119141 C679.0777059 1502.81669582 682.68278599 1514.61329111 691.67431641 1520.08251953 C704.97360616 1527.01785285 718.26074661 1525.08682197 732.23632812 1520.73388672 C736.50864273 1519.33768824 740.76659409 1517.9059414 745.01074219 1516.42626953 C756.29394272 1512.5074429 767.07238829 1510.47167415 778.31103516 1515.64501953 C783.48759973 1518.86599304 786.27163003 1523.26695289 788.06103516 1529.08251953 C788.79816948 1536.63814634 788.50761271 1543.04719172 784.31103516 1549.64501953 C780.40387848 1552.68515425 776.49589129 1554.50285871 771.87353516 1556.20751953 C742.4907157 1566.85394391 742.4907157 1566.85394391 719.79931641 1586.83642578 C712.28920476 1595.96288691 696.19959671 1597.28524199 685.31103516 1599.64501953 C680.90971171 1600.60116452 676.5155729 1601.5846705 672.12353516 1602.58251953 C671.09719971 1602.79908203 670.07086426 1603.01564453 669.01342773 1603.23876953 C659.09866043 1605.50149253 650.85276368 1609.64521549 644.68603516 1617.89501953 C644.00311401 1618.78640625 644.00311401 1618.78640625 643.30639648 1619.69580078 C637.95722736 1627.01720001 634.64129727 1635.26663989 631.31103516 1643.64501953 C622.27230657 1666.32575492 607.87401514 1683.99361514 591.31103516 1701.64501953 C589.86637957 1703.20823651 588.42557785 1704.77494784 586.98486328 1706.34179688 C582.09804806 1711.65404115 577.17771313 1716.93460155 572.24853516 1722.20751953 C564.43292664 1730.5717422 556.61922573 1738.9358117 549.11962891 1747.58642578 C546.88092265 1750.13458603 544.59693304 1752.63912546 542.31103516 1755.14501953 C538.85404487 1758.93571627 535.44368368 1762.75889085 532.07666016 1766.62939453 C529.31655049 1769.78031618 526.5117318 1772.89021031 523.70166016 1775.99658203 C522.05809984 1777.81738905 520.42313264 1779.64597796 518.79541016 1781.48095703 C505.72275544 1796.11751829 490.53245644 1806.4867019 473.31103516 1815.64501953 C472.48522949 1816.08539551 471.65942383 1816.52577148 470.80859375 1816.97949219 C461.66571611 1821.83733237 452.48458001 1826.6072618 443.17431641 1831.13720703 C430.96019004 1837.09157319 419.11991598 1843.05180692 408.21240234 1851.22802734 C406.13203024 1852.77842278 404.02570929 1854.28801371 401.91259766 1855.79345703 C393.97290523 1861.45922561 386.13574843 1867.25312343 378.34790039 1873.12524414 C370.42394677 1879.08752296 362.37594279 1884.87550869 354.31103516 1890.64501953 C353.61397461 1891.14501465 352.91691406 1891.64500977 352.19873047 1892.16015625 C275.05973546 1947.41820346 275.05973546 1947.41820346 245.31103516 1944.64501953 C239.6261531 1943.35114853 236.04829496 1941.23086398 232.31103516 1936.64501953 C230.69329885 1933.02972078 229.53664473 1929.30242222 228.37353516 1925.52001953 C227.86149536 1923.92335449 227.86149536 1923.92335449 227.33911133 1922.29443359 C226.31301911 1919.08294498 225.30832386 1915.86555688 224.31103516 1912.64501953 C219.17169334 1890.69068133 219.17169334 1890.69068133 206.52197266 1873.52001953 C203.85011229 1872.46260483 201.34580808 1872.17025272 198.49853516 1871.77001953 C187.16689616 1869.47290567 177.35017574 1863.15358117 167.31103516 1857.64501953 C155.48474088 1851.0348566 155.48474088 1851.0348566 142.31103516 1848.64501953 C138.50404911 1849.80071173 136.95658961 1850.87035418 134.43603516 1853.89501953 C132.92118471 1857.59798728 132.63626217 1859.66385891 133.31103516 1863.64501953 C137.65434109 1870.3014961 143.60781654 1874.02324721 150.43603516 1877.77001953 C204.39694441 1908.53668662 204.39694441 1908.53668662 212.62353516 1930.08251953 C214.46356593 1939.61722444 212.89368042 1946.69666015 207.87353516 1955.03173828 C200.58500082 1965.35132175 189.13246273 1970.82455983 176.99853516 1973.32861328 C149.57983657 1977.76579107 114.46665658 1972.95920736 91.31103516 1956.64501953 C90.76447266 1956.24541016 90.21791016 1955.84580078 89.65478516 1955.43408203 C54.66474804 1931.34006524 -6.22651356 1932.77429118 -47.14990234 1930.71923828 C-48.71868895 1930.63907124 -50.28747046 1930.55880424 -51.85624695 1930.47843933 C-58.87515807 1930.12134295 -65.89372002 1929.77592633 -72.91571617 1929.48505783 C-94.5638853 1928.56931347 -115.43265069 1925.81773832 -136.68896484 1921.64501953 C-138.17621567 1921.35806213 -138.17621567 1921.35806213 -139.69351196 1921.06530762 C-145.02442434 1920.02999103 -150.32886949 1918.90078125 -155.62646484 1917.70751953 C-156.4244046 1917.53026337 -157.22234436 1917.3530072 -158.04446411 1917.17037964 C-195.51006525 1908.82946648 -233.14643312 1899.88523143 -269.74267578 1888.26293945 C-271.79525372 1887.61127428 -273.84951784 1886.96509134 -275.90380859 1886.31884766 C-290.02674564 1881.85801986 -304.05156121 1877.2022759 -317.68896484 1871.39501953 C-319.03124146 1870.83137695 -319.03124146 1870.83137695 -320.40063477 1870.25634766 C-330.76551036 1865.65461006 -340.18470013 1858.68082922 -344.40722656 1847.79296875 C-345.79780229 1843.73637846 -346.98050124 1839.61995265 -348.15673828 1835.49707031 C-350.94358009 1825.79937217 -354.43086381 1820.17943467 -363.37255859 1815.12939453 C-365.25214923 1814.13876424 -367.13367077 1813.15178909 -369.01708984 1812.16845703 C-375.29090314 1808.59128278 -379.88299975 1803.50754252 -384.52880859 1798.07861328 C-393.81039084 1787.62214721 -404.08082551 1776.24205484 -417.68896484 1771.64501953 C-420.57717908 1771.85132055 -423.15398742 1772.47107669 -425.90405273 1773.36523438 C-433.81050999 1775.83623698 -441.25697827 1776.14452331 -449.50146484 1776.08251953 C-450.19227142 1776.08047516 -450.883078 1776.07843079 -451.59481812 1776.07632446 C-465.60020221 1776.00968838 -479.20966026 1774.27573978 -493.04736328 1772.16210938 C-497.89461405 1771.47382316 -502.75251802 1770.98000047 -507.6237793 1770.49609375 C-534.9313111 1767.75905948 -562.30172537 1758.29869492 -582.37646484 1738.70751953 C-583.01874023 1738.09561768 -583.66101563 1737.48371582 -584.32275391 1736.85327148 C-587.58436477 1733.73355973 -590.78327453 1730.55948827 -593.93896484 1727.33251953 C-598.51922253 1722.69303437 -603.56968811 1718.6707258 -608.68896484 1714.64501953 C-609.68541016 1713.85482422 -610.68185547 1713.06462891 -611.70849609 1712.25048828 C-622.07678725 1704.2247122 -630.15604352 1699.16995077 -643.37646484 1700.20751953 C-683.31281885 1702.71712902 -721.23953975 1682.11854108 -750.68896484 1656.64501953 C-751.45853516 1655.98630859 -752.22810547 1655.32759766 -753.02099609 1654.64892578 C-765.23397736 1643.93471834 -776.72460994 1632.48646999 -786.38574219 1619.40576172 C-787.73746967 1617.57948622 -789.11209073 1615.77210874 -790.48974609 1613.96533203 C-806.20821319 1593.17647918 -818.1112703 1569.83023575 -827.53436279 1545.58816528 C-828.82903972 1542.25798042 -830.13958566 1538.93436078 -831.453125 1535.61157227 C-833.00575946 1531.68268135 -834.55682565 1527.75319225 -836.10247803 1523.82154846 C-841.21616012 1510.81596889 -846.38071037 1497.83081263 -851.55224609 1484.84814453 C-851.9928216 1483.7420647 -852.4333971 1482.63598488 -852.88732338 1481.49638748 C-854.71095532 1476.9183251 -856.53475285 1472.34032876 -858.35883427 1467.76244545 C-861.63863404 1459.53111103 -864.91642195 1451.29897774 -868.19311523 1443.06640625 C-879.33766509 1415.06731553 -890.49524266 1387.07348601 -901.68527985 1359.09254074 C-902.67079147 1356.62796762 -903.65596869 1354.16326109 -904.64105225 1351.69851685 C-908.38834683 1342.32348909 -912.14242736 1332.95122658 -915.90940094 1323.58408737 C-916.68075321 1321.66544494 -917.45122276 1319.74644971 -918.22161865 1317.8274231 C-923.79002536 1303.97436657 -929.50838257 1290.24136533 -935.81396484 1276.70751953 C-936.50894888 1275.20407546 -937.20327307 1273.70032621 -937.89697266 1272.19628906 C-938.91735641 1269.98402095 -939.93803606 1267.77190084 -940.96105957 1265.56085205 C-943.50148497 1260.06821039 -945.98195117 1254.55046467 -948.43896484 1249.02001953 C-951.72921168 1241.63452424 -955.22553186 1234.35802914 -958.75146484 1227.08251953 C-977.43672474 1188.32465432 -987.21302607 1147.43990875 -996.96868896 1105.73178101 C-1001.61496291 1085.89566154 -1006.53637428 1066.17129621 -1012.13616943 1046.58203125 C-1012.68204263 1044.66927517 -1013.22192012 1042.75481129 -1013.76171875 1040.84033203 C-1019.3410965 1021.19338194 -1026.08336725 1004.91282766 -1038.73583984 988.75048828 C-1065.63956992 954.28278274 -1071.85169445 909.06490518 -1066.91748047 866.07910156 C-1065.19667441 853.62227204 -1062.40446786 840.43431308 -1056.45068359 829.27001953 C-1050.37603445 817.79900293 -1050.39012383 809.36801524 -1052.16552734 796.55517578 C-1053.41397802 786.30203226 -1050.93294675 777.80363205 -1044.68896484 769.64501953 C-1040.43817856 765.03124475 -1036.13090855 761.85939905 -1029.66552734 761.54736328 C-1021.70174781 761.89665186 -1015.4660547 765.65301073 -1010.11474609 771.41845703 C-1009.27298828 772.40072266 -1008.43123047 773.38298828 -1007.56396484 774.39501953 C-1003.07997139 779.61876727 -1003.07997139 779.61876727 -996.77099609 781.62548828 C-996.08392578 781.63193359 -995.39685547 781.63837891 -994.68896484 781.64501953 C-993.58101562 781.70109375 -993.58101562 781.70109375 -992.45068359 781.75830078 C-981.18126657 781.53045876 -970.00299174 776.1138851 -959.63818359 772.07080078 C-945.71841633 766.7615125 -945.71841633 766.7615125 -939.68896484 768.64501953 C-936.83825182 770.86643608 -935.34068216 773.46448053 -933.68896484 776.64501953 C-933.21458984 777.55123047 -932.74021484 778.45744141 -932.25146484 779.39111328 C-927.99969691 788.48651456 -926.13377116 798.59149059 -928.82958984 808.44580078 C-931.31434431 814.80451335 -934.23966848 820.77767309 -940.68896484 823.64501953 C-943.4573047 824.11595387 -946.1976682 824.24482259 -949.00146484 824.33251953 C-950.11231445 824.38375977 -950.11231445 824.38375977 -951.24560547 824.43603516 C-953.05954648 824.51795507 -954.87422837 824.58317775 -956.68896484 824.64501953 C-956.35365794 831.88764857 -954.96583036 838.36815401 -949.68896484 843.64501953 C-943.71000418 843.45118789 -939.76265396 841.2902148 -934.81396484 838.27001953 C-924.96396378 832.54432011 -916.41009099 828.67873039 -904.68896484 830.64501953 C-899.00939131 832.57670977 -893.82694545 835.59048561 -888.68896484 838.64501953 C-887.75769775 839.19802734 -887.75769775 839.19802734 -886.80761719 839.76220703 C-856.32916136 858.15198942 -856.32916136 858.15198942 -853.12646484 870.10205078 C-849.55905746 890.83760621 -858.51312421 911.92259352 -865.14466858 931.16906738 C-870.58151433 943.7330212 -870.58151433 943.7330212 -870.75146484 956.58251953 C-866.72527185 962.5608061 -861.399886 964.49350778 -854.62646484 966.16845703 C-847.5598073 967.31490945 -840.69455503 966.47566865 -834.41162109 962.95361328 C-830.52978139 960.00482348 -828.21256971 956.21583414 -826.68896484 951.64501953 C-825.9397536 942.06494134 -827.0289524 934.32543284 -829.73193359 925.13720703 C-831.06008829 920.29079763 -831.52302599 915.65204419 -831.68896484 910.64501953 C-831.72892578 909.68853516 -831.76888672 908.73205078 -831.81005859 907.74658203 C-832.27221943 886.16095238 -829.74978899 858.361323 -814.68896484 841.64501953 C-809.65666022 836.47670667 -803.34754533 835.62350837 -796.37646484 835.33251953 C-782.71792714 835.75934883 -772.27725192 842.0054279 -761.75146484 850.20751953 C-744.69797294 863.22494443 -723.58601272 865.77346012 -702.68896484 864.64501953 C-693.22523806 863.26294062 -685.2451471 859.31832158 -679.37646484 851.64501953 C-678.46278411 850.32385238 -677.56571479 848.99097817 -676.68896484 847.64501953 C-676.29837891 847.05978516 -675.90779297 846.47455078 -675.50537109 845.87158203 C-675.15345703 845.34306641 -674.80154297 844.81455078 -674.43896484 844.27001953 C-672.68896484 841.64501953 -672.68896484 841.64501953 -670.68896484 839.64501953 C-669.27970944 839.39135356 -667.86082809 839.18928896 -666.43896484 839.02001953 C-662.55134327 838.21611717 -660.64712008 837.10015194 -658.12646484 834.02001953 C-656.04013993 830.75904109 -654.78340749 827.90928781 -655.09130859 823.92236328 C-656.67407638 817.89129387 -659.97821898 812.31117001 -663.32568359 807.09423828 C-666.33868512 801.68119543 -665.87931827 795.66522974 -665.92724609 789.62939453 C-665.93531784 788.65899231 -665.94338959 787.68859009 -665.95170593 786.68878174 C-665.96551082 784.63791674 -665.97624898 782.58702912 -665.98413086 780.53613281 C-665.99564771 778.44914977 -666.01609476 776.3621961 -666.0456543 774.27539062 C-666.08851513 771.24735659 -666.10452529 768.22019498 -666.11474609 765.19189453 C-666.14100822 763.80861969 -666.14100822 763.80861969 -666.1678009 762.3973999 C-666.13777734 753.32418691 -663.10955956 746.06561425 -656.68896484 739.64501953 C-651.48119392 736.21262506 -645.77620045 735.06002912 -639.61474609 735.94189453 C-634.16741288 737.52579496 -631.59339723 740.86802678 -628.06005859 745.11767578 C-619.53897736 754.20027802 -607.43938015 760.53737659 -596.68896484 766.64501953 C-595.89522461 767.09603027 -595.10148437 767.54704102 -594.28369141 768.01171875 C-539.61903161 800.87009487 -539.61903161 800.87009487 -478.72412109 811.28173828 C-475.26250497 810.19873746 -473.62810041 808.654023 -471.68896484 805.64501953 C-471.67186937 802.58492889 -471.96609302 800.51088915 -473.96508789 798.11645508 C-475.63699697 796.53718814 -477.35582139 795.05016518 -479.12646484 793.58251953 C-486.510388 787.3749372 -486.510388 787.3749372 -487.68896484 782.64501953 C-487.68896484 771.08640804 -478.32602132 764.01977507 -470.68598938 756.364151 C-469.36041185 755.04215496 -468.0345742 753.7204197 -466.70849609 752.39892578 C-465.3306563 751.01973601 -463.95311329 749.64024969 -462.57585144 748.26048279 C-459.69516292 745.37685574 -456.81091528 742.49685005 -453.92407227 739.61938477 C-450.25051031 735.95718413 -446.58595921 732.28611957 -442.92407703 728.61224461 C-440.08187873 725.76276569 -437.2348677 722.91813341 -434.38644981 720.07487297 C-433.03479507 718.72453931 -431.68458794 717.37275482 -430.33594704 716.01941109 C-396.29706862 681.88793987 -396.29706862 681.88793987 -377.93896484 681.33251953 C-372.75363009 681.40135141 -368.853364 682.50969822 -364.68896484 685.64501953 C-360.93894398 690.26042983 -359.565348 694.02376408 -359.55615234 699.87548828 C-359.55486328 700.67921875 -359.55357422 701.48294922 -359.55224609 702.31103516 C-359.55611328 703.143125 -359.55998047 703.97521484 -359.56396484 704.83251953 C-359.56009766 705.64527344 -359.55623047 706.45802734 -359.55224609 707.29541016 C-359.559964 712.14611737 -359.87125305 716.86055487 -360.46191406 721.67407227 C-360.728016 723.98400874 -360.82237237 726.25783914 -360.81396484 728.58251953 C-360.81783203 729.67886719 -360.81783203 729.67886719 -360.82177734 730.79736328 C-360.80031659 732.74059545 -360.80031659 732.74059545 -359.68896484 734.64501953 C-355.43776249 734.10587288 -352.31212486 733.13561614 -348.56396484 731.08251953 C-342.12227286 727.71177253 -335.45746813 725.11949427 -328.63183594 722.62524414 C-323.63236929 720.7208016 -320.12938107 718.93517712 -316.68896484 714.64501953 C-315.88829305 711.44233237 -316.22195241 709.60729112 -317.65771484 706.64892578 C-320.59656432 701.85620905 -324.23380101 697.98039372 -328.25146484 694.08251953 C-333.60004244 688.87946924 -338.03608634 684.49700271 -339.31396484 676.95751953 C-338.49779398 665.75171417 -332.26201014 655.92474666 -324.31396484 648.39501953 C-320.64849083 647.34774124 -318.38380718 648.53195379 -314.89208984 649.84423828 C-311.83382815 650.95584049 -309.8946191 651.35738714 -306.68896484 650.64501953 C-304.35193989 648.5539972 -302.533788 646.17116942 -300.68896484 643.64501953 C-297.66334212 639.64051887 -295.60763549 637.09244498 -290.49755859 636.30908203 C-281.88902432 636.16726104 -274.85390864 638.92662806 -267.31396484 642.89501953 C-263.20234887 645.01144398 -263.20234887 645.01144398 -258.68896484 644.64501953 C-253.69204739 640.12399898 -252.25237711 635.07661795 -250.68896484 628.64501953 C-252.41311909 626.28819243 -253.88845507 624.85752746 -256.74902344 624.09814453 C-259.28809556 623.71621993 -261.82258921 623.41069744 -264.37646484 623.14501953 C-272.49108406 622.2818915 -279.81941538 620.85391421 -286.25146484 615.52001953 C-288.39816203 611.22662515 -288.29683169 607.36726356 -287.68896484 602.64501953 C-286.3846807 598.93380385 -284.61437022 595.54147481 -282.75146484 592.08251953 C-277.01708107 581.34464546 -277.01708107 581.34464546 -277.55224609 569.52783203 C-281.6078003 561.81025449 -286.62652305 555.87209633 -292.68896484 549.64501953 C-303.28145927 538.1515038 -310.76132163 526.86925953 -316.21240234 512.30517578 C-317.53351454 509.03035535 -318.98406274 505.89848883 -320.53955078 502.7331543 C-324.05737937 495.56251847 -327.07962464 488.32159841 -329.68896484 480.77001953 C-329.9917334 479.92697266 -330.29450195 479.08392578 -330.60644531 478.21533203 C-332.64421272 472.09605394 -333.55238404 466.09122878 -332.68896484 459.64501953 C-330.68896484 457.64501953 -330.68896484 457.64501953 -328.30615234 457.44970703 C-326.94876953 457.48451172 -326.94876953 457.48451172 -325.56396484 457.52001953 C-324.65388672 457.53806641 -323.74380859 457.55611328 -322.80615234 457.57470703 C-321.75814453 457.60951172 -321.75814453 457.60951172 -320.68896484 457.64501953 C-322.14110975 448.45473257 -326.35114979 440.72009463 -330.515625 432.52148438 C-342.82596203 408.17494003 -342.82596203 408.17494003 -339.68896484 397.64501953 C-335.30930992 386.31548967 -326.35762189 379.5153753 -315.77880859 374.17626953 C-307.03874089 370.65509118 -299.3365768 370.35550469 -290.50146484 373.70751953 C-275.13347599 380.83556604 -269.31673511 394.57023371 -263.68896484 409.64501953 C-258.01847281 426.20676325 -258.01847281 426.20676325 -245.42333984 437.47705078 C-243.24284966 438.94544395 -242.60331156 440.20063536 -241.68896484 442.64501953 C-241.45844786 446.8711643 -241.86415236 450.52706685 -242.68896484 454.64501953 C-243.49190733 460.00049441 -243.9817999 464.63264279 -240.96240234 469.33251953 C-238.63516562 471.89168019 -236.20641529 474.27356543 -233.68896484 476.64501953 C-232.37905007 478.04483042 -231.08664609 479.46127281 -229.81396484 480.89501953 C-229.16556641 481.62333984 -228.51716797 482.35166016 -227.84912109 483.10205078 C-225.22340832 486.19307974 -222.73815639 489.37941074 -220.25146484 492.58251953 C-203.55094471 514.16364322 -203.55094471 514.16364322 -179.68896484 525.64501953 C-171.22530782 526.4984629 -162.74033289 526.72798569 -154.23974609 526.85595703 C-153.32667694 526.87031799 -152.41360779 526.88467896 -151.47286987 526.8994751 C-147.6959062 526.95666504 -143.91908994 527.01155855 -140.1418457 527.04638672 C-122.16393869 527.22531741 -122.16393869 527.22531741 -114.79443359 529.44580078 C-111.22235831 530.5533926 -111.22235831 530.5533926 -107.62768555 530.07861328 C-105.7770793 529.01841942 -104.28197342 527.87238961 -102.68896484 526.45751953 C-101.62773253 525.60827672 -100.56526466 524.7605752 -99.50146484 523.91455078 C-98.57333984 523.16560547 -97.64521484 522.41666016 -96.68896484 521.64501953 C-93.19785561 519.40544905 -90.48733712 519.47528499 -86.39208984 519.66845703 C-85.18681641 519.72001953 -83.98154297 519.77158203 -82.73974609 519.82470703 C-81.48548828 519.88916016 -80.23123047 519.95361328 -78.93896484 520.02001953 C-77.66923828 520.07673828 -76.39951172 520.13345703 -75.09130859 520.19189453 C-71.9566187 520.33330911 -68.82273649 520.48471945 -65.68896484 520.64501953 C-76.1635318 514.28998025 -86.78051628 508.38740811 -97.75561523 502.93310547 C-104.58113421 499.47034543 -110.76473617 496.10863114 -114.56396484 489.27001953 C-116.85140687 481.89937301 -116.67805047 476.89016716 -115.18505859 469.44580078 C-113.94909303 462.46794797 -113.90316652 456.5961067 -117.48193359 450.33642578 C-119.70012505 447.2280863 -122.22265815 445.35452277 -125.62646484 443.70751953 C-129.93260248 443.57703051 -133.26633662 446.32345458 -136.56396484 448.83251953 C-140.49501878 451.11253082 -143.32444281 451.57817492 -147.68896484 450.64501953 C-157.58987328 447.18110397 -164.37281113 440.81629891 -171.68896484 433.64501953 C-173.15412734 432.21387407 -174.63130841 430.79480013 -176.12646484 429.39501953 C-176.70267578 428.83298828 -177.27888672 428.27095703 -177.87255859 427.69189453 C-179.68058557 426.43757887 -179.68058557 426.43757887 -182.04833984 426.71923828 C-185.34954156 427.87661225 -187.69631997 429.62296233 -190.50146484 431.70751953 C-197.1740772 436.25702796 -197.1740772 436.25702796 -201.12646484 436.52001953 C-205.55220999 435.43299441 -207.22440155 433.26758075 -209.68896484 429.64501953 C-214.87971177 419.05002451 -217.64885351 407.18298477 -220.7097168 395.84570312 C-224.65036954 380.35280547 -224.65036954 380.35280547 -233.68896484 367.64501953 C-241.40556721 363.50430959 -249.54178554 362.60133244 -258.12646484 361.64501953 C-271.37042601 360.16509423 -283.79106701 358.4903818 -292.68896484 347.64501953 C-317.19001489 308.46240642 -300.72106083 250.46352906 -291.68896484 208.64501953 C-291.29837891 206.8298584 -291.29837891 206.8298584 -290.89990234 204.97802734 C-282.14425593 165.1807279 -263.5729267 129.09215898 -245.65252686 92.82217407 C-239.6218449 80.61561407 -233.69332905 68.36479509 -227.84465027 56.0700531 C-220.45740578 40.56902186 -212.96921326 25.94669945 -200.68896484 13.64501953 C-199.98126953 12.92572266 -199.27357422 12.20642578 -198.54443359 11.46533203 C-186.67693082 0.13240146 -172.47772081 -2.501745 -156.93847656 -5.86547852 C-154.46593558 -6.40351245 -151.9953519 -6.95000339 -149.52490234 -7.49755859 C-128.88646915 -12.06476658 -108.23587101 -16.47431429 -87.37646484 -19.91748047 C-86.63915131 -20.03953857 -85.90183777 -20.16159668 -85.1421814 -20.28735352 C-50.1295529 -26.03356321 -28.51621398 -20.47390537 0 0 Z " fill="#000000" transform="translate(1500.68896484375,1507.35498046875)"/>
<path d="M0 0 C11.6969642 9.94426452 20.38385001 23.12127145 28.4765625 36.04296875 C28.85522461 36.64238281 29.23388672 37.24179688 29.62402344 37.859375 C45.43847877 63.26125815 53.50106003 92.63288703 57.4765625 122.04296875 C57.5804126 122.78232666 57.6842627 123.52168457 57.79125977 124.28344727 C67.93877831 208.23110067 34.70814921 295.26452671 -5.5234375 367.04296875 C-5.8534375 367.37296875 -6.1834375 367.70296875 -6.5234375 368.04296875 C-6.16140233 375.24746861 -4.25112952 381.1715465 -1.6484375 387.85546875 C8.42438691 414.80786439 8.42438691 414.80786439 4.85546875 428.41015625 C2.85466839 432.5540361 -0.35138493 434.49009312 -4.328125 436.4140625 C-7.11271159 437.21178214 -9.64250485 437.14556607 -12.5234375 437.04296875 C-12.90802161 441.03989641 -13.23601296 445.03787275 -13.5234375 449.04296875 C-13.59175781 449.99429687 -13.66007812 450.945625 -13.73046875 451.92578125 C-14.07393028 456.98714385 -14.07393028 456.98714385 -11.7109375 461.23046875 C-10.9890625 461.82859375 -10.2671875 462.42671875 -9.5234375 463.04296875 C-8.47296106 465.35401693 -7.47336312 467.68880526 -6.5234375 470.04296875 C-5.9871875 470.92984375 -5.4509375 471.81671875 -4.8984375 472.73046875 C0.50596255 481.81968701 -2.59317428 494.21140937 -4.90527344 503.86987305 C-7.35623036 513.28717866 -10.83728219 522.33893771 -14.19607544 531.45870972 C-19.99923838 547.32839779 -23.55909489 563.42627394 -26.5234375 580.04296875 C-26.70680664 581.06648437 -26.89017578 582.09 -27.07910156 583.14453125 C-27.48509494 585.79285725 -27.7199286 588.35284055 -27.83984375 591.02734375 C-27.88206055 591.95417969 -27.92427734 592.88101563 -27.96777344 593.8359375 C-28.17031579 598.90451797 -28.36157405 603.97290751 -28.5234375 609.04296875 C-28.55356934 609.93951172 -28.58370117 610.83605469 -28.61474609 611.75976562 C-28.68776693 614.18759214 -28.73605447 616.61436057 -28.7734375 619.04296875 C-28.7947876 619.75291992 -28.8161377 620.46287109 -28.83813477 621.19433594 C-28.88004418 627.54932719 -27.02194554 631.79520668 -23.5234375 637.04296875 C-23.77853219 642.31492576 -24.76676185 647.06715625 -26.0859375 652.16796875 C-29.84285645 668.06547308 -27.69257481 683.72862762 -19.39257812 697.71875 C-4.33629884 723.37442135 -18.87940793 768.41850455 -25.75878906 795.06835938 C-31.68478427 817.15271955 -31.68478427 817.15271955 -38.5234375 826.04296875 C-38.89855469 826.55859375 -39.27367187 827.07421875 -39.66015625 827.60546875 C-42.50918215 829.80345938 -45.74218948 829.97622583 -49.2109375 830.48046875 C-56.61163574 831.72054101 -62.44340409 833.03993618 -68.0234375 838.48046875 C-69.75613849 841.4404996 -70.27796471 842.6895145 -69.5234375 846.04296875 C-63.96150958 853.45887264 -53.89179339 857.06146808 -45 858.43188477 C-41.1801195 858.92591634 -37.35678766 859.37960354 -33.52929688 859.81054688 C-25.39157849 860.81871048 -18.52388995 863.03350011 -13.20703125 869.69140625 C-6.28843929 879.81113777 -5.39884825 892.17351865 -5.28515625 904.09765625 C-5.2753624 904.94766205 -5.26556854 905.79766785 -5.25547791 906.6734314 C-5.091438 924.62227547 -5.45233208 941.85435375 -8.87304688 959.53076172 C-10.06524327 965.96880128 -11.02117179 972.44538529 -12.01971436 978.91577148 C-12.6525704 982.99256792 -13.30359234 987.0664583 -13.953125 991.140625 C-14.86752767 996.88246192 -15.77047012 1002.62585151 -16.65751648 1008.37197876 C-23.11008901 1050.10333894 -33.36054872 1085.25599066 -54.44897461 1122.11206055 C-68.48189932 1146.65145285 -81.60425487 1171.49236584 -91.50683594 1198.01367188 C-100.40897474 1221.50334905 -113.47252431 1237.29050028 -136.25439453 1248.03369141 C-166.37755296 1261.43256562 -199.81375374 1261.56207474 -230.46777344 1249.87548828 C-240.5194093 1245.80469514 -249.14084413 1239.84372288 -257.5234375 1233.04296875 C-258.37679688 1232.35589844 -259.23015625 1231.66882812 -260.109375 1230.9609375 C-296.06945937 1200.38919384 -307.00011839 1145.80695153 -310.859375 1101.15625 C-313.90613721 1059.77792534 -307.56592854 1018.47193722 -302.46142578 977.51373291 C-302.02325279 973.99555041 -301.5866724 970.47717232 -301.15100098 966.9586792 C-300.94179349 965.27160444 -300.73175781 963.58463216 -300.52087402 961.89776611 C-299.43449468 953.18689755 -298.42803134 944.48211624 -297.6875 935.734375 C-297.59190041 934.61409912 -297.59190041 934.61409912 -297.49436951 933.47119141 C-297.20315716 930.01285766 -296.93095392 926.55535878 -296.68676758 923.09326172 C-295.22340666 904.51334588 -290.72301136 885.05301255 -276.38696289 872.07470703 C-272.65754275 868.92413734 -269.02502976 867.36912636 -264.4140625 865.89453125 C-263.27292496 865.50670975 -263.27292496 865.50670975 -262.10873413 865.11105347 C-260.49624719 864.56428581 -258.88142009 864.02437689 -257.26446533 863.4909668 C-253.08090308 862.10878089 -248.91653262 860.67081678 -244.75 859.23828125 C-243.53387527 858.82216583 -243.53387527 858.82216583 -242.29318237 858.39764404 C-236.16864134 856.29307112 -230.11963909 854.05407005 -224.1484375 851.54296875 C-223.44493164 851.25373535 -222.74142578 850.96450195 -222.01660156 850.66650391 C-218.61803927 849.20160637 -215.64598735 847.49942983 -212.671875 845.32421875 C-209.5234375 843.04296875 -209.5234375 843.04296875 -207.5234375 843.04296875 C-207.78618566 839.49081568 -208.02039112 837.57473234 -210.5078125 834.9453125 C-211.42046875 834.29691406 -212.333125 833.64851562 -213.2734375 832.98046875 C-214.04397461 832.42746094 -214.04397461 832.42746094 -214.83007812 831.86328125 C-220.95484013 827.56544825 -227.40792715 823.75326309 -233.78857422 819.85253906 C-256.63275921 805.82432534 -256.63275921 805.82432534 -261.5234375 796.04296875 C-261.93619802 792.65833249 -262.01460423 789.42110439 -261.5234375 786.04296875 C-258.7981675 782.93918903 -256.49341905 781.80560434 -252.5234375 781.04296875 C-246.71327322 780.74943891 -240.93213399 780.943178 -235.1484375 781.54296875 C-221.24934298 783.33828009 -221.24934298 783.33828009 -208.5234375 779.04296875 C-206.39153893 775.02515991 -206.27094319 771.97935949 -207.3359375 767.66796875 C-213.31409476 750.69202008 -224.37938789 735.91639736 -234.2325592 721.03079224 C-251.58745534 694.78715856 -251.58745534 694.78715856 -249.85546875 680.73828125 C-249.7615686 679.94891678 -249.66766846 679.15955231 -249.57092285 678.3462677 C-248.50022044 669.98111878 -246.62398163 661.88840336 -244.5234375 653.73046875 C-244.31768097 652.9146936 -244.11192444 652.09891846 -243.89993286 651.25842285 C-239.23117157 632.7897801 -233.72866159 614.55935287 -228.27053833 596.31280518 C-223.53644631 580.4836394 -218.90504062 564.65339946 -214.9609375 548.60546875 C-214.78094208 547.87453003 -214.60094666 547.14359131 -214.41549683 546.39050293 C-211.38439602 534.05041694 -211.38439602 534.05041694 -210.3359375 521.41796875 C-210.32175781 520.31195312 -210.30757812 519.2059375 -210.29296875 518.06640625 C-210.51581802 515.14292605 -211.00209622 513.50838346 -212.5234375 511.04296875 C-215.71100551 511.5259336 -218.06682971 512.29525799 -221.0234375 513.66796875 C-224.5234375 515.04296875 -224.5234375 515.04296875 -227.3359375 515.04296875 C-229.5234375 514.04296875 -229.5234375 514.04296875 -230.6328125 511.8671875 C-232.80851561 504.96791844 -232.55320827 497.3403202 -229.5859375 490.73046875 C-220.35144205 474.81515118 -201.98548664 470.66522098 -185.5234375 466.04296875 C-182.33084964 465.14243122 -179.13937571 464.23846537 -175.95019531 463.32592773 C-173.88410465 462.73541197 -171.81582843 462.15247233 -169.74511719 461.57836914 C-163.93609983 459.9232011 -158.85605107 457.87666699 -153.5234375 455.04296875 C-152.5334375 454.71296875 -151.5434375 454.38296875 -150.5234375 454.04296875 C-149.58589001 449.54885523 -148.8239536 445.52027751 -150.9609375 441.29296875 C-159.84245511 428.37169731 -182.34082932 425.58660748 -196.52392578 422.0222168 C-223.41877798 415.15855475 -223.41877798 415.15855475 -230.5859375 405.16796875 C-231.82595378 401.03458113 -231.94332954 398.06923797 -230.5234375 394.04296875 C-228.06808761 389.55814337 -225.32998155 385.31327068 -222.5234375 381.04296875 C-220.61297717 377.22204809 -220.96338245 373.19857726 -221.5234375 369.04296875 C-224.24699725 360.93926227 -229.28410411 354.58613477 -234.61206055 348.0637207 C-244.36538294 335.98890175 -244.47427547 323.01360915 -243.5234375 308.04296875 C-242.76061106 301.65782895 -241.40288286 295.37527868 -240.12207031 289.078125 C-239.04277342 283.60593129 -238.12722549 278.10693362 -237.2109375 272.60546875 C-237.0056543 271.37940918 -236.80037109 270.15334961 -236.58886719 268.89013672 C-234.76407815 257.87929601 -233.15242447 246.83842762 -231.53555298 235.79550171 C-224.95851553 190.95977537 -217.68536221 146.11743529 -197.5234375 105.04296875 C-197.16668945 104.31561523 -196.80994141 103.58826172 -196.44238281 102.83886719 C-184.22831146 78.2654519 -168.0962024 56.02823065 -150.5234375 35.04296875 C-149.88019531 34.26695313 -149.23695313 33.4909375 -148.57421875 32.69140625 C-146.93438082 30.76171803 -145.25068653 28.89490243 -143.5234375 27.04296875 C-142.25693359 25.67978516 -142.25693359 25.67978516 -140.96484375 24.2890625 C-105.87385817 -12.5938032 -43.89602149 -34.04319933 0 0 Z " fill="#000000" transform="translate(1612.5234375,69.95703125)"/>
<path d="M0 0 C0.96365479 0.43868408 0.96365479 0.43868408 1.94677734 0.88623047 C17.55193345 8.0742675 31.32932133 17.41606191 44 29 C44.51159668 29.46631836 45.02319336 29.93263672 45.55029297 30.41308594 C66.56188964 49.83198626 83.42814337 77.65736697 85.1640625 106.74951172 C87.27193945 160.64968188 54.54775366 209.21743485 20 248 C19.53303711 248.52480957 19.06607422 249.04961914 18.58496094 249.59033203 C12.34882785 256.5566864 5.84558179 263.24926534 -0.75 269.875 C-1.79546997 270.92747925 -1.79546997 270.92747925 -2.86206055 272.0012207 C-7.41193451 276.53707348 -12.11765271 280.82566298 -17 285 C-17.54027832 285.46728516 -18.08055664 285.93457031 -18.63720703 286.41601562 C-24.58261989 291.55163859 -30.606317 296.51554013 -36.875 301.25 C-45.27211204 307.64903 -51.52840263 314.78886842 -57.96875 323.10546875 C-92.93745712 368.20454607 -92.93745712 368.20454607 -118 372 C-131.54021266 373.22489298 -140.08200465 371.23661744 -150.6875 362.8125 C-151.2227832 362.3602002 -151.75806641 361.90790039 -152.30957031 361.44189453 C-155.80129096 358.56960296 -158.4261142 357.01877108 -163 357 C-165.71016276 358.50994782 -166.80434909 359.42450774 -167.81274414 362.390625 C-169.17345555 371.88237724 -169.37693449 381.28953748 -169.47851562 390.8671875 C-169.69828218 401.35166035 -170.25955785 412.13694605 -177.35546875 420.44140625 C-182.84957523 425.64840978 -188.60669496 425.33847125 -195.8203125 425.171875 C-199.59682345 424.96773927 -203.26453905 424.58595466 -207 424 C-213.00923445 435.5914167 -213.64578936 449.33673498 -214.71337891 462.13623047 C-216.23440975 480.29912814 -219.48110818 495.03265782 -233.79296875 507.40625 C-237.37544738 510.34200233 -241.03906829 513.16639457 -244.75 515.9375 C-245.36351318 516.39825928 -245.97702637 516.85901855 -246.60913086 517.33374023 C-254.43606595 523.0271108 -261.42317819 524.51764834 -270.88476562 525.08398438 C-279.26149626 525.75223283 -285.34691599 528.663912 -291.10546875 534.7734375 C-293.85367245 538.00328515 -296.41310396 541.37005328 -298.96313477 544.7565918 C-302.09582021 548.896733 -305.39629313 552.84193527 -308.8125 556.75 C-316.3080846 565.37130391 -323.11715239 574.4947752 -329.97216797 583.62744141 C-349.72505621 609.92238862 -349.72505621 609.92238862 -362.0703125 619.6796875 C-366.46561526 623.16076729 -370.72217532 626.79952371 -374.984375 630.44140625 C-376.76591078 631.95294244 -378.56244626 633.44756753 -380.390625 634.90234375 C-389.31722545 642.14243 -393.15265821 652.23645184 -397.125 662.75 C-403.97339062 680.79328304 -403.97339062 680.79328304 -412 685 C-414.71542164 685.57539728 -417.1372668 685.96114205 -419.875 686.1875 C-420.62620117 686.26081543 -421.37740234 686.33413086 -422.15136719 686.40966797 C-424.43304236 686.62480282 -426.71578065 686.81412228 -429 687 C-430.20398437 687.11214844 -431.40796875 687.22429688 -432.6484375 687.33984375 C-441.7133559 688.05756506 -450.7855347 688.13178524 -459.875 688.1875 C-461.1115332 688.20055176 -462.34806641 688.21360352 -463.62207031 688.22705078 C-481.11067211 688.24356281 -481.11067211 688.24356281 -488 684 C-489 681.25 -489 681.25 -489 678 C-485.72350373 672.49609443 -481.51908996 667.82655803 -477.33984375 663 C-473.04707096 657.51472869 -473.04707096 657.51472869 -472.3125 650.875 C-474.73217602 646.752589 -477.4768591 645.3494037 -482 644 C-487.21300143 643.11741906 -491.54519269 643.35110124 -496.1875 646 C-505.09650895 652.45813701 -512.34309549 662.7869985 -514.54296875 673.69140625 C-514.74529173 679.38535287 -513.15034668 683.54025092 -509.37109375 687.86328125 C-505.81584224 691.56217929 -502.03159613 694.83187361 -498 698 C-489.16308222 704.97722848 -481.11271541 712.39073554 -479 724 C-478.49921882 731.8198908 -478.22376507 738.98699228 -482 746 C-486.16063185 748.66498347 -490.21445966 748.55034201 -495 748 C-497.98725971 747.16085219 -500.74489308 745.97814575 -503.5625 744.6875 C-504.97993156 744.06518128 -506.39789899 743.44408163 -507.81640625 742.82421875 C-508.50581299 742.52008057 -509.19521973 742.21594238 -509.90551758 741.90258789 C-516.64555114 738.99806474 -522.45342969 736.58551146 -529.8125 738.875 C-532.12932012 739.92570175 -532.12932012 739.92570175 -534 742 C-535.08768252 749.61377763 -531.48933544 754.56363478 -527.203125 760.48046875 C-523.87058831 764.77944107 -520.36898077 768.68015637 -516.4375 772.4375 C-507.78533787 780.88045614 -501.76722144 791.4071199 -500.6875 803.5 C-501.09549878 825.20553532 -519.57917354 843.53252253 -533 859 C-533.79664062 859.92167969 -534.59328125 860.84335938 -535.4140625 861.79296875 C-539.965693 866.96243226 -544.63804502 871.67614998 -550 876 C-551.28970703 877.06347656 -551.28970703 877.06347656 -552.60546875 878.1484375 C-562.2086925 885.74288975 -574.46259103 893.97014141 -587 895 C-587.9075 895.07992187 -588.815 895.15984375 -589.75 895.2421875 C-603.60467726 895.85554561 -613.97494673 890.16813424 -625.29882812 883.05566406 C-631.95117259 878.92754445 -637.06622833 876.13449764 -645 877 C-646.6629849 878.6629849 -646.25095551 880.58813615 -646.3125 882.875 C-646.11131414 894.09829688 -640.79352481 902.43449145 -634.88549805 911.63110352 C-631.56823912 916.82899527 -628.95115571 921.21587525 -629.0625 927.5625 C-630.46563717 932.7073363 -633.1856732 934.89481273 -637.6484375 937.61328125 C-641.75238212 939.31130029 -645.04419221 939.49788263 -649.4375 939.4375 C-650.23099854 939.42847656 -651.02449707 939.41945313 -651.84204102 939.41015625 C-681.85198914 938.54509119 -723.68699926 916.38973862 -746 897 C-746.80824219 896.32453125 -747.61648437 895.6490625 -748.44921875 894.953125 C-772.61470785 874.16397582 -788.98300251 843.61381321 -791.4140625 811.88671875 C-793.2377872 784.5407195 -793.2377872 784.5407195 -786 775 C-780.32195989 770.38659241 -776.26062591 769.86404659 -769.109375 770.04296875 C-767.7461085 770.06536979 -766.38282618 770.08682379 -765.01953125 770.10742188 C-762.8887173 770.14436251 -760.75872663 770.18725598 -758.62841797 770.24682617 C-747.19768833 770.62121447 -747.19768833 770.62121447 -737 766 C-735.12018806 764.08191387 -735.12018806 764.08191387 -734.0625 761.9375 C-733.49208984 760.93009766 -733.49208984 760.93009766 -732.91015625 759.90234375 C-729.94048957 753.69535803 -730.24996302 747.5404886 -732.49609375 741.140625 C-733.12827018 739.50455764 -733.77561424 737.87427544 -734.4375 736.25 C-739.57761515 723.24194622 -740.75832049 712.41511685 -735.23388672 699.16210938 C-730.7728015 689.03314849 -725.1034304 680.44247383 -718 672 C-717.54689453 671.45746582 -717.09378906 670.91493164 -716.62695312 670.35595703 C-714.31322839 667.59035829 -711.98153524 664.84138885 -709.6328125 662.10546875 C-707.28260752 659.35736782 -705.04758908 656.53022736 -702.8125 653.6875 C-688.84533618 636.5802364 -669.97988626 618.0466986 -647 615 C-640.16261094 614.8798953 -633.80169658 615.97336247 -627.1875 617.625 C-621.91964931 618.9149562 -618.25909863 619.40868713 -613 618 C-608.00195561 614.93301822 -604.84831362 610.54494086 -603 605 C-602.22229122 598.10061212 -602.92558574 592.57558036 -605.5 586.125 C-609.09380246 576.80164963 -609.57517737 568.23686211 -606 558.8125 C-597.72845409 541.31678631 -582.01939953 526.48039185 -567.09765625 514.5859375 C-563.15287921 511.36137416 -559.46039718 507.86361943 -555.75 504.375 C-555.08846924 503.75334961 -554.42693848 503.13169922 -553.74536133 502.49121094 C-549.94448942 498.90913394 -549.94448942 498.90913394 -546.29296875 495.17700195 C-541.87157308 490.47542213 -537.16379249 487.48413719 -531.5 484.4375 C-521.41501372 478.96484157 -515.14581512 474.45300125 -510.1875 463.9375 C-504.37878066 452.30106762 -497.02296388 443.0401702 -488.21875 433.4609375 C-484.30400804 429.11888215 -480.65905294 424.55766466 -477 420 C-476.43031494 419.31349365 -475.86062988 418.6269873 -475.27368164 417.91967773 C-469.09392771 410.38134725 -463.73365028 402.35766725 -458.35717773 394.2434082 C-453.50236863 386.93114144 -448.52026072 379.94142556 -442.86450195 373.21704102 C-441.40133119 371.47721469 -440.00053199 369.68491052 -438.625 367.875 C-430.89036272 359.4037306 -420.54457222 351.20957132 -409 349 C-406.77654895 348.95243013 -404.55161619 348.96215746 -402.328125 349.0078125 C-401.02359375 349.02457031 -399.7190625 349.04132813 -398.375 349.05859375 C-396.31681634 349.08940781 -394.25906203 349.12479483 -392.20117188 349.17138672 C-376.5442623 349.50667665 -369.40064433 345.62021348 -357.9296875 335.1015625 C-356.32486006 333.45194918 -355.06631968 332.03869049 -354 330 C-354.06288296 326.22702211 -354.81593776 323.55218673 -356 320 C-356.14854388 317.19480593 -356.23104204 314.43077873 -356.25 311.625 C-356.270625 310.86960937 -356.29125 310.11421875 -356.3125 309.3359375 C-356.34478679 304.71892602 -356.00942735 301.72789424 -353 298 C-348.97021906 294.12245523 -343.78494098 293.47658895 -338.5078125 292.16015625 C-333.24096762 290.41822648 -330.00253177 288.67157674 -327.109375 283.84765625 C-325.48551584 279.39861355 -325.9641847 275.08768378 -326.25 270.4375 C-326.70165298 255.47254829 -319.47370399 245.26904749 -309.6875 234.44140625 C-302.11174525 226.47502665 -293.18711727 219.07213446 -281.73828125 218.7734375 C-273.42655036 218.82618647 -265.38791086 221.05856516 -257.31835938 222.8671875 C-243.97658309 225.9624687 -243.97658309 225.9624687 -230.69995117 224.10546875 C-228.83871441 223.0991139 -228.83871441 223.0991139 -228 221 C-227.37998449 217.8224205 -227.57232473 215.75589118 -229.17578125 212.921875 C-233.12257042 207.53389552 -237.79318409 203.57513495 -243.01171875 199.4609375 C-246.33763086 196.72195106 -249.43518444 193.83700754 -252.5 190.8125 C-253.00426514 190.32547607 -253.50853027 189.83845215 -254.02807617 189.33666992 C-258.40891908 184.95137268 -260.73735415 181.32629181 -261.4375 175.125 C-261.23206916 170.40902235 -259.37539733 166.99601273 -257 163 C-256.56212158 162.23945312 -256.12424316 161.47890625 -255.6730957 160.6953125 C-239.52407512 133.17300688 -220.47142103 106.81238054 -198.52587891 83.62304688 C-196.99615827 81.99591362 -195.4862205 80.35244281 -193.98046875 78.703125 C-186.39970072 70.43139243 -178.54836973 62.44159788 -170.625 54.5 C-170.10885132 53.98126312 -169.59270264 53.46252625 -169.06091309 52.92807007 C-163.74722559 47.59335354 -158.40691525 42.34276598 -152.68115234 37.44482422 C-150.38609768 35.47239705 -148.20200224 33.38774224 -146 31.3125 C-105.09929514 -5.86483035 -52.64899987 -24.12841489 0 0 Z " fill="#000000" transform="translate(3201,819)"/>
<path d="M0 0 C31.0822366 -0.78983262 58.44814975 11.22517385 81.3359375 31.6640625 C105.06477428 54.2320641 121.11938672 84.91985812 122.61328125 117.87890625 C123.40744566 155.10536306 104.79650775 184.09215918 80.15673828 210.33935547 C78.42532073 212.18832902 76.70422 214.04651104 74.984375 215.90625 C67.62175304 223.84349159 60.10926676 231.59867622 52.38598633 239.18652344 C51.71849365 239.84555664 51.05100098 240.50458984 50.36328125 241.18359375 C49.49316406 242.03630859 49.49316406 242.03630859 48.60546875 242.90625 C46.84849243 244.74426766 45.20926537 246.61543028 43.56201172 248.54956055 C38.73999606 254.09027955 33.4978477 259.2065068 28.28189468 264.37207985 C26.3941576 266.24219297 24.51018481 268.11602651 22.62716675 269.9908905 C17.27773552 275.31607718 11.92267263 280.63557285 6.56298828 285.95043945 C3.26968289 289.21672397 -0.01853805 292.48805922 -3.30383682 295.76239586 C-4.54486877 296.99728679 -5.7877853 298.23028715 -7.03274155 299.46122169 C-13.63546606 305.99023571 -19.92915075 312.53970402 -25.69311523 319.83361816 C-28.18920854 322.97325385 -30.88253608 325.89628748 -33.63671875 328.80859375 C-36.76658623 332.15304999 -39.86943432 335.49440835 -42.82421875 338.99609375 C-57.10327672 355.39442797 -75.82745665 375.03887168 -98.6875 377.45703125 C-112.14634425 377.62463828 -121.60145604 372.14461232 -132.1484375 364.11328125 C-137.44715441 359.97734183 -137.44715441 359.97734183 -143.82421875 358.43359375 C-148.63640644 359.33078128 -150.92120118 361.00040366 -153.82421875 364.87109375 C-155.54785993 370.51210125 -154.66614248 374.86968591 -152.51171875 380.12109375 C-152.08414961 384.73884049 -152.57840657 387.96602333 -154.5859375 392.15234375 C-156.09146645 395.35397494 -157.28683407 398.67993031 -158.546875 401.984375 C-159.51171875 404.12109375 -159.51171875 404.12109375 -161.51171875 406.12109375 C-162.98416698 406.3725555 -164.46522371 406.57551961 -165.94921875 406.74609375 C-168.38188211 407.19786796 -168.38188211 407.19786796 -170.51171875 408.12109375 C-172.08464646 410.98606922 -172.75225003 412.99986256 -173.51171875 416.12109375 C-179.14085084 436.31683959 -191.21065923 460.69913488 -209.890625 471.49609375 C-221.49929637 478.41631514 -230.68501928 488.19784896 -240.08984375 497.7890625 C-250.61272498 508.50621433 -260.92999197 518.7777343 -273.51171875 527.12109375 C-274.38957031 527.73339844 -275.26742187 528.34570312 -276.171875 528.9765625 C-281.5546203 532.42041155 -285.36012261 532.43447865 -291.51171875 531.12109375 C-294.90630422 530.0018205 -298.13201225 528.59356362 -301.38671875 527.12109375 C-302.73950928 526.52965576 -302.73950928 526.52965576 -304.11962891 525.92626953 C-308.75139151 523.88234568 -313.32262577 521.74295093 -317.85546875 519.48828125 C-318.70254395 519.070625 -319.54961914 518.65296875 -320.42236328 518.22265625 C-322.02570775 517.42463737 -323.62106528 516.61029519 -325.20654297 515.77734375 C-330.0487159 513.35679376 -333.08920455 512.60408085 -338.51171875 514.12109375 C-345.47294579 517.39993257 -353.24887874 521.90850004 -356.51171875 529.12109375 C-357.30406917 533.47902109 -356.25607178 535.74952409 -354.01171875 539.37109375 C-351.08919587 544.30857542 -350.49691279 548.47683964 -351.51171875 554.12109375 C-353.41620682 558.16813089 -355.83775725 560.40484083 -359.26171875 563.12109375 C-366.55512394 569.35534635 -370.27895684 578.58914306 -374.4375 587.05078125 C-374.95538086 588.10144775 -375.47326172 589.15211426 -376.00683594 590.23461914 C-377.02824757 592.31928528 -378.03859522 594.40942026 -379.03613281 596.50561523 C-383.52877118 605.74612109 -389.28854525 613.29134649 -396.57421875 620.49609375 C-397.13093262 621.04716797 -397.68764648 621.59824219 -398.26123047 622.16601562 C-420.79494079 644.06346518 -449.63368712 659.86793817 -476.88671875 675.12109375 C-483.16491204 678.63658088 -489.42316924 682.15878668 -495.51171875 685.99609375 C-496.52234375 686.63289063 -497.53296875 687.2696875 -498.57421875 687.92578125 C-505.84656899 693.36070257 -510.329311 699.58380724 -514.88671875 707.37109375 C-525.41172904 724.79631825 -536.80857435 738.45688588 -557.21875 744.15625 C-577.35300255 748.61440067 -577.35300255 748.61440067 -586.07421875 744.30859375 C-592.15529712 740.36984024 -597.33778611 735.15705486 -602.51171875 730.12109375 C-603.75888672 728.91646484 -603.75888672 728.91646484 -605.03125 727.6875 C-609.77109546 723.02840148 -614.17800085 718.15530484 -618.51171875 713.12109375 C-623.54660006 707.3399711 -628.54367022 701.94632447 -634.51171875 697.12109375 C-634.4034375 698.04728516 -634.4034375 698.04728516 -634.29296875 698.9921875 C-633.99625781 701.6996748 -633.74292755 704.40723305 -633.51171875 707.12109375 C-633.44339844 707.9203125 -633.37507813 708.71953125 -633.3046875 709.54296875 C-633.03787687 715.27445627 -634.01383858 718.51861984 -637.51171875 723.12109375 C-641.82905257 726.09525705 -645.32247951 726.76974865 -650.51171875 726.12109375 C-656.62846416 722.99475721 -661.52751758 717.77885363 -666.51171875 713.12109375 C-667.13304688 712.54230469 -667.754375 711.96351563 -668.39453125 711.3671875 C-673.08954221 706.83595599 -677.14717809 701.8273728 -681.21240234 696.73242188 C-682.60288721 695.00803252 -684.01839143 693.30636314 -685.4375 691.60546875 C-696.25827652 678.53302993 -704.29495307 664.44265696 -711.51171875 649.12109375 C-712.0428125 648.00089844 -712.57390625 646.88070312 -713.12109375 645.7265625 C-716.30047127 638.6265481 -718.09429849 633.45236462 -715.32421875 625.87109375 C-712.95953751 622.28330152 -710.84478233 619.82486913 -706.62109375 618.55078125 C-703.19056247 617.9353806 -700.82508311 618.03156108 -697.44921875 618.99609375 C-693.23870876 622.04199459 -690.52359972 625.92808299 -687.51171875 630.12109375 C-684.4623801 634.24666957 -681.8641262 637.57239632 -676.5546875 638.44140625 C-673.06810114 638.63546486 -670.97177254 638.46008075 -668.13671875 636.37109375 C-664.27874514 631.02928414 -663.00028485 625.85664543 -663.90112305 619.27685547 C-664.54407023 615.98631131 -665.2404149 612.71056448 -665.94921875 609.43359375 C-667.69007936 600.72395243 -669.02998116 592.26606717 -669.07421875 583.37109375 C-669.08831787 582.53360596 -669.10241699 581.69611816 -669.11694336 580.83325195 C-669.02459182 575.16147374 -667.74447463 571.79195059 -664.51171875 567.12109375 C-660.15347578 563.08174661 -657.00606731 561.98001334 -651.13671875 561.99609375 C-649.73292969 561.99222656 -649.73292969 561.99222656 -648.30078125 561.98828125 C-645.59403518 562.11717392 -643.1602191 562.5739857 -640.51171875 563.12109375 C-636.79318051 563.49031031 -633.21814637 563.65710021 -629.51171875 563.12109375 C-626.76401603 560.84221135 -626.76401603 560.84221135 -625.51171875 558.12109375 C-625.94484375 557.61320312 -626.37796875 557.1053125 -626.82421875 556.58203125 C-627.38109375 555.89367188 -627.93796875 555.2053125 -628.51171875 554.49609375 C-629.06859375 553.82320312 -629.62546875 553.1503125 -630.19921875 552.45703125 C-631.91684113 549.40007237 -631.93321523 547.58965856 -631.51171875 544.12109375 C-627.94110575 535.95331651 -622.31239237 528.81888385 -616.51171875 522.12109375 C-615.24134766 520.64962891 -615.24134766 520.64962891 -613.9453125 519.1484375 C-607.9927219 512.38958823 -601.63168612 506.65987356 -594.51171875 501.12109375 C-593.31981906 500.1662996 -592.12981349 499.20913762 -590.94140625 498.25 C-584.98038133 493.44209897 -578.98220793 488.69487381 -572.88671875 484.05859375 C-565.04833296 478.07984022 -557.60456249 471.65466298 -550.14453125 465.21484375 C-494.4846909 417.20376835 -494.4846909 417.20376835 -463.5703125 417.8828125 C-460.79703708 418.09886588 -458.22656427 418.53934114 -455.51171875 419.12109375 C-452.62177503 419.49780895 -450.49419821 419.40513941 -447.51171875 419.12109375 C-439.16125603 412.57613648 -439.36212171 395.91968665 -438.13867188 386.23632812 C-434.58611558 360.17929388 -418.41812731 344.81077465 -398.37255859 329.55859375 C-395.03256938 326.97844989 -391.77703851 324.29464543 -388.51171875 321.62109375 C-382.89734633 317.03598917 -377.23243352 312.5251303 -371.51293945 308.07202148 C-367.83130187 305.1938598 -364.25287187 302.21991233 -360.69921875 299.18359375 C-355.32262539 294.65291775 -349.66180845 290.65905856 -343.87768555 286.66796875 C-339.19307257 283.40288765 -334.80768865 279.94240735 -330.51171875 276.18359375 C-322.83174512 269.52925015 -316.31047296 265.93195109 -306.30859375 263.89453125 C-300.92459589 262.40566033 -298.02488471 259.8751252 -294.76171875 255.43359375 C-290.17205151 249.49658101 -284.6793077 242.94090103 -277.51171875 240.12109375 C-275.29296875 239.890625 -275.29296875 239.890625 -273.01171875 239.93359375 C-272.25890625 239.94003906 -271.50609375 239.94648437 -270.73046875 239.953125 C-268.55181732 240.11805812 -266.60967064 240.52508469 -264.51171875 241.12109375 C-264.59421875 240.11046875 -264.67671875 239.09984375 -264.76171875 238.05859375 C-264.41754913 232.63792217 -262.68968521 229.21706617 -258.8515625 225.5234375 C-247.74230735 216.60409712 -235.02050132 214.05787997 -221.2265625 212.91015625 C-220.01419922 212.79800781 -220.01419922 212.79800781 -218.77734375 212.68359375 C-218.05321289 212.62300781 -217.32908203 212.56242187 -216.58300781 212.5 C-214.27939807 212.07859473 -212.5494957 211.25536058 -210.51171875 210.12109375 C-210.67671875 208.88359375 -210.84171875 207.64609375 -211.01171875 206.37109375 C-211.19044924 204.62228467 -211.35590942 202.87209382 -211.51171875 201.12109375 C-211.60324219 200.1465625 -211.69476562 199.17203125 -211.7890625 198.16796875 C-212.13100807 191.66266282 -211.4677324 187.43676336 -207.48828125 182.203125 C-204.62790163 179.19011643 -201.46251021 176.73054733 -198.07421875 174.3359375 C-191.81282072 168.92402792 -188.39093045 162.22324777 -185.13671875 154.74609375 C-180.32270178 144.18493743 -174.20837418 136.72510747 -165.9296875 128.66015625 C-161.51870911 124.02827264 -157.7291645 118.89187522 -153.83300781 113.82714844 C-147.73220631 105.94976468 -141.22417741 98.47785472 -134.51171875 91.12109375 C-133.07336974 89.51768829 -131.63587951 87.91351207 -130.19921875 86.30859375 C-126.15507601 81.81116706 -122.05765217 77.36484078 -117.9362793 72.93823242 C-115.28635218 70.0823454 -112.68862818 67.19057765 -110.1328125 64.25 C-100.89493887 53.6504891 -91.31973612 43.13862631 -80.51171875 34.12109375 C-79.98320312 33.66959961 -79.4546875 33.21810547 -78.91015625 32.75292969 C-56.02124268 13.26399487 -30.2168777 1.45680126 0 0 Z " fill="#000000" transform="translate(3399.51171875,1414.87890625)"/>
<path d="M0 0 C0.75555176 0.20963379 1.51110352 0.41926758 2.28955078 0.63525391 C44.71086937 12.78636589 82.43309502 41.53233093 114.6328125 70.8515625 C116.15704686 72.23494352 117.69274506 73.60585021 119.2421875 74.9609375 C124.93028593 79.95956945 130.32441773 85.21847055 135.6875 90.5625 C136.40043213 91.27083984 137.11336426 91.97917969 137.84790039 92.70898438 C142.43642769 97.31083957 146.76606745 102.07214353 151 107 C152.05717555 108.20307061 153.11574005 109.40492233 154.17578125 110.60546875 C160.61986976 117.94625826 166.85576473 125.37587863 172.67822266 133.22314453 C173.59654911 134.45764396 174.52117421 135.68747282 175.45068359 136.91357422 C203.0385968 173.3422997 234.42143904 224.51015667 227.875 272.1875 C223.0380845 306.84178224 209.3369802 339.87210778 196 372 C195.71261963 372.69333435 195.42523926 373.3866687 195.12915039 374.10101318 C193.22930515 378.67929566 191.30893871 383.24852689 189.375 387.8125 C188.89047363 388.96250488 188.40594727 390.11250977 187.90673828 391.29736328 C181.89633275 405.29759839 175.02599228 410.92292047 161.171875 417.09375 C156.89156866 419.66615085 154.83167081 422.65406063 153.171875 427.3359375 C153.03265625 428.00882813 152.8934375 428.68171875 152.75 429.375 C152.5025 430.57125 152.255 431.7675 152 433 C153.76150391 433.58201172 153.76150391 433.58201172 155.55859375 434.17578125 C194.43874198 447.15608469 194.43874198 447.15608469 208 455 C208.87914062 455.49757813 209.75828125 455.99515625 210.6640625 456.5078125 C217.72138401 460.8271765 224.46412648 466.9346852 227 475 C228.15391194 483.73484502 226.24616492 490.89258291 221.5625 498.26171875 C215.59814774 506.01824417 207.50392223 507.51115424 198.3125 509.375 C192.47495517 510.65217984 188.11733184 512.59871424 184 517 C182.98343407 518.65661447 181.9816246 520.32244496 181 522 C182.02246826 521.97905273 183.04493652 521.95810547 184.09838867 521.93652344 C187.95436145 521.86318149 191.81027501 521.81786456 195.66674805 521.78027344 C197.32408066 521.76036939 198.98134506 521.73323586 200.63842773 521.69824219 C213.87342803 521.42609824 226.54113542 521.91372629 237.0703125 531.03515625 C245.73845468 539.86122005 249.51970168 551.77240536 250 564 C250.0515625 564.94230469 250.103125 565.88460937 250.15625 566.85546875 C250.43645114 576.62748355 249.10898445 586.11870244 247.75390625 595.77734375 C247.56465576 597.13835205 247.56465576 597.13835205 247.37158203 598.52685547 C247.06454893 600.57038067 246.680932 602.60223876 246.27734375 604.62890625 C245.64512771 612.31344771 248.52851128 618.57635544 252 625.25 C256.87406558 635.19152045 259.72133314 644.69645789 256.4140625 655.66796875 C250.45221109 669.71619873 240.53193512 682.22604447 231.72119141 694.57910156 C230.0664397 696.90655091 228.42681103 699.24377624 226.79296875 701.5859375 C194.57542489 747.72281081 194.57542489 747.72281081 175 752 C150.12523758 753.96944444 127.69143221 746.80428876 108.453125 730.70556641 C104.86149815 727.57956197 101.42698755 724.30459514 98 721 C96.95585938 720.05060547 96.95585938 720.05060547 95.890625 719.08203125 C84.48956201 708.41120164 76.08331488 694.78854067 69 681 C68.6601709 680.35015137 68.3203418 679.70030273 67.97021484 679.03076172 C63.39391244 670.1911226 59.79199627 661.09988255 56.5625 651.6875 C56.22017334 650.70974609 55.87784668 649.73199219 55.52514648 648.72460938 C49.31735177 629.94472621 51.85076485 603.80340645 60.5859375 585.8359375 C63.57943143 581.94935698 67.82856512 579.47579436 72 577 C70.75134245 574.20922159 70.14858244 573.10286477 67.5625 571.3125 C64.31544064 570.11621497 62.25796996 569.80562033 58.875 569.625 C29.17162218 567.43213318 -2.86539538 536.43992833 -21.53515625 515.25830078 C-33.9883407 500.56133753 -44.03090748 483.98959163 -53 467 C-53.51788086 466.01918457 -54.03576172 465.03836914 -54.56933594 464.02783203 C-68.42241676 437.69242181 -81.68755793 411.09220887 -94 384 C-94.32828796 383.27790344 -94.65657593 382.55580688 -94.99481201 381.81182861 C-104.51981361 360.84762165 -113.88098221 339.81341368 -123.10375977 318.71459961 C-127.03702514 309.72109835 -130.99912095 300.74183223 -135.015625 291.78515625 C-189.34781756 170.58002279 -189.34781756 170.58002279 -191 110 C-191.0515625 108.700625 -191.103125 107.40125 -191.15625 106.0625 C-191.91822316 79.22586866 -185.4217748 52.22215767 -167 32 C-166.12730469 31.03449219 -165.25460938 30.06898437 -164.35546875 29.07421875 C-124.05731048 -14.03799906 -53.0026484 -14.72119149 0 0 Z " fill="#000000" transform="translate(225,1461)"/>
<path d="M0 0 C4.21390239 3.44431998 8.10895319 7.19983896 12 11 C12.72832031 11.66644531 13.45664063 12.33289063 14.20703125 13.01953125 C37.33804243 34.69059695 48.10298045 69.85678755 49.12426758 100.76025391 C50.1297593 147.09989023 41.29854527 188.77343989 22 231 C21.33567947 232.48165517 20.67159883 233.96341793 20.0078125 235.4453125 C16.01917869 244.23454463 11.51153067 252.69242116 6.84863281 261.14038086 C2.74851099 268.57999442 -1.21787378 276.08232625 -5.125 283.625 C-5.71716309 284.76807617 -6.30932617 285.91115234 -6.91943359 287.08886719 C-10.01087487 293.07966018 -13.05032874 299.09199654 -16.02636719 305.14086914 C-30.43601371 334.3942916 -47.5798628 364.05446792 -79 377 C-93.54015295 381.59480925 -107.89957925 379.97784375 -122.75 378 C-124.9405036 377.71109977 -127.13122361 377.42457849 -129.32281494 377.14404297 C-131.3002326 376.89059128 -133.27662155 376.62915034 -135.25292969 376.3671875 C-141.29894375 375.77471909 -147.01236184 375.80247237 -153 377 C-153.8031834 382.22069212 -152.23833693 385.60464229 -149.28515625 389.765625 C-144.54903556 394.39649856 -138.04264545 396.51293556 -132 399 C-119.06033126 404.53724563 -119.06033126 404.53724563 -115.89453125 410.7265625 C-110.61847028 424.13559081 -110.61847028 424.13559081 -113 431 C-116.95065966 434.5454638 -121.56192211 436.06122584 -126.53515625 437.6796875 C-129.89198859 439.47780054 -132.14460082 441.71221285 -134 445 C-134.73601929 447.78190932 -134.91138471 450.50856147 -135.0625 453.375 C-135.81998736 462.04781506 -137.66361051 467.20583704 -143.25 473.9375 C-151.18485672 483.91516026 -155.19817144 496.35124188 -159.3125 508.25 C-171.04873687 541.91065596 -192.81877422 573.04740674 -217 599 C-218.11955078 600.21816406 -218.11955078 600.21816406 -219.26171875 601.4609375 C-236.46056191 619.48418802 -256.32285528 628.48284509 -280 635 C-280.07150325 636.88745879 -280.12207387 638.77571657 -280.1640625 640.6640625 C-280.1945166 641.7154541 -280.2249707 642.7668457 -280.25634766 643.85009766 C-279.97543496 647.30184591 -279.07227612 649.38453269 -277.375 652.375 C-274.98094512 656.67606707 -274.98094512 656.67606707 -275.1875 660.1875 C-279.34795469 666.64337797 -284.83448545 670.37903104 -292 673 C-303.77081933 675.08974691 -314.47982812 671.47637024 -325.59472656 667.84643555 C-334.75415227 664.46211757 -334.75415227 664.46211757 -344 666 C-343.43353832 669.77863261 -342.42040543 672.38127789 -340.3125 675.5625 C-339.59513672 676.67818359 -339.59513672 676.67818359 -338.86328125 677.81640625 C-333.52790676 684.06897299 -326.97707164 685.339722 -319.25 687.1875 C-317.17145895 687.70013895 -315.09331237 688.21438081 -313.015625 688.73046875 C-311.64325684 689.06147583 -311.64325684 689.06147583 -310.24316406 689.39916992 C-308 690 -308 690 -306 691 C-306.0625 693.1875 -306.0625 693.1875 -307 696 C-316.85183498 704.78098335 -328.08436829 705.79609688 -340.7734375 705.3828125 C-347.88942222 704.97331501 -354.26976951 703.38982742 -361 701 C-362.80984375 700.36384766 -362.80984375 700.36384766 -364.65625 699.71484375 C-388.39367081 690.76344242 -410.31406664 676.26554811 -428.83984375 659.0078125 C-430.86538639 657.12512006 -432.94704391 655.34262939 -435.0625 653.5625 C-447.3895769 642.74840437 -457.12721171 630.44722393 -459.2734375 613.890625 C-459.72201938 605.54010071 -457.56076353 597.24407387 -452.125 590.875 C-447.64682816 586.08072192 -443.26762003 584.96814237 -436.92236328 583.70776367 C-421.61774527 580.65822501 -402.21831141 575.49824171 -393 562 C-393.33 561.34 -393.66 560.68 -394 560 C-395.69527832 560.03927612 -395.69527832 560.03927612 -397.42480469 560.0793457 C-401.62154308 560.16990714 -405.81819531 560.22727031 -410.015625 560.2746582 C-411.83152799 560.299789 -413.64732996 560.33389961 -415.46289062 560.37719727 C-418.07447223 560.43791511 -420.68471594 560.46622281 -423.296875 560.48828125 C-424.10743347 560.51408768 -424.91799194 560.5398941 -425.75311279 560.56648254 C-429.74281744 560.56846382 -431.54523533 560.4408911 -434.46484375 557.61035156 C-439.95340914 548.27769552 -441.73137966 539.90308564 -439.05786133 529.24365234 C-438.65694903 527.87630016 -438.24793791 526.51130371 -437.83203125 525.1484375 C-437.60969818 524.40769485 -437.38736511 523.66695221 -437.15829468 522.90376282 C-434.72500591 514.91156302 -431.94214774 507.05061153 -429.125 499.1875 C-427.97561761 495.95958692 -426.83058744 492.73014728 -425.6875 489.5 C-425.39086456 488.66216476 -425.09422913 487.82432953 -424.78860474 486.96110535 C-422.49204986 480.45051765 -420.2656215 473.91773334 -418.0625 467.375 C-417.56917679 465.91299919 -417.56917679 465.91299919 -417.06588745 464.42146301 C-415.77111605 460.58249032 -414.47656495 456.74352417 -413.19683838 452.89950562 C-410.18028982 443.83961201 -407.10476245 434.85722473 -403.2890625 426.09765625 C-403.01409943 425.46631271 -402.73913635 424.83496918 -402.45584106 424.18449402 C-391.98445422 400.86358364 -370.62400575 383.03712516 -347.16796875 373.8125 C-346.45253906 373.544375 -345.73710937 373.27625 -345 373 C-345.45890625 372.35675781 -345.9178125 371.71351563 -346.390625 371.05078125 C-353.02950907 361.27376921 -358.55490466 348.78771563 -356.62890625 336.6640625 C-354.78399875 329.94905757 -350.8181108 324.669509 -345.1171875 320.68359375 C-338.26420857 316.92416604 -330.76046802 316.17589505 -323.09643555 315.40649414 C-315.49259589 314.6121953 -309.63017805 312.87548086 -303 309 C-302.01 308.67 -301.02 308.34 -300 308 C-296.84408505 300.52546459 -297.73136154 292.34999006 -298.3359375 284.421875 C-299.03963441 274.93527992 -299.15909605 267.10441123 -296 258 C-295.46641978 256.34538328 -294.93397923 254.69039884 -294.40234375 253.03515625 C-283.33403042 219.32644154 -266.78368593 187.16610643 -250.1875 155.875 C-242.22636092 140.86039007 -234.5960785 125.6636642 -227.4375 110.25 C-222.89278812 100.51461674 -217.77164855 91.11767938 -212.53076172 81.7421875 C-211.05267404 79.09435963 -209.5903717 76.43827747 -208.12890625 73.78125 C-194.43802547 49.12086023 -178.58963037 25.37563406 -159 5 C-157.93265625 3.82050781 -157.93265625 3.82050781 -156.84375 2.6171875 C-116.18816562 -40.92069577 -44.32870107 -33.33182378 0 0 Z " fill="#000000" transform="translate(2683,225)"/>
<path d="M0 0 C5.45312123 3.88420646 10.42447737 8.12926951 15.36328125 12.64453125 C18.0153883 15.01374688 20.73432638 17.26483641 23.5 19.5 C27.96420457 23.11149134 32.23002114 26.88660694 36.47265625 30.75390625 C39.06962393 33.06187598 41.73404013 35.25555863 44.4375 37.4375 C49.20996203 41.29708603 53.73109109 45.37199991 58.24609375 49.52734375 C61.83207284 52.74709519 65.56701492 55.75905176 69.31640625 58.78515625 C72.80550916 61.66480887 76.12996921 64.70693876 79.47265625 67.75390625 C82.06962393 70.06187598 84.73404013 72.25555863 87.4375 74.4375 C92.20996203 78.29708603 96.73109109 82.37199991 101.24609375 86.52734375 C104.83207284 89.74709519 108.56701492 92.75905176 112.31640625 95.78515625 C115.80550916 98.66480887 119.12996921 101.70693876 122.47265625 104.75390625 C125.06962393 107.06187598 127.73404013 109.25555863 130.4375 111.4375 C135.20996203 115.29708603 139.73109109 119.37199991 144.24609375 123.52734375 C147.83207284 126.74709519 151.56701492 129.75905176 155.31640625 132.78515625 C158.80550916 135.66480887 162.12996921 138.70693876 165.47265625 141.75390625 C168.06962393 144.06187598 170.73404013 146.25555863 173.4375 148.4375 C177.24087503 151.51336588 180.90082652 154.68753166 184.5 158 C189.02671747 162.16458007 193.68970415 166.09823642 198.48828125 169.9453125 C200.71776294 171.76911868 202.8245201 173.66970517 204.9375 175.625 C207.61612316 178.26454586 207.61612316 178.26454586 209.95605469 177.8059082 C212.17419936 176.93131485 213.84327997 175.89033563 215.765625 174.48046875 C216.48226318 173.95912354 217.19890137 173.43777832 217.93725586 172.90063477 C218.70046143 172.33530029 219.46366699 171.76996582 220.25 171.1875 C221.04994385 170.60218506 221.8498877 170.01687012 222.67407227 169.41381836 C229.11444276 164.68935248 235.50359114 159.89638537 241.8828125 155.08984375 C248.73941903 149.93164749 255.663761 144.86454672 262.57666016 139.78222656 C266.55322518 136.85769254 270.52646271 133.92864567 274.5 131 C276.08331696 129.83331112 277.66665031 128.66664447 279.25 127.5 C280.03375 126.9225 280.8175 126.345 281.625 125.75 C307.75 106.5 307.75 106.5 310.12573242 104.74951172 C311.70668983 103.58456151 313.28758192 102.41952266 314.8684082 101.25439453 C318.86255828 98.3107302 322.8578843 95.36868654 326.85546875 92.4296875 C334.26019463 86.98363105 341.65424366 81.52542234 349 76 C357.1498895 69.86971479 365.3602261 63.82289741 373.57666016 57.78222656 C377.55322518 54.85769254 381.52646271 51.92864567 385.5 49 C387.08331696 47.83331112 388.66665031 46.66664447 390.25 45.5 C391.03375 44.9225 391.8175 44.345 392.625 43.75 C395 42 397.375 40.25 399.75 38.5 C400.53455566 37.92185547 401.31911133 37.34371094 402.12744141 36.74804688 C403.70244018 35.58762382 405.27763386 34.42746526 406.85302734 33.26757812 C410.94056089 30.25758241 415.0240685 27.24233519 419.1015625 24.21875 C419.94267578 23.59613281 420.78378906 22.97351562 421.65039062 22.33203125 C423.24151509 21.1540717 424.8314589 19.97451483 426.41992188 18.79296875 C431.5084652 15.029333 436.70390007 11.4651759 442 8 C441.38601764 12.93488319 439.86746405 17.24062916 438 21.8125 C435.01335287 29.30191066 432.21343666 36.84496215 429.5 44.4375 C428.72921527 46.59116323 427.95838243 48.74480924 427.1875 50.8984375 C426.81625 51.93581055 426.445 52.97318359 426.0625 54.04199219 C422.34265787 64.39806004 418.49033806 74.70508038 414.61279297 85.00292969 C411.37904594 93.59311602 408.18858741 102.19060771 405.16113281 110.85571289 C401.15441329 122.30839025 396.88208502 133.66476595 392.60668945 145.01928711 C389.66883878 152.82308716 386.74151681 160.62477342 384 168.5 C379.68851198 180.88354324 374.98807159 193.12802836 370.3359375 205.38671875 C367.3727713 213.2124669 364.56232824 221.07975189 361.8269043 228.98803711 C359.03687845 237.00275588 356.0493234 244.94006026 353.02026367 252.8671875 C351.11981891 257.87106066 349.36464983 262.82299509 348 268 C348.58233398 268.27602051 349.16466797 268.55204102 349.76464844 268.83642578 C351.92112098 269.95894087 353.79942118 271.1914639 355.765625 272.6171875 C356.48226318 273.13531006 357.19890137 273.65343262 357.93725586 274.18725586 C358.70046143 274.74421143 359.46366699 275.30116699 360.25 275.875 C361.04994385 276.45580322 361.8498877 277.03660645 362.67407227 277.63500977 C368.45323833 281.84245283 374.1854077 286.10997193 379.89428711 290.41210938 C387.41054181 296.07444686 394.99486316 301.64368378 402.57666016 307.21777344 C406.55322518 310.14230746 410.52646271 313.07135433 414.5 316 C416.08331696 317.16668888 417.66665031 318.33335553 419.25 319.5 C454.08333333 345.16666667 488.91666667 370.83333333 523.75 396.5 C524.53431396 397.07790283 525.31862793 397.65580566 526.12670898 398.2512207 C527.70439483 399.41375169 529.28203183 400.57634897 530.85961914 401.73901367 C534.90395379 404.71951156 538.94922297 407.69872758 542.99609375 410.67578125 C546.9592376 413.59157278 550.91947692 416.51126417 554.87744141 419.43408203 C556.24324464 420.4417036 557.61002912 421.44799719 558.97802734 422.45263672 C560.6964395 423.71474477 562.41122768 424.98160292 564.125 426.25 C565.05570313 426.93578125 565.98640625 427.6215625 566.9453125 428.328125 C569 430 569 430 570 432 C425.955 432.495 425.955 432.495 279 433 C276.69 441.58 274.38 450.16 272 459 C269 469.0625 269 469.0625 267.52734375 473.8984375 C264.83080888 482.82138892 262.38426837 491.81747861 259.89111328 500.79882812 C259.01513239 503.94563947 258.13202013 507.09035039 257.24609375 510.234375 C254.25791413 520.8462972 251.33271649 531.47047378 248.5 542.125 C246.00723953 551.49124788 243.28661328 560.76384911 240.4140625 570.02001953 C238.39607164 576.56593446 236.69036768 583.11950038 235.09375 589.78125 C233.51428121 596.09912516 231.49393445 602.2936257 229.56640625 608.51171875 C227.8829142 613.98126159 226.33376282 619.43498961 225 625 C223.17825141 632.60108895 220.88727649 640.02578671 218.57299805 647.48974609 C216.44292466 654.40918061 214.60008169 661.34511435 212.91015625 668.3828125 C211.49851509 673.99302586 209.77263952 679.49350275 208 685 C206 684 206 684 205.13378906 681.69360352 C204.84729492 680.68225342 204.56080078 679.67090332 204.265625 678.62890625 C203.94174805 677.50572998 203.61787109 676.38255371 203.28417969 675.2253418 C202.94290039 674.016604 202.60162109 672.80786621 202.25 671.5625 C199.89055882 663.38550127 197.50502912 655.24073111 194.75 647.1875 C192.68071359 641.11827277 190.83694294 635.02588396 189.11328125 628.84765625 C186.02292123 617.98360712 182.37635345 607.26779014 178.91015625 596.51953125 C175.81694089 586.91326345 172.75147832 577.32381081 170.04296875 567.6015625 C166.92421199 556.83192304 163.35110908 546.18951039 159.91015625 535.51953125 C156.79354904 525.83997113 153.70965489 516.17862272 150.9921875 506.37890625 C149.53765877 501.42549147 147.86352028 496.55062004 146.20825195 491.66137695 C144.34144712 486.1139131 142.69627986 480.53054676 141.12890625 474.890625 C139.70743124 469.8893865 138.09074925 464.949369 136.5 460 C129 436.62234043 129 436.62234043 129 433 C127.64984598 433.00138269 127.64984598 433.00138269 126.27241611 433.00279331 C97.20244882 433.03206453 68.13247988 433.05134753 39.0625 433.0625 C37.96250797 433.0629343 36.86251595 433.06336861 35.72919083 433.06381607 C-73.13284336 433.10564992 -73.13284336 433.10564992 -123.5 432.5 C-124.99332918 432.48206327 -124.99332918 432.48206327 -126.51682663 432.46376419 C-137.67817622 432.32812703 -148.839231 432.17724553 -160 432 C-154.53533486 426.48340627 -154.53533486 426.48340627 -151.71484375 424.59765625 C-151.1125293 424.18990967 -150.51021484 423.78216309 -149.88964844 423.36206055 C-149.24543945 422.93320557 -148.60123047 422.50435059 -147.9375 422.0625 C-146.50329113 421.09205429 -145.06972732 420.12065476 -143.63671875 419.1484375 C-142.88181152 418.63764648 -142.1269043 418.12685547 -141.34912109 417.60058594 C-137.2893673 414.83445147 -133.27077401 412.00986096 -129.25 409.1875 C-127.99110962 408.3049353 -127.99110962 408.3049353 -126.70678711 407.40454102 C-124.99251297 406.20270616 -123.27840227 405.00063814 -121.56445312 403.79833984 C-117.37826875 400.86275016 -113.18900408 397.93156391 -109 395 C-107.33331803 393.83335519 -105.66665138 392.6666885 -104 391.5 C26 300.5 26 300.5 28.50146484 298.74902344 C30.16330991 297.58569942 31.82509405 296.42228836 33.48681641 295.25878906 C37.72675092 292.29025284 41.96782728 289.32337056 46.2109375 286.359375 C55.84612006 279.62633405 65.4541053 272.85913626 75 266 C74.43768941 258.97111756 72.93223753 252.66906557 70.875 245.9375 C70.23677734 243.80084153 69.59876231 241.66412102 68.9609375 239.52734375 C68.63448242 238.44308105 68.30802734 237.35881836 67.97167969 236.24169922 C66.45139833 231.16976559 64.9769169 226.08469434 63.5 221 C62.91691073 218.99992883 62.33357677 216.99992898 61.75 215 C23.25 83 23.25 83 22.375 79.99975586 C21.79184168 78.0005186 21.20850844 76.00133236 20.625 74.00219727 C19.16254779 68.99093174 17.70318139 63.97880612 16.25 58.96484375 C13.33911832 48.93378482 10.37871418 38.92226679 7.3125 28.9375 C0 5.07129527 0 5.07129527 0 0 Z " fill="#6CBD44" transform="translate(1454,2045)"/>
<path d="M0 0 C2.49732489 3.74598733 2.62175294 5.57001031 2 10 C-2.96606585 14.19356671 -6.9845344 15.12197561 -13.32885742 15.15771484 C-15.29316963 15.17310806 -15.29316963 15.17310806 -17.29716492 15.18881226 C-18.34869531 15.19396914 -18.34869531 15.19396914 -19.42146873 15.19923019 C-21.63151688 15.21107713 -23.84137464 15.23055321 -26.05134583 15.25234985 C-32.33584008 15.31370841 -38.62032162 15.36759335 -44.9050293 15.40136719 C-48.75366495 15.42260111 -52.60196342 15.45814121 -56.45040321 15.50212479 C-57.90245843 15.51608029 -59.35457342 15.52495974 -60.80669212 15.52817917 C-73.63309716 15.55957566 -86.92907712 15.89705028 -98 23 C-100.74160982 26.03196361 -102.11155156 29.01281674 -103 33 C-102.61655488 37.7035935 -100.94881835 41.75046361 -99 46 C-98.51321777 47.07048584 -98.51321777 47.07048584 -98.01660156 48.16259766 C-92.19182579 60.63781249 -84.78596517 71.44110742 -76 82 C-75.56187988 82.53592773 -75.12375977 83.07185547 -74.67236328 83.62402344 C-65.24859035 95.05516093 -53.21033005 105.26322332 -39 110 C-33.64033849 110.34578461 -30.38091432 110.45162946 -26 107 C-24.32323169 103.64646339 -24.31662556 100.5994981 -25 97 C-28.46482553 89.46519106 -34.16208278 83.33043358 -39.56835938 77.14233398 C-50.7390887 64.33103653 -50.7390887 64.33103653 -51.296875 59.34765625 C-51 57 -51 57 -49 55 C-35.37169471 52.27433894 -23.68959759 56.52772075 -11.25927734 61.72412109 C-0.94877774 66.0138134 8.42748675 69.05830644 19.23046875 64.6953125 C25.45832929 61.87189907 25.45832929 61.87189907 30 57 C30 47.4552077 25.57471654 40.06422992 20.6015625 32.14453125 C20.19228516 31.48727051 19.78300781 30.83000977 19.36132812 30.15283203 C18.55539277 28.87167492 17.73437068 27.59984819 16.89648438 26.33935547 C14.18456516 22.06098891 13.57529902 19.02562824 14 14 C21.28809768 14.31658095 27.05021909 15.8248905 33.625 18.9375 C34.48746338 19.33791504 35.34992676 19.73833008 36.23852539 20.15087891 C49.908026 26.65104339 61.87976712 34.75879505 73 45 C73.76521973 45.69150146 73.76521973 45.69150146 74.54589844 46.39697266 C90.79932606 61.2126367 106.05802263 83.15739224 107.34375 105.6484375 C108.15622905 131.68943285 96.0137137 151.37492241 83 173 C82.30777483 174.15839671 81.61605043 175.31709279 80.92480469 176.47607422 C71.70096165 191.93499999 62.21679998 207.17074628 52 222 C51.47035645 222.76908691 50.94071289 223.53817383 50.39501953 224.33056641 C43.86693862 233.77033697 37.10327574 242.9847693 30 252 C29.33613281 252.84691406 28.67226562 253.69382812 27.98828125 254.56640625 C10.57777617 276.56791673 -8.57177345 299.01730994 -31 316 C-32.29394094 317.00917138 -33.58682204 318.01970247 -34.87890625 319.03125 C-43.73385308 325.92647042 -52.76697319 332.4959415 -62.10205078 338.72558594 C-63.95412504 339.96919639 -65.78802334 341.23641687 -67.62109375 342.5078125 C-77.74581179 349.42276756 -88.24696406 352.97024987 -99.96069336 356.22412109 C-116.63943574 360.66449626 -116.63943574 360.66449626 -129.375 371.8125 C-131.01598729 377.55595552 -129.08944228 382.25429946 -126.4375 387.3125 C-122.62348954 393.92284024 -118.15941979 400.11778841 -113.34375 406.03515625 C-111.14784834 408.81053195 -110.03639623 410.6287585 -109.6875 414.1875 C-111.3727588 417.79876886 -113.16910476 418.61374336 -116.69921875 420.23828125 C-155.48070103 433.07765145 -213.82893133 409.42047919 -248.12890625 392.4921875 C-258.24658031 387.37926668 -267.81285313 381.63912918 -277 375 C-277.57524414 374.5870166 -278.15048828 374.1740332 -278.74316406 373.74853516 C-286.28823825 368.26294742 -293.11187214 362.17589199 -299.75 355.625 C-300.442146 354.94679199 -301.13429199 354.26858398 -301.84741211 353.56982422 C-307.88833651 347.4706467 -307.88833651 347.4706467 -309 343 C-308.91281126 339.42526181 -308.33543127 338.32611373 -305.75 335.8125 C-300.59353869 332.41392323 -296.18758724 331.17205146 -290 332 C-280.10601786 334.65191705 -270.89530071 339.07262589 -261.63623047 343.36376953 C-253.567328 347.09195431 -245.51092401 350.398785 -237 353 C-241.28435618 338.00475338 -256.47613658 330.98664486 -268.95703125 323.34375 C-270.52904297 322.37610718 -270.52904297 322.37610718 -272.1328125 321.38891602 C-274.19818748 320.12136824 -276.26951934 318.86345776 -278.34765625 317.61694336 C-297.01410134 306.18652349 -297.01410134 306.18652349 -300.4453125 296.82421875 C-304.0579284 278.43040682 -297.40413645 261.85583833 -291.18896484 244.8503418 C-287.837392 235.59834119 -284.8722877 226.26333877 -281.99179077 216.8553772 C-277.68924205 202.83116061 -272.89581084 189.17993758 -267.30874634 175.61672974 C-262.31461083 163.49003671 -257.78763586 151.24677517 -253.4375 138.875 C-215.9331267 32.47611784 -215.9331267 32.47611784 -167 5 C-165.86820313 4.35417969 -164.73640625 3.70835937 -163.5703125 3.04296875 C-145.67513806 -6.73911473 -125.0910963 -12.80855234 -105 -16 C-104.31341309 -16.11424316 -103.62682617 -16.22848633 -102.91943359 -16.34619141 C-71.51083725 -21.3617586 -26.02433985 -21.35629683 0 0 Z " fill="#000000" transform="translate(2262,978)"/>
<path d="M0 0 C1.43583001 -0.10836453 2.8740202 -0.18576167 4.3125 -0.25 C5.51326172 -0.31960937 5.51326172 -0.31960937 6.73828125 -0.390625 C9 0 9 0 10.5625 1.5390625 C12.47642045 4.8156111 14.10586041 8.17775212 15.6875 11.625 C16.00783203 12.305625 16.32816406 12.98625 16.65820312 13.6875 C19 18.74058835 19 18.74058835 19 21 C19.66 21 20.32 21 21 21 C21.226875 20.31164063 21.45375 19.62328125 21.6875 18.9140625 C23.30533166 15.32209102 25.55855274 12.43029686 28 9.375 C31.62493987 4.78052804 31.62493987 4.78052804 35 0 C37.3828125 -0.29296875 37.3828125 -0.29296875 40.125 -0.1875 C41.03507812 -0.16042969 41.94515625 -0.13335938 42.8828125 -0.10546875 C43.58148437 -0.07066406 44.28015625 -0.03585938 45 0 C46.35280104 2.70560207 45.86200733 4.35359722 45.48681641 7.35180664 C45.3498233 8.46959 45.2128302 9.58737335 45.07168579 10.73902893 C44.9165451 11.95050095 44.76140442 13.16197296 44.6015625 14.41015625 C44.44714691 15.6479332 44.29273132 16.88571014 44.13363647 18.16099548 C43.8052592 20.78166256 43.47449207 23.40189319 43.13964844 26.02172852 C42.70989432 29.38594677 42.28944607 32.75124745 41.87200356 36.11701298 C41.47380881 39.31945638 41.06873553 42.521026 40.6640625 45.72265625 C40.51297028 46.9361525 40.36187805 48.14964874 40.20620728 49.3999176 C40.06290985 50.5145488 39.91961243 51.62917999 39.77197266 52.77758789 C39.64682281 53.76416885 39.52167297 54.75074982 39.39273071 55.76722717 C39 58 39 58 38 59 C36.48071962 59.07179964 34.95832518 59.08392007 33.4375 59.0625 C32.61121094 59.05347656 31.78492187 59.04445313 30.93359375 59.03515625 C30.29550781 59.02355469 29.65742188 59.01195313 29 59 C27.56141355 55.03828528 28.25530157 51.24573886 28.77734375 47.171875 C28.86754288 46.42286926 28.957742 45.67386353 29.05067444 44.90216064 C29.33946763 42.51721756 29.63834071 40.13366274 29.9375 37.75 C30.13543223 36.13028965 30.3327055 34.51049864 30.52929688 32.890625 C31.0118984 28.92610773 31.50354192 24.96280494 32 21 C31.29053223 22.06420166 30.58106445 23.12840332 29.85009766 24.22485352 C29.4265802 24.85884064 29.00306274 25.49282776 28.56671143 26.14602661 C27.68839281 27.46638352 26.8205117 28.79369799 25.95849609 30.12475586 C23.71680347 33.3690679 22.66440807 34.79227144 18.7890625 36.00390625 C16 36 16 36 14 35 C12.89475979 32.8439226 11.86299861 30.64975777 10.875 28.4375 C10.33617188 27.23996094 9.79734375 26.04242187 9.2421875 24.80859375 C8.83226563 23.88175781 8.42234375 22.95492187 8 22 C7.53899411 24.99961165 7.08051004 27.99955157 6.625 31 C6.48852051 31.89887939 6.35204102 32.79775879 6.21142578 33.72387695 C5.14469606 40.8372931 4.24195804 47.95891303 3.4296875 55.10546875 C3 58 3 58 2 59 C0.48071962 59.07179964 -1.04167482 59.08392007 -2.5625 59.0625 C-3.38878906 59.05347656 -4.21507813 59.04445313 -5.06640625 59.03515625 C-5.70449219 59.02355469 -6.34257812 59.01195313 -7 59 C-7.84710727 55.47132545 -8.03228487 52.61012534 -7.59448242 49.01367188 C-7.48073776 48.04917114 -7.3669931 47.08467041 -7.24980164 46.09094238 C-7.05460686 44.54545715 -7.05460686 44.54545715 -6.85546875 42.96875 C-6.66069695 41.36574036 -6.66069695 41.36574036 -6.46199036 39.73034668 C-6.18580263 37.47388855 -5.90565441 35.21791215 -5.62182617 32.96240234 C-5.18925135 29.51396158 -4.77244743 26.06387306 -4.35742188 22.61328125 C-4.08688084 20.41915431 -3.81542696 18.2251397 -3.54296875 16.03125 C-3.41891159 15.00092651 -3.29485443 13.97060303 -3.16703796 12.90905762 C-3.04383682 11.94455688 -2.92063568 10.98005615 -2.79370117 9.98632812 C-2.68853683 9.14203247 -2.5833725 8.29773682 -2.47502136 7.42785645 C-1.95633618 4.77683216 -1.0740565 2.47309765 0 0 Z " fill="#6DBE44" transform="translate(2488,2804)"/>
<path d="M0 0 C13.53 0 27.06 0 41 0 C41 2.64 41 5.28 41 8 C39.00383446 9.99616554 35.18298037 9.40983427 32.4375 9.5625 C31.72658203 9.60568359 31.01566406 9.64886719 30.28320312 9.69335938 C28.52238088 9.79971777 26.7612168 9.90038846 25 10 C24.85900879 11.05799805 24.71801758 12.11599609 24.57275391 13.20605469 C24.04167694 17.1872758 23.50801602 21.16814722 22.97363281 25.14892578 C22.74410293 26.86139871 22.51524417 28.57396175 22.28710938 30.28662109 C21.00775803 39.88736739 19.66315169 49.45630713 18 59 C14.7 59 11.4 59 8 59 C8.60913942 47.95922082 9.72389362 37.03578161 11.0625 26.0625 C11.25101008 24.49288162 11.43916287 22.92322029 11.62695312 21.35351562 C12.07988885 17.56840957 12.54006677 13.78428781 13 10 C6.07 9.505 6.07 9.505 -1 9 C-2 5 -2 5 0 0 Z " fill="#6DBE45" transform="translate(2438,2804)"/>
</svg>
