<?xml version="1.0" encoding="UTF-8"?>
<svg version="1.1" xmlns="http://www.w3.org/2000/svg" width="5101" height="5101">
<path d="M0 0 C1.08796875 0.46277344 2.1759375 0.92554687 3.296875 1.40234375 C12.60458134 5.70873729 20.63471624 11.48813011 28.90380859 17.48779297 C42.38711418 27.21474321 56.27933017 36.84501726 73.4609375 37.4921875 C74.90302446 37.55465735 76.34508082 37.61783687 77.78710938 37.68164062 C78.53500732 37.71233643 79.28290527 37.74303223 80.0534668 37.7746582 C107.56625169 38.96382158 132.60364263 44.44105589 158.87304688 52.36029053 C163.5172842 53.75710674 168.16869743 55.12986438 172.81884766 56.50683594 C175.12707731 57.19204705 177.43412229 57.88126645 179.73974609 58.57519531 C180.76148926 58.88166992 181.78323242 59.18814453 182.8359375 59.50390625 C183.71813965 59.77017822 184.6003418 60.0364502 185.50927734 60.31079102 C207.62840004 66.43138339 234.89395825 61.31734356 257.49829102 59.2769165 C335.88525658 52.20518024 335.88525658 52.20518024 365.4375 64.0625 C367.27278064 64.78214969 369.10865112 65.5002967 370.94506836 66.21704102 C375.70317948 68.08140689 380.45015172 69.97240277 385.1932373 71.87463379 C387.91946004 72.96770766 390.6474413 74.0562681 393.37597656 75.14355469 C404.75379782 79.6823901 416.10081723 84.29439686 427.43273926 88.9465332 C429.95677364 89.98226221 432.48169543 91.01579922 435.00683594 92.04882812 C464.16672984 103.98643397 493.13206654 116.37362508 522 129 C522.88689514 129.38750427 523.77379028 129.77500854 524.68756104 130.17425537 C529.38616588 132.22944007 534.07788015 134.2989719 538.75854492 136.39471436 C540.09089533 136.99005945 541.42479749 137.5819485 542.76049805 138.16973877 C555.28073881 143.69157188 572.33514506 151.23377354 579.04296875 163.8828125 C580.62536708 169.03690992 580.54807719 174.25765592 580.7019043 179.61669922 C581.0396462 190.75906446 583.49978912 197.63316811 591 206 C591.48984375 206.57105469 591.9796875 207.14210938 592.484375 207.73046875 C596.33055065 211.90376759 600.78448172 215.08446148 605.375 218.375 C618.90975893 228.11465694 629.65206005 240.10385447 633 257 C634.1276667 269.46877177 634.1276667 269.46877177 631 273.625 C626.39471723 277.27084886 621.94930596 278.50430739 616.359375 279.92578125 C615.70501465 280.09319824 615.0506543 280.26061523 614.37646484 280.43310547 C612.45036929 280.91850598 610.51821826 281.37968204 608.5859375 281.83984375 C603.59442576 283.45474461 599.09831577 285.68020517 596.625 290.5 C594.04445217 296.30081131 593.76661089 303.0516952 595.66015625 309.11328125 C599.97243625 317.53249458 607.34405413 320.87672596 615.81640625 324.01953125 C633.60580276 329.49822882 650.8378674 324.26313639 668.22802734 319.91943359 C673.91877539 318.53229074 679.63955473 317.31153516 685.375 316.125 C686.33607666 315.92237549 687.29715332 315.71975098 688.28735352 315.51098633 C730.68081717 306.74631645 770.22403806 317.50626142 805.98291016 340.65820312 C810.82903049 343.88191135 815.44160157 347.38147753 820 351 C821.23556641 351.96486328 821.23556641 351.96486328 822.49609375 352.94921875 C827.80242815 357.13485532 832.96657808 361.48108883 838.11083984 365.86279297 C841.55518193 368.79326552 845.04029666 371.66295149 848.5625 374.5 C853.63607493 378.62690206 858.43741142 383.00102558 863.23046875 387.4453125 C865.45918393 389.50113722 867.70767919 391.51616957 870 393.5 C874.85838114 397.71990805 879.58914203 402.07829875 884.31542969 406.44482422 C885.45275378 407.49478863 886.59146088 408.54325665 887.73144531 409.59033203 C895.29753475 416.54289855 902.72074439 423.62200605 910 430.875 C910.69375732 431.56416504 911.38751465 432.25333008 912.10229492 432.96337891 C916.03791504 436.91087476 919.78717939 440.9661531 923.42773438 445.18701172 C925.4791951 447.55256255 927.61473062 449.83510767 929.75 452.125 C935.53069975 458.47501109 940.8239941 465.1516023 946 472 C946.43344727 472.57121582 946.86689453 473.14243164 947.31347656 473.73095703 C956.39804602 485.79435612 964.4765894 498.89905764 970 513 C970.31839844 513.80824219 970.63679688 514.61648438 970.96484375 515.44921875 C974.41203189 525.8225545 975.43308331 540.79426636 970.4453125 550.8046875 C958.70163376 568.64238332 939.081456 575.13713972 919.5 580.6875 C917.5146704 581.25414818 915.53027749 581.82354776 913.54772949 582.39985657 C911.77129921 582.9158038 909.99217788 583.42245991 908.21289062 583.9284668 C904.95379013 585.01541148 902.03096694 586.39087271 899 588 C899.31609916 591.03662476 899.58817433 592.59266045 901.79296875 594.7734375 C926.37346995 611.21390323 949.70647297 615.17032227 978.5625 611 C987.95658223 609.65581658 997.18963961 608.59422033 1006.6875 608.5625 C1007.57574463 608.55283203 1008.46398926 608.54316406 1009.37915039 608.53320312 C1018.78394097 608.65470512 1027.51717086 611.26842144 1035.875 615.5 C1036.54990479 615.84039307 1037.22480957 616.18078613 1037.92016602 616.53149414 C1045.1691415 620.36357044 1051.05095591 625.41321164 1057 631 C1057.79792969 631.72960938 1058.59585938 632.45921875 1059.41796875 633.2109375 C1079.03201518 651.88767552 1093.22356648 676.83008497 1106.1875 700.3125 C1107.39944351 702.50067132 1108.61176819 704.68862759 1109.82519531 706.87597656 C1110.60718145 708.2897919 1111.38519488 709.70581201 1112.15917969 711.12402344 C1118.92956121 723.45846957 1125.8572226 729.48750943 1138.34350586 735.95751953 C1166.14461096 750.48999451 1185.2758961 777.91344209 1202.66162109 803.08544922 C1203.90178106 804.85949782 1205.17196482 806.60600461 1206.45703125 808.34765625 C1215.66431365 821.20467222 1215.56864433 836.88525181 1213.22875977 852.15136719 C1207.54098306 883.88358727 1187.140234 909.51989261 1166.0390625 932.74609375 C1164.20913753 934.7688269 1162.41118272 936.81369435 1160.625 938.875 C1158.17574812 941.69757896 1155.65756126 944.44321697 1153.1015625 947.16943359 C1134.57520309 967.05840162 1123.67133558 990.56134613 1111.69104004 1014.69985962 C1104.88730564 1028.39574446 1097.85953103 1041.87193076 1090 1055 C1089.56574707 1055.72928711 1089.13149414 1056.45857422 1088.68408203 1057.20996094 C1069.30775239 1089.54592846 1044.16308676 1121.12859037 1014 1144 C1012.94390714 1144.83285645 1011.88929958 1145.66759869 1010.8359375 1146.50390625 C987.85906867 1164.6380257 987.85906867 1164.6380257 973.25 1164.4375 C972.42056885 1164.42702637 971.5911377 1164.41655273 970.73657227 1164.40576172 C909.73403125 1162.67054769 836.57434707 1126.09484186 784.6875 1096.8125 C759.36363341 1082.59380547 731.76284808 1073.03119926 704.5625 1063.0625 C703.7156665 1062.75166473 702.86883301 1062.44082947 701.99633789 1062.12057495 C693.09432277 1058.85894882 684.17085512 1055.6761086 675.1796875 1052.66796875 C674.45048599 1052.42361588 673.72128448 1052.179263 672.96998596 1051.92750549 C668.86406527 1050.5682709 664.7455759 1049.35595965 660.5625 1048.25 C647.75833397 1044.36359696 636.09539633 1036.64719509 624.52539062 1030.06396484 C615.26470824 1024.36027728 615.26470824 1024.36027728 605 1022 C605.16054937 1028.42197469 608.6219321 1031.74678194 613 1036 C637.96848653 1058.93130876 676.28248853 1071.65727333 707 1085 C708.82226837 1085.79214864 710.64453391 1086.58430378 712.46679688 1087.37646484 C719.25069319 1090.32458107 726.03506273 1093.27160976 732.82080078 1096.21548462 C751.60238924 1104.36421651 770.32497454 1112.63714969 788.97485352 1121.08312988 C790.88303134 1121.9470433 792.79203986 1122.8090963 794.70117188 1123.67089844 C824.36813763 1137.10200364 854.04107624 1151.25806493 882 1168 C882.89122559 1168.53141602 883.78245117 1169.06283203 884.70068359 1169.61035156 C920.55157919 1191.09923445 962.84460789 1218.65039909 974.3125 1261.4375 C977.70225591 1279.26631234 971.77413424 1294.49438293 964.3125 1310.3125 C963.62196744 1311.80353702 962.93250968 1313.29507229 962.24414062 1314.78710938 C956.27285551 1327.67590353 950.14408607 1340.44966081 942.97851562 1352.72167969 C936.07206274 1364.68809776 932.4884298 1376.08181347 929.58105469 1389.51123047 C925.43300307 1407.27813729 911.9785414 1420.76521861 898.32421875 1432.0703125 C895.31628585 1434.6220541 893.08680494 1437.27165662 890.875 1440.5625 C890.50866455 1441.10350342 890.1423291 1441.64450684 889.76489258 1442.2019043 C886.8323624 1446.59198074 884.09006255 1451.0955563 881.34130859 1455.60205078 C872.75283716 1469.67781249 863.58415638 1483.18160516 852 1495 C851.319375 1495.70511719 850.63875 1496.41023438 849.9375 1497.13671875 C837.09709442 1509.52865429 820.61152465 1513.55503223 803.20043945 1513.35180664 C777.30495112 1512.44763893 751.95693508 1503.53857519 728.98046875 1492.0234375 C722.21898183 1488.63868367 716.63158773 1486.6749831 709 1488 C705.81907717 1489.24271978 705.81907717 1489.24271978 704 1492 C703.39642424 1498.65735056 705.29198661 1504.47449973 707.1875 1510.8125 C707.62545898 1512.35647461 707.62545898 1512.35647461 708.07226562 1513.93164062 C711.09514994 1524.20944729 714.52689901 1534.07734813 724 1540 C729.41090357 1542.58897072 734.34208193 1543.55160779 740.3125 1543.5 C741.08303711 1543.49572998 741.85357422 1543.49145996 742.64746094 1543.48706055 C755.62343268 1543.11643075 768.09237417 1538.5937467 780.1171875 1534.015625 C788.56583888 1531.03913535 799.91386627 1530.05384283 808.25390625 1533.8203125 C813.37122233 1537.27764909 817.1441366 1542.12456516 819 1548 C819.72530309 1554.91392812 819.5721776 1560.96425164 816 1567 C811.94083185 1571.86945837 807.84624436 1573.54503968 802.0625 1575.625 C772.96854986 1586.29436186 772.96854986 1586.29436186 750.43359375 1606.22265625 C742.91346712 1615.54597401 724.02119317 1617.14932304 713.046875 1619.5078125 C711.8498999 1619.7663501 710.6529248 1620.0248877 709.41967773 1620.29125977 C707.06221602 1620.79530183 704.70239286 1621.28845516 702.34008789 1621.76928711 C693.34442675 1623.67477198 686.28129637 1625.93354159 680 1633 C679.39414063 1633.60328125 678.78828125 1634.2065625 678.1640625 1634.828125 C670.14278428 1643.12599902 666.09850513 1653.3315151 661.71264648 1663.81762695 C652.4075652 1686.02459552 638.24728337 1705.3590245 620.92016602 1722.08056641 C619.10735891 1723.89268205 617.42971483 1725.75800734 615.76171875 1727.703125 C611.99679591 1732.0385512 608.07858666 1736.21200222 604.125 1740.375 C599.06415029 1745.72745463 594.04513571 1751.10517273 589.14453125 1756.60546875 C586.58000535 1759.46895577 583.97837931 1762.29688115 581.375 1765.125 C577.77576383 1769.03962363 574.22626917 1772.99028292 570.7421875 1777.0078125 C568.68499601 1779.36020635 566.59403085 1781.68034966 564.5 1784 C561.82951656 1786.95869751 559.17701942 1789.92926472 556.5625 1792.9375 C542.57699771 1808.93018085 542.57699771 1808.93018085 535 1815 C534.15308594 1815.68449219 533.30617188 1816.36898437 532.43359375 1817.07421875 C512.81270042 1832.37050702 489.3002573 1843.44844334 466.75 1853.75 C447.22185084 1862.76347644 430.12343161 1876.59402847 413.03442383 1889.48242188 C405.86175875 1894.88160151 398.57342 1900.11715605 391.28222656 1905.35449219 C389.01260923 1906.99090862 386.75127789 1908.63815103 384.4921875 1910.2890625 C305.52439543 1967.91606415 305.52439543 1967.91606415 273 1963 C268.30475906 1961.21296284 265.68510747 1959.24808048 263 1955 C261.69635122 1951.93444106 260.68507375 1948.80153126 259.6875 1945.625 C259.38972656 1944.71032959 259.09195313 1943.79565918 258.78515625 1942.85327148 C257.19371497 1937.92222747 255.68705091 1932.97082377 254.23828125 1927.99609375 C249.02476393 1907.61648467 249.02476393 1907.61648467 236 1892 C232.68826033 1890.98284661 232.68826033 1890.98284661 229.0625 1890.4375 C218.30169824 1888.22204081 209.0813635 1882.63016953 199.54150391 1877.38867188 C196.36869463 1875.6550562 193.16728312 1873.99994693 189.9375 1872.375 C189.10089844 1871.94960938 188.26429687 1871.52421875 187.40234375 1871.0859375 C182.17262076 1868.72193263 177.7720886 1867.47526467 172 1868 C167.8759538 1869.78083813 165.67518859 1871.81202852 164 1876 C164 1880.63482936 164.14852785 1882.87385942 166.9375 1886.5625 C173.7702771 1892.00083279 180.85344433 1896.54833031 188.47436523 1900.81225586 C194.92149277 1904.45515555 201.04887093 1908.53159699 207.14746094 1912.7265625 C208.3663588 1913.56443431 209.58829831 1914.39790128 210.81347656 1915.2265625 C240.99313728 1935.66500012 240.99313728 1935.66500012 244 1951 C244.85867504 1962.00665283 243.09688606 1969.28903267 236.07421875 1977.828125 C229.6155376 1984.59088718 221.92710792 1988.49185117 213 1991 C212.38261963 1991.17732666 211.76523926 1991.35465332 211.12915039 1991.53735352 C204.3008753 1993.29668549 197.5832604 1993.34577825 190.5625 1993.3125 C189.31984375 1993.30686035 188.0771875 1993.3012207 186.796875 1993.29541016 C163.5768844 1992.99099439 138.78056034 1987.7021897 119.625 1973.9375 C81.82781774 1948.07627003 13.03472403 1950.83770479 -30.79174805 1948.96337891 C-54.77657093 1947.93592012 -78.08572377 1946.53658563 -101.58209229 1941.51367188 C-104.20660728 1940.95610736 -106.8341438 1940.41463418 -109.46240234 1939.875 C-154.77667095 1930.53307901 -199.9177265 1919.52958195 -244.05700684 1905.61206055 C-245.96685043 1905.01044242 -247.87843223 1904.4143512 -249.79003906 1903.81835938 C-261.97502675 1899.99651178 -273.9378825 1895.82711954 -285.6875 1890.8125 C-287.07751221 1890.22456665 -287.07751221 1890.22456665 -288.49560547 1889.62475586 C-301.0554935 1884.07160884 -309.86037412 1876.21083818 -314.88671875 1863.29296875 C-316.07175709 1859.78775007 -317.04648457 1856.26223316 -318 1852.6875 C-320.2362387 1844.68458277 -322.43310156 1840.35260398 -329.625 1836.0625 C-330.49125 1835.57652344 -331.3575 1835.09054687 -332.25 1834.58984375 C-343.00067756 1828.37460828 -351.23653091 1820.2323112 -359.296875 1810.9375 C-364.89327025 1804.57095861 -370.84021017 1799.56648013 -378 1795 C-378.70511719 1794.55011719 -379.41023438 1794.10023437 -380.13671875 1793.63671875 C-384.95161387 1790.88399875 -388.60779191 1790.64841596 -394 1792 C-394.86689453 1792.24169922 -395.73378906 1792.48339844 -396.62695312 1792.73242188 C-403.78037237 1794.69997296 -410.34400585 1795.50924869 -417.75 1795.4375 C-418.84256104 1795.43282715 -419.93512207 1795.4281543 -421.06079102 1795.42333984 C-437.3901079 1795.14233166 -453.93035054 1792.95078894 -469.95703125 1789.890625 C-474.27482085 1789.07712262 -478.35935711 1788.74541848 -482.75 1788.625 C-511.96942818 1787.26563092 -539.04505705 1770.28536165 -558.97265625 1750.0390625 C-562.48543679 1746.486278 -566.16881145 1743.20465959 -570 1740 C-570.91265625 1739.20980469 -571.8253125 1738.41960937 -572.765625 1737.60546875 C-579.12317557 1732.13946289 -585.62451501 1727.04494538 -593 1723 C-593.90431763 1722.46391113 -593.90431763 1722.46391113 -594.8269043 1721.91699219 C-601.89911896 1718.17601808 -608.6119158 1718.70511154 -616.4375 1719 C-628.16741319 1719.24882441 -638.80138825 1718.65177749 -650 1715 C-650.76812012 1714.75330566 -651.53624023 1714.50661133 -652.32763672 1714.25244141 C-674.04025076 1707.11134545 -694.09044726 1696.17839592 -712 1682 C-712.86625 1681.32710937 -713.7325 1680.65421875 -714.625 1679.9609375 C-720.40354131 1675.36906092 -725.84907888 1670.46435824 -731.25 1665.4375 C-731.91161133 1664.82438965 -732.57322266 1664.2112793 -733.25488281 1663.57958984 C-737.8095465 1659.29318329 -741.96025415 1654.77160107 -746 1650 C-746.50837402 1649.40840088 -747.01674805 1648.81680176 -747.54052734 1648.20727539 C-760.93437792 1632.52277445 -772.5226111 1615.32324025 -782 1597 C-782.3697998 1596.29166016 -782.73959961 1595.58332031 -783.12060547 1594.85351562 C-788.60988909 1584.203981 -793.17089869 1573.22739849 -797.45584679 1562.05015564 C-798.98557289 1558.06283473 -800.52873982 1554.08072288 -802.07202148 1550.09863281 C-802.39430757 1549.26681488 -802.71659365 1548.43499695 -803.04864597 1547.57797241 C-806.54914555 1538.55918795 -810.13262966 1529.57406192 -813.73046875 1520.59375 C-814.23027252 1519.34578612 -814.23027252 1519.34578612 -814.74017334 1518.07261086 C-816.48794593 1513.70944273 -818.23716632 1509.34685709 -819.98733521 1504.98464966 C-823.8842695 1495.27159436 -827.77414424 1485.55571048 -831.6640625 1475.83984375 C-832.07339838 1474.81758635 -832.48273426 1473.79532894 -832.90447426 1472.74209404 C-839.79791814 1455.52499708 -846.6663468 1438.29801121 -853.5234375 1421.06640625 C-854.24617953 1419.25029154 -854.24617953 1419.25029154 -854.98352242 1417.39748764 C-859.27307809 1406.61818431 -863.56162662 1395.8384808 -867.84725952 1385.05761719 C-884.19021591 1342.6220448 -884.19021591 1342.6220448 -902.4375 1301 C-906.72910303 1291.90538591 -910.89916646 1282.77232145 -914.9375 1273.5625 C-918.82893435 1264.69432688 -922.93945398 1255.96071696 -927.22085571 1247.27651978 C-945.23675008 1210.632384 -954.59520696 1172.15119252 -963.9180603 1132.6423645 C-977.76446765 1064.42255722 -977.76446765 1064.42255722 -1010.29541016 1004.42333984 C-1020.81271603 991.60699481 -1027.63336511 978.36332539 -1031 962 C-1031.25475098 960.78981201 -1031.25475098 960.78981201 -1031.51464844 959.55517578 C-1039.78876265 919.50876226 -1040.3193734 878.41958948 -1022.125 841 C-1019.41213902 835.19169508 -1019.51205273 831.11681047 -1020.50390625 824.78125 C-1022.0753088 812.80394555 -1022.40046372 800.68482473 -1015.19921875 790.4375 C-1010.13311251 784.29914991 -1006.15961739 781.54552359 -998.1875 780.5 C-989.72269119 780.89295051 -983.30728243 786.13938527 -977.75 792.06640625 C-976.88375 793.02353516 -976.88375 793.02353516 -976 794 C-972.64577086 797.55513349 -970.47052919 799.77739693 -965.35546875 800.23828125 C-954.65251091 800.48902872 -945.65107626 797.83612921 -935.796875 793.98828125 C-934.88099609 793.63121094 -933.96511719 793.27414062 -933.02148438 792.90625 C-931.22016914 792.19537154 -929.42416931 791.47081949 -927.63476562 790.73046875 C-921.95795162 788.45800845 -916.19993027 786.386523 -910 787 C-905.62610178 790.02626472 -903.49812288 794.28196633 -901.25 799 C-900.94707031 799.60328125 -900.64414063 800.2065625 -900.33203125 800.828125 C-896.46754993 808.72884236 -895.61061712 817.44246848 -897.75390625 826.015625 C-899.86771492 832.08349929 -901.99692139 838.1516139 -907.671875 841.64453125 C-911.49799835 843.20282327 -914.26255919 843.30388983 -918.375 843.1875 C-919.62023438 843.16042969 -920.86546875 843.13335938 -922.1484375 843.10546875 C-923.55996094 843.05326172 -923.55996094 843.05326172 -925 843 C-926.37660016 847.52918449 -925.53820995 850.32032895 -923.875 854.6875 C-923.45992187 855.82574219 -923.04484375 856.96398438 -922.6171875 858.13671875 C-921.2380967 861.13715892 -921.2380967 861.13715892 -918.53515625 862.44921875 C-912.82198407 863.69044722 -907.77489601 859.90208516 -903.04931641 857.07348633 C-894.73862609 852.11526308 -885.56773976 847.46509781 -875.57421875 849.1875 C-857.96934085 854.74412307 -834.59220327 868.7737078 -824 884 C-814.65552734 906.89727166 -829.30539282 936.75378295 -836.73486328 958.31567383 C-837.1523584 959.53150146 -837.56985352 960.7473291 -838 962 C-838.37753418 963.08885498 -838.75506836 964.17770996 -839.14404297 965.29956055 C-840.59778401 969.88593524 -840.59634472 972.75761517 -838.5 977.125 C-834.30632708 981.94772386 -828.37875936 984.69244063 -821.99609375 985.2734375 C-813.87195949 985.50530083 -807.65316381 984.94421389 -801 980 C-795.90982143 974.27354911 -794.71227275 967.92909051 -795.125 960.5 C-795.59229188 955.8213122 -796.68491655 951.67322547 -798.0625 947.1875 C-803.08480835 929.53021512 -801.50202606 906.66413901 -797 889 C-796.82307617 888.29858887 -796.64615234 887.59717773 -796.46386719 886.87451172 C-793.50370473 875.56812264 -789.54775991 863.39782158 -779 857 C-770.16389836 853.36821246 -759.25029776 853.78344532 -750.30078125 856.9765625 C-743.74585063 859.89233809 -737.9998652 863.98781253 -732.15478516 868.09765625 C-716.96018674 878.73564814 -702.54352903 883.04384928 -684 884 C-683.195625 884.05285156 -682.39125 884.10570313 -681.5625 884.16015625 C-670.82789404 884.55582282 -660.13120876 882.32139325 -652 875 C-649.19454387 871.83402964 -646.87133914 868.41182196 -644.65234375 864.81640625 C-641.13957822 859.48365635 -638.48222827 858.27563605 -632.34375 856.82421875 C-628.98744227 855.6439172 -627.60100382 853.89800481 -625.8515625 850.87109375 C-624.34132757 847.55273351 -623.81694343 845.72215023 -624 842 C-625.99697608 837.0822766 -628.52646637 832.45283859 -631.2578125 827.90625 C-636.75630634 818.29406818 -635.21075933 805.23925967 -635.24023438 794.41455078 C-635.25005308 792.23823375 -635.28126642 790.0628206 -635.3125 787.88671875 C-635.38857259 777.80236363 -634.62205447 769.09362213 -628 761 C-623.52378247 757.2203106 -619.67507845 754.87409489 -613.6875 754.75 C-612.94886719 754.72421875 -612.21023438 754.6984375 -611.44921875 754.671875 C-605.82537276 755.42530891 -602.30459368 758.40861064 -598.625 762.5 C-568.72962295 793.19733947 -497.31320605 829.51743604 -453.3125 830.4375 C-449.36270381 830.36341238 -446.39756015 830.25651698 -443.125 827.9375 C-440.66282309 825.14582275 -440.66282309 825.14582275 -441.03125 821.60546875 C-442.22590456 817.15923422 -443.68777043 816.03638617 -447.375 813.375 C-451.83120673 810.11808902 -455.2632087 807.41993964 -456.46875 801.82421875 C-456.58111806 794.14105271 -453.14598638 789.13546498 -448.00509644 783.63087463 C-446.89104831 782.50229903 -445.76898216 781.38159697 -444.64013672 780.26782227 C-444.02309372 779.6471286 -443.40605072 779.02643494 -442.77030945 778.38693237 C-440.74740108 776.35598095 -438.71392424 774.33600583 -436.6796875 772.31640625 C-435.25535799 770.89259632 -433.83154883 769.46826567 -432.40823364 768.04344177 C-429.42887025 765.06416785 -426.4444336 762.09010319 -423.45605469 759.11987305 C-419.65185675 755.33828836 -415.85875125 751.54581091 -412.06922722 747.74952793 C-409.13027612 744.80721137 -406.18631198 741.86995218 -403.24078751 738.93421745 C-401.84183492 737.53907832 -400.44418507 736.14263149 -399.0479393 734.7447834 C-365.33767468 701.0280561 -365.33767468 701.0280561 -347.125 700.75 C-340.56279243 700.82973521 -337.13834393 702.05605097 -332.25 706.5 C-326.04906668 714.65762272 -328.09860926 726.46810264 -329 735.9375 C-329.23960567 738.50816296 -329.46923805 741.0797807 -329.6875 743.65234375 C-329.79449219 744.77632568 -329.90148438 745.90030762 -330.01171875 747.05834961 C-329.99981066 750.04752742 -329.5836076 751.50968604 -328 754 C-320.63163682 751.08199777 -313.30085897 748.08296133 -306 745 C-305.33000977 744.72220703 -304.66001953 744.44441406 -303.96972656 744.15820312 C-301.80898062 743.26091926 -299.65423193 742.35029771 -297.5 741.4375 C-296.81728027 741.15672607 -296.13456055 740.87595215 -295.43115234 740.58666992 C-290.84185912 738.62089031 -287.13478793 736.74682311 -285.1640625 731.9765625 C-284.76958854 727.2240905 -288.12254917 723.06842542 -290.9921875 719.57421875 C-293.29318971 717.01445332 -295.6348882 714.50059284 -298 712 C-299.48748871 710.40354704 -300.96717223 708.79977199 -302.4375 707.1875 C-303.07558594 706.50042969 -303.71367187 705.81335937 -304.37109375 705.10546875 C-307.14848626 701.51550577 -307.97659601 698.71382159 -308.125 694.1875 C-306.89551533 685.49328698 -301.75052822 674.99994424 -295.375 668.9375 C-292 667 -292 667 -289.125 667 C-288.09375 667.33 -287.0625 667.66 -286 668 C-280.08114389 670.03078135 -280.08114389 670.03078135 -274.3125 668.625 C-271.82593088 665.80240802 -269.58233682 662.8882122 -267.4296875 659.8046875 C-265.34037009 657.16735241 -263.61774164 656.08443951 -260.28515625 655.62890625 C-250.32402276 655.42364653 -243.20906899 658.15868964 -234.5625 662.875 C-232.06583518 664.17587065 -232.06583518 664.17587065 -229.375 664 C-224.96728809 662.1441213 -223.34866231 658.66125611 -221.1875 654.5625 C-219.90528307 650.71584921 -219.58721996 648.79684635 -221 645 C-226.25751599 642.08033317 -232.73799042 641.9580502 -238.60742188 641.23242188 C-245.67822411 640.2737588 -251.23179685 638.65120373 -256 633 C-259.07823122 623.76530635 -254.62789231 616.38681525 -250.58984375 608.109375 C-249.74279153 606.42020965 -248.88594564 604.7358889 -248.015625 603.05859375 C-245.89035799 598.750841 -245.29595731 594.72951028 -246 590 C-249.61138123 580.36377788 -257.59765211 572.49597852 -264.55883789 565.15771484 C-275.67764539 553.38893808 -281.58619475 540.59826004 -287.82177734 525.77197266 C-289.15198676 522.64242484 -290.54027273 519.5424476 -291.93896484 516.44311523 C-303.50794634 490.70875981 -303.50794634 490.70875981 -302 479 C-300.5625 476.9375 -300.5625 476.9375 -298 476 C-294.97810669 475.78154988 -292.02274719 475.85390118 -289 476 C-291.75267083 467.84723669 -295.18120396 460.20375934 -299 452.5 C-312.00585502 426.26294098 -312.00585502 426.26294098 -308.234375 414.640625 C-307.28460794 412.6355612 -306.23959553 410.83787253 -305 409 C-304.13375 407.700625 -304.13375 407.700625 -303.25 406.375 C-295.54431236 398.2412186 -283.15324073 390.40216348 -271.77734375 389.90234375 C-262.40064529 390.27384527 -254.14737136 394.67805017 -247.25 400.875 C-238.46848065 410.40017955 -234.15186973 423.52078345 -229.96459961 435.55371094 C-227.09036188 443.56486778 -223.32745303 450.96264346 -216.1875 455.9375 C-212.07392996 458.85214008 -212.07392996 458.85214008 -211 461 C-210.90388248 462.62268991 -210.87017648 464.24947306 -210.875 465.875 C-210.87113281 467.17050781 -210.87113281 467.17050781 -210.8671875 468.4921875 C-210.99067052 470.82383753 -211.41664971 472.75185773 -212 475 C-212.50601768 480.43969003 -212.58829955 484.62675993 -209 489 C-207.84086555 490.15345241 -206.67300032 491.29815133 -205.5 492.4375 C-201.8781863 495.95999522 -198.76774618 499.69870375 -195.6875 503.6875 C-175.5093604 530.93943712 -175.5093604 530.93943712 -146 545 C-142.53869764 545.27617264 -139.09234479 545.32361021 -135.62109375 545.34375 C-134.65075699 545.3583728 -133.68042023 545.37299561 -132.68067932 545.38806152 C-129.59966106 545.43417766 -126.51870054 545.46854683 -123.4375 545.5 C-94.16694158 545.80245391 -94.16694158 545.80245391 -80.79443359 548.69287109 C-77.6678534 549.03650537 -76.83200444 548.80060887 -74.37890625 546.9453125 C-73.75306641 546.49542969 -73.12722656 546.04554688 -72.48242188 545.58203125 C-71.53206055 544.86080078 -71.53206055 544.86080078 -70.5625 544.125 C-61.91617459 537.6291936 -55.0938429 537.83434697 -44.5625 538.9375 C-43.54478516 539.03740234 -42.52707031 539.13730469 -41.47851562 539.24023438 C-38.98483969 539.48608975 -36.49218424 539.73952737 -34 540 C-44.48286027 533.63992907 -55.12222247 527.73372132 -66.06665039 522.20019531 C-81.3542608 514.39138729 -81.3542608 514.39138729 -84.34765625 506.64453125 C-86.14966836 499.33936837 -85.28745294 492.03200038 -83.8125 484.75 C-82.498233 477.69397079 -84.04258029 472.96770085 -87.9375 467.0625 C-90.59867213 464.3931746 -90.59867213 464.3931746 -94 463 C-98.51405861 463.08359368 -100.49719732 463.58099777 -104 466.5 C-107.60269591 469.50224659 -109.33643778 470 -114 470 C-125.53255327 467.77813194 -133.29885219 460.11229424 -140.9519043 451.76245117 C-143.53535372 449.03272022 -145.43856646 447.22694671 -148.95703125 445.8046875 C-153.30756063 446.08392559 -155.96487592 448.0129048 -159.5 450.4375 C-163.03624017 452.84142892 -165.91085971 454.79376428 -170.15625 455.59765625 C-174.11095525 454.76651627 -175.4994303 453.12889621 -178 450 C-183.47041691 439.97324613 -186.05516581 428.28091245 -189.02075195 417.33959961 C-193.33191876 398.99259637 -193.33191876 398.99259637 -204.9375 385.3125 C-212.60431843 381.75819487 -221.27089804 381.28547629 -229.57128906 380.29101562 C-242.05215402 378.79551994 -252.24370395 376.62637198 -261 367 C-278.126421 344.53393272 -274.5386608 309.7065925 -271.10546875 283.4375 C-264.69521567 238.63320477 -254.3090084 195.08839478 -235 154 C-234.54431641 153.02385742 -234.08863281 152.04771484 -233.61914062 151.04199219 C-227.15233401 137.23732109 -220.31827305 123.61882514 -213.46331787 110.00445557 C-208.46074742 100.06084792 -203.63890332 90.05566261 -199 79.9375 C-187.20833769 54.29805485 -174.76498695 29.05560102 -147.01899719 18.04768372 C-141.33375686 16.07473265 -135.45412578 14.93888401 -129.5703125 13.72265625 C-128.17180636 13.42712889 -126.77344306 13.13092494 -125.37521362 12.83409119 C-122.44643269 12.21429696 -119.51648303 11.60050454 -116.58544922 10.99145508 C-112.91987793 10.22961283 -109.25683898 9.45637897 -105.59453392 8.67900562 C-87.12123863 4.76110105 -68.61821209 1.16969708 -50 -2 C-49.2096637 -2.13499405 -48.41932739 -2.2699881 -47.6050415 -2.40907288 C-32.0535958 -5.03776726 -14.73185761 -6.45964961 0 0 Z M-15 558 C-13.33101825 566.1137078 -11.04627535 574.02574745 -8.73046875 581.97265625 C-8.29780295 583.4649953 -7.8653752 584.95740338 -7.4331665 586.44987488 C-6.26543107 590.47943427 -5.09414443 594.50795338 -3.92213058 598.53627014 C-2.93204121 601.94096549 -1.94403492 605.34626381 -0.95604801 608.75156975 C2.35667692 620.16944754 5.67703489 631.58509876 9 643 C9.23429718 643.80489616 9.46859436 644.60979233 9.70999146 645.43907928 C15.14391951 664.10580136 20.58858407 682.76938249 26.03860474 701.43141174 C29.00296901 711.58244099 31.96421482 721.73437611 34.92350197 731.8868866 C35.63162747 734.31624702 36.33981328 736.74558984 37.04801941 739.17492676 C37.39614418 740.36909462 37.39614418 740.36909462 37.75130177 741.58738708 C38.21659221 743.18346667 38.68188291 744.77954618 39.14717388 746.37562561 C40.25609067 750.17960794 41.36489504 753.98362296 42.47341919 757.78771973 C45.09953286 766.79931683 47.72890809 775.80995383 50.36266327 784.81932068 C51.03575226 787.12232813 51.70834436 789.42548039 52.38092041 791.7286377 C53.54450693 795.71227893 54.71028505 799.69527344 55.87752724 803.677845 C56.32334251 805.20000951 56.76851019 806.72236385 57.21300316 808.24491501 C57.82681415 810.34691226 58.44300707 812.44819679 59.05981445 814.54931641 C59.41106888 815.74924225 59.7623233 816.94916809 60.1242218 818.18545532 C60.89102158 820.91643908 60.89102158 820.91643908 62 823 C61.34644531 823.20753906 60.69289063 823.41507813 60.01953125 823.62890625 C55.82846871 825.53196311 52.37185108 828.20038496 48.6875 830.9375 C47.06487834 832.12647019 45.44116042 833.31394559 43.81640625 834.5 C43.00445801 835.09296875 42.19250977 835.6859375 41.35595703 836.296875 C37.98417567 838.73434099 34.56240798 841.09387252 31.125 843.4375 C25.13965587 847.52457723 19.18484092 851.65237721 13.25 855.8125 C12.40969238 856.401521 11.56938477 856.99054199 10.70361328 857.59741211 C8.99043991 858.79865703 7.27738714 860.00007396 5.56445312 861.20166016 C1.37826875 864.13724984 -2.81099592 867.06843609 -7 870 C-8.66668197 871.16664481 -10.33334862 872.3333115 -12 873.5 C-48.66666667 899.16666667 -85.33333333 924.83333333 -122 950.5 C-122.82508057 951.07758057 -123.65016113 951.65516113 -124.50024414 952.25024414 C-126.16600525 953.41622811 -127.83185804 954.5820811 -129.49780273 955.74780273 C-133.67908827 958.67384453 -137.85872802 961.60218484 -142.03515625 964.53515625 C-143.71083414 965.7110848 -145.38661483 966.88686688 -147.0625 968.0625 C-147.87557617 968.63315186 -148.68865234 969.20380371 -149.52636719 969.79174805 C-153.8250213 972.80174375 -158.14004013 975.78488267 -162.48046875 978.734375 C-163.36404053 979.33499756 -164.2476123 979.93562012 -165.15795898 980.55444336 C-166.8571216 981.70690356 -168.55838755 982.85627007 -170.26196289 984.00219727 C-171.39299438 984.76874634 -171.39299438 984.76874634 -172.546875 985.55078125 C-173.21557617 986.00106689 -173.88427734 986.45135254 -174.57324219 986.9152832 C-175.2794873 987.45221802 -175.2794873 987.45221802 -176 988 C-176 988.33 -176 988.66 -176 989 C-80.3 989.33 15.4 989.66 114 990 C114.66 992.97 115.32 995.94 116 999 C116.47283699 1000.71558381 116.96819269 1002.42533585 117.49853516 1004.12402344 C117.78229004 1005.03921249 118.06604492 1005.95440155 118.35839844 1006.89732361 C118.81907715 1008.36353905 118.81907715 1008.36353905 119.2890625 1009.859375 C119.61986816 1010.9226149 119.95067383 1011.9858548 120.29150391 1013.08131409 C121.39922387 1016.63862682 122.51213649 1020.19429332 123.625 1023.75 C124.42530298 1026.31654651 125.22530398 1028.88318524 126.02490234 1031.44995117 C127.75920248 1037.01533379 129.49602708 1042.57992343 131.234375 1048.14404297 C134.05695864 1057.17914629 136.87262921 1066.21639757 139.6875 1075.25390625 C143.6998054 1088.13474404 147.71413057 1101.01495034 151.73046875 1113.89453125 C152.11302857 1115.12133417 152.11302857 1115.12133417 152.50331688 1116.37292099 C153.54253963 1119.70552616 154.58176416 1123.03813078 155.62099552 1126.37073326 C159.94527457 1140.23796699 164.26842941 1154.10555121 168.59120941 1167.9732523 C170.11738788 1172.86927816 171.64375706 1177.76524452 173.17028809 1182.66116047 C179.12807572 1201.7696062 185.0733318 1220.88187691 191 1240 C193.60293407 1237.39706593 193.94126014 1235.25637461 194.92578125 1231.70556641 C195.10922529 1231.0511985 195.29266933 1230.3968306 195.48167229 1229.72263336 C196.09823273 1227.51730911 196.70525035 1225.30946712 197.3125 1223.1015625 C197.75296964 1221.51951074 198.19407663 1219.93763631 198.63577271 1218.35592651 C199.59181501 1214.92784068 200.54380155 1211.4986634 201.49273682 1208.06860352 C203.0179983 1202.55616399 204.55264881 1197.04636784 206.08935547 1191.53710938 C206.62020905 1189.63372811 207.15106232 1187.73034677 207.68191528 1185.82696533 C207.94835972 1184.87170204 208.21480415 1183.91643875 208.48932266 1182.93222809 C209.31381521 1179.97507474 210.13745614 1177.01768528 210.96090698 1174.0602417 C216.69980557 1153.45444644 222.51318145 1132.86986344 228.33642578 1112.28777313 C229.33975051 1108.7408125 230.34223559 1105.19361488 231.34466934 1101.64640236 C241.8647114 1064.42194917 252.43611238 1027.2120279 263 990 C264.84088888 989.99365209 264.84088888 989.99365209 266.71896744 989.98717594 C296.06931777 989.88577738 325.4196488 989.77994246 354.76996399 989.66888306 C358.4084915 989.6551189 362.04701915 989.64139099 365.68554688 989.62768555 C366.40969645 989.62495724 367.13384602 989.62222894 367.87993953 989.61941796 C379.49642118 989.57573752 391.11291123 989.53497198 402.72940734 989.49534739 C414.71228383 989.45440575 426.69514523 989.41018427 438.67799926 989.36312145 C445.38188773 989.33688054 452.08577348 989.31209709 458.78968048 989.29092598 C490.20464451 989.19064265 521.59633003 988.87428643 553 988 C550.19214737 985.16415561 547.50325944 982.46679978 544.2421875 980.16015625 C543.54399902 979.66185303 542.84581055 979.1635498 542.12646484 978.65014648 C541.38348145 978.12622314 540.64049805 977.6022998 539.875 977.0625 C538.25982665 975.90968037 536.6452632 974.75600584 535.03125 973.6015625 C534.20109375 973.00891602 533.3709375 972.41626953 532.515625 971.80566406 C528.4440187 968.88314852 524.40780559 965.91323045 520.375 962.9375 C519.58077637 962.35170166 518.78655273 961.76590332 517.96826172 961.16235352 C512.30828209 956.9808826 506.6752824 952.7644055 501.05151367 948.53442383 C493.54819692 942.89693743 485.98478522 937.34135384 478.42333984 931.78222656 C474.44677482 928.85769254 470.47353729 925.92864567 466.5 923 C464.91668304 921.83331112 463.33334969 920.66664447 461.75 919.5 C376.25 856.5 376.25 856.5 373.87304688 854.74853516 C372.29625671 853.58670685 370.71943401 852.4249227 369.14257812 851.26318359 C365.08386073 848.27285893 361.02578257 845.2816727 356.96875 842.2890625 C348.66541503 836.16536308 340.35542929 830.05252312 332 824 C337.55193259 807.99229224 343.28729125 792.05333776 349.0625 776.125 C349.53035624 774.83376198 349.9981802 773.54251226 350.4659729 772.25125122 C357.36371927 753.21311949 364.3163312 734.1959795 371.33901978 715.20358276 C375.13589977 704.93256163 378.91147859 694.65370374 382.6875 684.375 C383.06317108 683.35255188 383.43884216 682.33010376 383.82589722 681.27667236 C390.61864853 662.78687622 397.38172301 644.28629481 404.1328125 625.78125 C407.83784733 615.62916414 411.55419881 605.48160447 415.30859375 595.34765625 C415.64253143 594.44543839 415.97646912 593.54322052 416.32052612 592.61366272 C417.87261373 588.42097389 419.42787974 584.22952114 420.98925781 580.0402832 C421.52811888 578.5867973 422.06686354 577.13326823 422.60546875 575.6796875 C422.8513121 575.0240834 423.09715546 574.36847931 423.35044861 573.69300842 C424.59812154 570.43351324 424.59812154 570.43351324 425 567 C421.34083616 568.65764531 418.1766984 570.90411687 414.9375 573.25 C414.33534668 573.68328613 413.73319336 574.11657227 413.11279297 574.56298828 C401.330222 583.06651757 389.66467849 591.73059159 378.05249023 600.46484375 C370.54884567 606.1025715 362.98511321 611.65840503 355.42333984 617.21777344 C351.44677482 620.14230746 347.47353729 623.07135433 343.5 626 C341.91668304 627.16668888 340.33334969 628.33335553 338.75 629.5 C337.96625 630.0775 337.1825 630.655 336.375 631.25 C310.25 650.5 310.25 650.5 307.87426758 652.25048828 C306.29331017 653.41543849 304.71241808 654.58047734 303.1315918 655.74560547 C299.13744172 658.6892698 295.1421157 661.63131346 291.14453125 664.5703125 C283.73980537 670.01636895 276.34575634 675.47457766 269 681 C260.8501105 687.13028521 252.6397739 693.17710259 244.42333984 699.21777344 C241.23609792 701.56180588 238.05103489 703.9087873 234.86621094 706.25610352 C233.29282293 707.41568983 231.71925612 708.57503357 230.14550781 709.73413086 C226.07211241 712.73440482 222.00107012 715.73779915 217.93359375 718.74609375 C201.88192197 730.61030528 201.88192197 730.61030528 194 736 C188.54687877 732.11579354 183.57552263 727.87073049 178.63671875 723.35546875 C175.9846117 720.98625312 173.26567362 718.73516359 170.5 716.5 C166.03579543 712.88850866 161.76997886 709.11339306 157.52734375 705.24609375 C154.93037607 702.93812402 152.26595987 700.74444137 149.5625 698.5625 C144.79003797 694.70291397 140.26890891 690.62800009 135.75390625 686.47265625 C132.16792716 683.25290481 128.43298508 680.24094824 124.68359375 677.21484375 C121.19449084 674.33519113 117.87003079 671.29306124 114.52734375 668.24609375 C111.93037607 665.93812402 109.26595987 663.74444137 106.5625 661.5625 C101.79003797 657.70291397 97.26890891 653.62800009 92.75390625 649.47265625 C89.16792716 646.25290481 85.43298508 643.24094824 81.68359375 640.21484375 C78.19449084 637.33519113 74.87003079 634.29306124 71.52734375 631.24609375 C68.93037607 628.93812402 66.26595987 626.74444137 63.5625 624.5625 C58.79003797 620.70291397 54.26890891 616.62800009 49.75390625 612.47265625 C46.16792716 609.25290481 42.43298508 606.24094824 38.68359375 603.21484375 C35.19449084 600.33519113 31.87003079 597.29306124 28.52734375 594.24609375 C25.93037607 591.93812402 23.26595987 589.74444137 20.5625 587.5625 C16.75912497 584.48663412 13.09917348 581.31246834 9.5 578 C1.71375155 570.84687018 -6.48069924 564.25653281 -15 558 Z " fill="#FFFFFF" transform="translate(2434,2316)"/>
<path d="M0 0 C3.68101341 3.00174608 6.98921126 6.29936896 10.27978516 9.72021484 C11.05580078 10.50009766 11.83181641 11.27998047 12.63134766 12.08349609 C23.09237985 23.08051757 31.14822192 36.39679384 38.27978516 49.72021484 C38.61075195 50.32768555 38.94171875 50.93515625 39.28271484 51.56103516 C45.21633478 62.52545631 49.56257253 73.83073828 53.27978516 85.72021484 C53.6375 86.86200195 53.6375 86.86200195 54.00244141 88.02685547 C59.85545065 107.20800291 62.77524101 127.69200582 63.27978516 147.72021484 C63.31974609 148.88681641 63.35970703 150.05341797 63.40087891 151.25537109 C64.49975728 212.72792027 45.21630621 272.2787448 20.27978516 327.72021484 C19.86196777 328.65124023 19.44415039 329.58226562 19.01367188 330.54150391 C12.66871745 344.57460414 5.83167449 358.89238085 -2.72021484 371.72021484 C-2.50733021 378.91735319 0.10260199 385.12086237 2.65478516 391.78271484 C13.56965951 421.28249126 13.56965951 421.28249126 7.71728516 434.15771484 C3.78860451 438.2878663 -0.22065099 440.64229079 -5.97802734 440.82177734 C-7.33541016 440.77150391 -7.33541016 440.77150391 -8.72021484 440.72021484 C-9.03516862 444.09260152 -9.28917804 447.46697955 -9.53271484 450.84521484 C-9.66709961 452.27220703 -9.66709961 452.27220703 -9.80419922 453.72802734 C-10.25732908 459.97356969 -10.25732908 459.97356969 -7.29833984 465.25146484 C-6.44755859 466.06615234 -5.59677734 466.88083984 -4.72021484 467.72021484 C-3.65771484 470.09521484 -3.65771484 470.09521484 -2.72021484 472.72021484 C-2.01896484 473.79271484 -1.31771484 474.86521484 -0.59521484 475.97021484 C5.47844357 488.232129 0.36762834 504.59567197 -3.72021484 516.72021484 C-4.54388462 518.98937089 -5.37795444 521.25476836 -6.22021484 523.51708984 C-7.15946692 526.04250159 -8.09771874 528.56822944 -9.03271484 531.09521484 C-9.27073822 531.73727875 -9.5087616 532.37934265 -9.7539978 533.04086304 C-13.91916965 544.38803271 -16.85895846 555.8353569 -19.34521484 567.65771484 C-19.51324615 568.45530212 -19.68127747 569.2528894 -19.85440063 570.074646 C-20.3308632 572.35988138 -20.79839247 574.64663354 -21.25927734 576.93505859 C-21.39417068 577.60469131 -21.52906403 578.27432404 -21.66804504 578.96424866 C-23.10203758 586.31996554 -23.86986915 593.57886934 -24.14208984 601.06005859 C-24.16998596 601.82645157 -24.19788208 602.59284454 -24.22662354 603.38246155 C-24.28260534 604.99163131 -24.33626688 606.60088335 -24.38769531 608.21020508 C-24.44265671 609.84034706 -24.50481899 611.47026236 -24.57421875 613.09985352 C-25.21457076 625.71931263 -25.21457076 625.71931263 -21.72021484 637.72021484 C-21.06021484 638.38021484 -20.40021484 639.04021484 -19.72021484 639.72021484 C-19.22281906 644.29625608 -19.97170858 647.97181885 -21.15771484 652.40771484 C-26.3006426 672.1712515 -22.19615157 688.38917678 -12.98974609 706.05615234 C0.2950158 733.93371424 -17.09486632 788.25413244 -26.72021484 815.72021484 C-29.3374802 822.57520086 -32.19850835 828.81384952 -38.72021484 832.72021484 C-41.44327743 833.41356137 -43.8406418 833.88840141 -46.59521484 834.22021484 C-54.32339943 835.4143221 -59.65361259 837.20264167 -64.84521484 843.15771484 C-65.96005474 845.76424473 -65.96005474 845.76424473 -65.22021484 848.78271484 C-62.01383439 855.06187657 -55.33805417 858.04164927 -48.8671875 860.16943359 C-43.39916832 861.5721913 -37.69168662 862.03609004 -32.08203125 862.55639648 C-22.11293739 863.57193969 -14.94161235 866.25605549 -8.44677734 874.08349609 C-2.43528607 883.26394092 -1.57224435 894.09087802 -1.41162109 904.75927734 C-1.39622284 905.73950867 -1.38082458 906.71973999 -1.36495972 907.72967529 C-1.08557554 929.68215227 -1.98826458 950.37517693 -6.26252747 971.88818359 C-7.70060118 979.27364278 -8.81553748 986.69915258 -9.91162109 994.14208984 C-10.10179306 995.42842316 -10.29196503 996.71475647 -10.48789978 998.04006958 C-11.25250007 1003.22752814 -12.01393251 1008.41538524 -12.76266479 1013.60516357 C-18.13265341 1050.67746871 -26.77739907 1083.86557347 -45.43823242 1116.42089844 C-51.91348267 1127.7273033 -58.00988351 1139.2284707 -64.12255859 1150.73339844 C-65.42800053 1153.17392054 -66.75027505 1155.60213862 -68.09521484 1158.02099609 C-75.25957977 1170.94925199 -80.96717463 1184.61080837 -86.33349609 1198.36865234 C-86.76484863 1199.47096191 -87.19620117 1200.57327148 -87.640625 1201.70898438 C-88.45782357 1203.81228658 -89.26431817 1205.91979424 -90.05761719 1208.03222656 C-98.61551036 1230.1452961 -114.54719082 1243.39582189 -135.68945312 1252.85644531 C-164.05075713 1264.91971696 -197.05695091 1264.84046347 -225.62695312 1253.59130859 C-255.43956749 1241.18503287 -275.80068111 1216.57996461 -288.03662109 1187.28662109 C-299.63745135 1158.33829824 -306.67703886 1126.20350281 -306.95849609 1094.93896484 C-306.96838058 1094.02550797 -306.97826508 1093.11205109 -306.9884491 1092.1709137 C-307.32016357 1053.28337743 -302.79135775 1015.41314184 -297.84936714 976.91350079 C-295.92492572 961.91124161 -294.1381201 946.92824592 -292.97021484 931.84521484 C-291.34269447 911.56208689 -288.34111812 890.92808583 -273.33740234 875.74755859 C-268.06103693 871.66034419 -261.97302644 869.78519417 -255.72021484 867.72021484 C-251.44636139 866.27069112 -247.17685078 864.80856695 -242.90771484 863.34521484 C-241.78792236 862.96333008 -240.66812988 862.58144531 -239.5144043 862.18798828 C-232.7139263 859.84228036 -226.044363 857.33033055 -219.47021484 854.40771484 C-218.40903442 853.93809326 -218.40903442 853.93809326 -217.32641602 853.45898438 C-214.15810632 852.00789156 -211.23599366 850.46402994 -208.36083984 848.48974609 C-205.72021484 846.72021484 -205.72021484 846.72021484 -203.72021484 846.72021484 C-203.40115865 843.6503769 -203.32786261 842.2196396 -205.27148438 839.74560547 C-211.36121177 834.5870579 -217.75847109 830.32571836 -224.59521484 826.22021484 C-253.18448728 808.92097356 -253.18448728 808.92097356 -257.72021484 798.72021484 C-258.43529959 795.61388669 -258.25736059 793.99680391 -257.72021484 790.72021484 C-255.18567828 787.50066839 -253.6072418 786.01589049 -249.72021484 784.72021484 C-247.18770275 784.62067102 -244.68975966 784.57981554 -242.15771484 784.59521484 C-241.41336182 784.59569824 -240.66900879 784.59618164 -239.90209961 784.59667969 C-235.88219224 784.62102496 -231.88762597 784.74773194 -227.87646484 785.01708984 C-227.08699463 785.07010254 -226.29752441 785.12311523 -225.48413086 785.17773438 C-223.97587968 785.28631453 -222.46839427 785.40638218 -220.9621582 785.54003906 C-214.61524523 786.00909836 -209.1461523 785.33750648 -203.72021484 781.72021484 C-200.5646484 770.14980455 -208.20596642 759.46484425 -213.72021484 749.72021484 C-216.26769438 745.52282506 -218.91810512 741.39834377 -221.59521484 737.28271484 C-222.29630371 736.19450439 -222.99739258 735.10629395 -223.71972656 733.98510742 C-226.64378043 729.44947422 -229.58141053 724.92323198 -232.54833984 720.41552734 C-243.5219988 703.69333526 -247.89289324 691.91692246 -243.84521484 672.22021484 C-238.52727534 647.57886668 -231.25062883 623.37808514 -224.08108521 599.22854614 C-217.16529099 575.94082948 -217.16529099 575.94082948 -210.90771484 552.47021484 C-210.60075684 551.26647217 -210.29379883 550.06272949 -209.97753906 548.82250977 C-205.70727094 531.79953211 -205.70727094 531.79953211 -207.72021484 514.72021484 C-212.40911567 515.18654345 -212.40911567 515.18654345 -216.78271484 516.78271484 C-219.4619533 518.07912055 -221.78841696 517.85347838 -224.72021484 517.72021484 C-228.54888358 510.22240523 -228.72527802 504.20731784 -226.22021484 496.15771484 C-222.20919222 486.29499484 -214.49367405 481.09646394 -205.06787109 476.79833984 C-196.23300309 473.1386569 -186.83671499 470.86834087 -177.60769653 468.42320251 C-171.5143002 466.80493831 -165.47081823 465.08757317 -159.47412109 463.13818359 C-158.27215088 462.74783936 -157.07018066 462.35749512 -155.83178711 461.95532227 C-152.98765467 460.8263724 -151.09154637 459.5985814 -148.72021484 457.72021484 C-148.06021484 457.72021484 -147.40021484 457.72021484 -146.72021484 457.72021484 C-145.25360726 453.3203921 -144.58328942 449.17744075 -146.56787109 444.88818359 C-155.69079552 432.5289924 -174.84005875 430.00274386 -188.64160156 426.50488281 C-219.26018841 418.70090675 -219.26018841 418.70090675 -225.67431641 409.72216797 C-227.53672875 406.15732641 -227.30446824 402.63166709 -226.72021484 398.72021484 C-225.5620492 395.79099554 -223.99102424 393.23415106 -222.28271484 390.59521484 C-217.91390016 383.7048981 -217.91390016 383.7048981 -216.72021484 375.72021484 C-218.61597593 367.61760302 -222.58361556 361.56771793 -227.72021484 355.15771484 C-237.99110882 342.27612292 -241.07178067 330.10795046 -239.72021484 313.72021484 C-238.80341504 307.00375746 -237.46941089 300.35834417 -236.20458984 293.70068359 C-234.57738356 285.10847629 -233.19604499 276.48458026 -231.84521484 267.84521484 C-231.59369377 266.24901947 -231.34214722 264.65282812 -231.09057617 263.05664062 C-229.68791652 254.11941315 -228.3394202 245.17529477 -227.02880859 236.22412109 C-215.12293416 155.18846069 -190.48410423 66.95618196 -122.14282227 14.22265625 C-88.56388265 -10.64312368 -37.15214192 -27.64001248 0 0 Z " fill="#FFFFFF" transform="translate(2572.72021484375,894.27978515625)"/>
<path d="M0 0 C0.97042236 0.53778076 0.97042236 0.53778076 1.96044922 1.08642578 C10.67319464 5.96564946 18.4991165 11.36544661 26 18 C27.44632813 19.24716797 27.44632813 19.24716797 28.921875 20.51953125 C53.07325875 41.67457259 69.9972227 70.0215283 72.74609375 102.421875 C76.0328281 152.34641864 42.82525779 201.06309694 11.42578125 236.94140625 C10.02424918 238.49998605 8.61583284 240.05245668 7.1953125 241.59375 C5.36857095 243.59601476 3.59870026 245.62891702 1.83203125 247.68359375 C-2.38670722 252.51611024 -6.89224787 257.03890911 -11.4375 261.5625 C-12.24509766 262.37396484 -13.05269531 263.18542969 -13.88476562 264.02148438 C-18.76016611 268.88902765 -23.75488367 273.5346861 -29 278 C-29.53858643 278.46559326 -30.07717285 278.93118652 -30.63208008 279.41088867 C-36.5779496 284.54960948 -42.60446299 289.51413987 -48.875 294.25 C-57.27515487 300.65134879 -63.53187302 307.79551541 -69.9765625 316.11328125 C-105.56447735 362.00418916 -105.56447735 362.00418916 -133 366 C-145.30075946 367.17010792 -153.54692607 364.42717873 -163.0390625 356.68359375 C-164.61017443 355.33469088 -166.15366928 353.95364879 -167.6875 352.5625 C-170.70244669 350.52537386 -172.42928558 350.46819147 -176 351 C-178.38442803 352.05893971 -178.38442803 352.05893971 -180 354 C-180.94942365 357.61818008 -181.15714324 361.10299812 -181.24609375 364.83203125 C-181.27751465 365.95311279 -181.30893555 367.07419434 -181.34130859 368.22924805 C-181.37305176 369.41172119 -181.40479492 370.59419434 -181.4375 371.8125 C-182.58547862 407.00390179 -182.58547862 407.00390179 -192 416 C-199.69429502 420.46168092 -207.83273131 419.51601636 -216.15234375 417.53515625 C-218 417 -218 417 -220 416 C-224.78081327 430.41025277 -226.55627717 444.78342747 -227.734375 459.86230469 C-229.25874304 477.42467738 -233.50926592 489.78843804 -246.87109375 501.44140625 C-258.21341925 510.84679481 -268.20262646 517.58790409 -283.125 518.9375 C-294.456709 519.98828989 -299.34390643 523.72191733 -306.7890625 532.3359375 C-309.51988244 535.62643078 -312.19823613 538.95311731 -314.84375 542.3125 C-317.29405613 545.36650474 -319.82913364 548.33827029 -322.375 551.3125 C-330.04891512 560.31796807 -337.09625189 569.78472055 -344.1875 579.25 C-345.68984129 581.25406348 -347.19243727 583.25793368 -348.69580078 585.26123047 C-349.78697995 586.71599986 -350.87615557 588.17227177 -351.96484375 589.62890625 C-359.14369388 599.07120559 -366.97171256 607.34293376 -376.30712891 614.66601562 C-379.81572936 617.43079683 -383.28382536 620.24485237 -386.75 623.0625 C-387.45906494 623.62815674 -388.16812988 624.19381348 -388.89868164 624.77661133 C-395.81586936 630.40153268 -401.74595068 636.13420494 -405.0625 644.5625 C-405.5471875 645.76261719 -406.031875 646.96273437 -406.53125 648.19921875 C-407.02307624 649.46527681 -407.51261728 650.73222472 -408 652 C-416.55369719 674.13543305 -416.55369719 674.13543305 -423.96362305 678.15014648 C-427.60443495 679.66958855 -431.28308308 679.91122412 -435.1875 680.1875 C-436.05463623 680.26081543 -436.92177246 680.33413086 -437.81518555 680.40966797 C-440.54231614 680.63043451 -443.26983485 680.82088477 -446 681 C-446.87043945 681.05784668 -447.74087891 681.11569336 -448.63769531 681.17529297 C-454.42240471 681.54297442 -460.20680879 681.81060721 -466 682 C-466.68964844 682.02336426 -467.37929687 682.04672852 -468.08984375 682.07080078 C-494.50137317 682.84876415 -494.50137317 682.84876415 -501 677 C-501.7078894 672.84478617 -501.48743171 670.77880756 -499.2421875 667.19140625 C-498.46101563 666.32386719 -497.67984375 665.45632813 -496.875 664.5625 C-496.05773438 663.62019531 -495.24046875 662.67789063 -494.3984375 661.70703125 C-493.60695313 660.81371094 -492.81546875 659.92039062 -492 659 C-486.27562435 652.40063226 -486.27562435 652.40063226 -485 644 C-488.95880881 639.65496594 -493.08085225 637.18975389 -499.09765625 636.8984375 C-507.01028431 637.25131628 -511.87282533 641.55905905 -517.125 647.125 C-523.03925509 654.35173361 -527.63753719 663.59632642 -527 673 C-524.09475044 680.26312391 -519.34835959 684.74138035 -513.25 689.3125 C-503.92573384 696.50209206 -494.59458227 703.89009645 -492 716 C-491.76320446 718.95563891 -491.76915504 721.9107572 -491.75 724.875 C-491.729375 725.66519531 -491.70875 726.45539062 -491.6875 727.26953125 C-491.65419977 732.27289139 -492.24683834 735.65432326 -495 740 C-498.36890949 742.64700031 -501.85586873 742.19265073 -506 742 C-509.359375 741.08203125 -509.359375 741.08203125 -512.75 739.8125 C-513.966875 739.36132812 -515.18375 738.91015625 -516.4375 738.4453125 C-519.62633008 737.15159854 -522.67061441 735.71844454 -525.75 734.1875 C-530.88994954 731.78430825 -535.38002037 731.03802151 -541 732 C-543.48050929 733.16432069 -545.09425952 734.09425952 -547 736 C-546.7661108 748.86390573 -537.13740699 757.6981064 -528.66796875 766.39453125 C-519.09392157 776.49050263 -513.57106105 786.62956999 -513.7265625 800.5625 C-515.33232536 820.74923314 -533.34099868 838.342209 -546 853 C-546.72316406 853.84820313 -547.44632813 854.69640625 -548.19140625 855.5703125 C-552.46451506 860.50403891 -556.96731765 864.84942987 -562 869 C-562.76054687 869.64839844 -563.52109375 870.29679687 -564.3046875 870.96484375 C-578.09614627 882.44303867 -593.29479653 890.10006641 -611.62109375 888.81640625 C-622.34038875 887.15277167 -631.71816211 880.74924988 -640.7487793 875.07202148 C-645.5165491 872.1180281 -649.62178233 869.82051187 -655.3125 870.25 C-656.199375 870.4975 -657.08625 870.745 -658 871 C-660.41721957 875.83443914 -659.10990393 881.40349111 -657.6875 886.375 C-655.05672065 893.86554631 -650.71460774 900.34622573 -646.4609375 906.99609375 C-643.07235429 912.37119501 -641.31771181 916.51826215 -642 923 C-644.26025126 928.01186148 -647.2105708 930.37230533 -652.21484375 932.30078125 C-670.9724648 937.00991753 -690.4493018 927.94583435 -707 920 C-709.07649339 919.0201347 -711.15333733 918.04101206 -713.23046875 917.0625 C-732.65945409 907.86744475 -750.20896631 898.86375365 -766 884 C-766.59167969 883.47277344 -767.18335937 882.94554688 -767.79296875 882.40234375 C-783.78352491 867.55125715 -797.79378331 843.38653837 -802 822 C-802.30550781 820.44925781 -802.30550781 820.44925781 -802.6171875 818.8671875 C-803.95907822 810.65040458 -804.23262229 802.5008798 -804.3125 794.1875 C-804.33014404 793.13804199 -804.34778809 792.08858398 -804.3659668 791.00732422 C-804.35909395 783.10104765 -803.39748647 775.88558152 -799.1875 769.0625 C-794.42648376 764.57354183 -790.11842711 763.63483413 -783.6953125 763.8125 C-783.01250214 763.82385986 -782.32969177 763.83521973 -781.62619019 763.84692383 C-778.73202807 763.89550758 -775.83918756 763.97983696 -772.94580078 764.06152344 C-760.02447847 764.82033688 -760.02447847 764.82033688 -748.94140625 759.0625 C-748.48636719 758.381875 -748.03132813 757.70125 -747.5625 757 C-747.08941406 756.319375 -746.61632813 755.63875 -746.12890625 754.9375 C-743.17580145 749.86919557 -743.19738166 744.67476246 -744 739 C-745.02252518 735.92014838 -746.26726099 732.93827822 -747.5 729.9375 C-752.67881401 716.97375083 -753.11558317 704.57122033 -747.734375 691.49609375 C-742.05529801 680.04840477 -734.87718989 670.12160936 -726.40869141 660.59863281 C-724.46049047 658.38774551 -722.56572283 656.13371736 -720.67016602 653.87768555 C-719.27737315 652.22007767 -717.87817569 650.56812162 -716.4765625 648.91796875 C-715.04994808 647.23708393 -713.62628525 645.55366382 -712.2109375 643.86328125 C-710.51315739 641.86859871 -708.77373563 639.92766929 -707 638 C-706.55994629 637.52062988 -706.11989258 637.04125977 -705.66650391 636.54736328 C-693.78619831 623.748698 -677.4993414 610.28587129 -659.36328125 608.78125 C-652.5784577 608.56839279 -646.67079869 609.67506356 -640.11328125 611.31640625 C-634.21678365 612.61112028 -629.24826643 613.01808291 -623.6875 610.5 C-618.5985961 605.76613591 -615.25490191 600.62364475 -614.7890625 593.5625 C-615.32099057 587.10055898 -617.92172623 580.97754898 -620.11328125 574.92578125 C-623.13685653 564.94931479 -620.19480218 555.2561168 -615.59765625 546.25390625 C-610.82703484 538.21733375 -604.47595747 531.66056045 -598 525 C-597.13890625 524.09894531 -596.2778125 523.19789063 -595.390625 522.26953125 C-590.57307138 517.32156615 -585.5231265 512.92873785 -580.1328125 508.62109375 C-576.17976781 505.38053151 -572.47264224 501.87490171 -568.75 498.375 C-568.0885498 497.75343018 -567.42709961 497.13186035 -566.74560547 496.49145508 C-562.93326652 492.89342929 -562.93326652 492.89342929 -559.25561523 489.15942383 C-555.0995743 484.78180637 -550.84147746 481.83122296 -545.5625 478.9375 C-544.05805878 478.08003807 -542.55542535 477.21939596 -541.0546875 476.35546875 C-539.99652832 475.74711182 -539.99652832 475.74711182 -538.91699219 475.12646484 C-531.84671096 470.9718192 -527.36590002 466.95929042 -523.78125 459.4453125 C-518.02730913 447.39400302 -510.55252893 437.37197619 -501.4375 427.64453125 C-498.24824695 424.18439613 -495.29203278 420.56367788 -492.34570312 416.89624023 C-490.87162674 415.07619775 -489.38392105 413.26702475 -487.87695312 411.47412109 C-482.43378853 404.97803666 -477.66637568 398.23337031 -473.0625 391.125 C-467.36258681 382.45124801 -461.5538974 374.04975792 -455 366 C-454.48824219 365.33613281 -453.97648437 364.67226562 -453.44921875 363.98828125 C-446.19486249 354.89479242 -434.69301744 345.24016802 -423 343 C-420.86120102 342.95258431 -418.72086584 342.96203122 -416.58203125 343.0078125 C-415.32712891 343.02457031 -414.07222656 343.04132813 -412.77929688 343.05859375 C-410.15414804 343.10254011 -407.52912004 343.15450299 -404.90429688 343.21484375 C-388.9537764 343.39415466 -380.31095266 338.04648794 -369 327 C-366.40441695 323.10662542 -367.17200929 320.35740566 -368 316 C-368.17402344 315.39800781 -368.34804687 314.79601563 -368.52734375 314.17578125 C-369.18605684 311.14352345 -369.20999364 308.22549325 -369.25 305.125 C-369.27578125 303.93132812 -369.3015625 302.73765625 -369.328125 301.5078125 C-368.89319937 296.85825046 -367.59960907 293.62916305 -364.30859375 290.27734375 C-360.43276199 288.132848 -356.18045212 287.13906442 -351.93164062 285.98242188 C-346.66230052 284.45643678 -342.66480135 282.70165132 -339.6640625 277.83203125 C-338.88319206 274.50184848 -339.0284565 271.65758734 -339.23217773 268.26098633 C-340.03475106 253.79957542 -335.12237821 243.00154518 -325.828125 232.01171875 C-325.22484375 231.34785156 -324.6215625 230.68398437 -324 230 C-323.33484375 229.24332031 -322.6696875 228.48664063 -321.984375 227.70703125 C-315.75533324 221.01865368 -306.8854875 213.53735349 -297.3972168 212.796875 C-288.53096795 212.66432655 -280.44205661 214.06586414 -271.8125 216 C-256.7052224 220.12620476 -256.7052224 220.12620476 -242 217 C-240.21060692 214.64125457 -239.93615302 213.52695039 -240.29296875 210.58203125 C-242.96344233 200.82963877 -256.88206593 190.94476867 -264.7265625 184.8984375 C-267.11458199 182.90431813 -268.58691576 180.99216941 -270.25 178.375 C-270.75015625 177.59898437 -271.2503125 176.82296875 -271.765625 176.0234375 C-274.48172551 171.57109553 -274.20240643 167.9957684 -273 163 C-271.32659689 159.26180458 -269.23293303 155.84329641 -267.0625 152.375 C-266.1811438 150.92867187 -266.1811438 150.92867187 -265.28198242 149.453125 C-260.39788961 141.49317475 -255.33793678 133.6625929 -250 126 C-249.60780273 125.43442383 -249.21560547 124.86884766 -248.81152344 124.28613281 C-236.47735567 106.56648214 -223.44729292 88.88976911 -207.86621094 73.86669922 C-206.17925136 72.17929826 -204.64721717 70.45037612 -203.11328125 68.625 C-198.14012256 62.90138719 -192.74390973 57.59462892 -187.37573242 52.24536133 C-185.56639067 50.44137915 -183.76245681 48.63211335 -181.95898438 46.82226562 C-176.65080208 41.5110675 -171.34746101 36.25674276 -165.6262207 31.38549805 C-163.28697451 29.39252069 -161.05892759 27.28392766 -158.8125 25.1875 C-112.99964751 -16.46627647 -56.04300316 -31.33727091 0 0 Z " fill="#FFFFFF" transform="translate(4178,1653)"/>
<path d="M0 0 C7.30207989 6.25500644 13.66968418 13.02493174 19.47363281 20.7109375 C20.0653125 21.48695313 20.65699219 22.26296875 21.26660156 23.0625 C39.49825012 48.01107171 49.33808632 77.92672023 44.77832031 108.91796875 C40.58474051 133.47702909 29.50316676 154.07997188 12.63378906 172.3671875 C10.65961104 174.50915281 8.74731045 176.68968499 6.84863281 178.8984375 C4.12937467 182.02495781 1.26505581 184.94505539 -1.69287109 187.84448242 C-3.42354627 189.60626827 -5.02308325 191.42197296 -6.62011719 193.3046875 C-11.81139797 199.27603375 -17.5102118 204.73979936 -23.14355469 210.2890625 C-23.99175781 211.12953125 -24.83996094 211.97 -25.71386719 212.8359375 C-26.47054687 213.58101562 -27.22722656 214.32609375 -28.00683594 215.09375 C-29.92698397 217.08832237 -31.71928127 219.09406893 -33.51123047 221.19799805 C-38.3099927 226.72206852 -43.53662045 231.81597882 -48.73275375 236.9619236 C-50.62049084 238.83203672 -52.50446363 240.70587026 -54.38748169 242.58073425 C-59.73691292 247.90592093 -65.09197581 253.2254166 -70.45166016 258.5402832 C-73.74496555 261.80656772 -77.03318649 265.07790297 -80.31848526 268.35223961 C-81.5595172 269.58713054 -82.80243374 270.8201309 -84.04738998 272.05106544 C-90.65722174 278.58710736 -96.95621826 285.14531301 -102.72912598 292.44482422 C-105.07374058 295.40111203 -107.5765496 298.14081564 -110.15136719 300.8984375 C-113.12059032 304.08611699 -116.04207055 307.2924653 -118.89355469 310.5859375 C-133.9421376 327.83480873 -152.67216834 347.10634024 -176.62402344 349.9609375 C-188.74365292 350.64493775 -198.84750361 343.58496367 -208.22949219 336.73828125 C-209.09058594 336.11050781 -209.95167969 335.48273437 -210.83886719 334.8359375 C-211.598125 334.26101563 -212.35738281 333.68609375 -213.13964844 333.09375 C-215.98935456 331.44269277 -218.25414088 330.97042856 -221.52636719 330.7109375 C-225.6299414 332.23972005 -228.5002792 333.76539773 -230.52636719 337.7109375 C-231.71320151 343.37122425 -231.42165843 346.24803921 -229.52636719 351.7109375 C-228.46877203 358.42666673 -230.31118692 363.19104841 -233.28027344 369.1796875 C-234.64530901 371.95254973 -235.64611295 374.75008233 -236.52636719 377.7109375 C-237.22503906 377.83210938 -237.92371094 377.95328125 -238.64355469 378.078125 C-239.55363281 378.24570313 -240.46371094 378.41328125 -241.40136719 378.5859375 C-242.30628906 378.74835937 -243.21121094 378.91078125 -244.14355469 379.078125 C-246.69142707 379.54138453 -246.69142707 379.54138453 -248.52636719 381.7109375 C-249.28909213 384.24744137 -249.9823985 386.77503295 -250.65136719 389.3359375 C-256.65636678 410.75966999 -269.42498256 434.0002433 -288.8503418 445.36987305 C-292.54561787 447.64224048 -295.81034255 450.25282254 -299.08105469 453.09375 C-299.98125587 453.87091873 -299.98125587 453.87091873 -300.89964294 454.66378784 C-308.43863767 461.26489693 -315.3783033 468.46590337 -322.35180664 475.65283203 C-346.71401879 500.70011539 -346.71401879 500.70011539 -359.52636719 504.7109375 C-366.66297143 504.28210189 -373.14248758 501.47127378 -379.58886719 498.5859375 C-380.49064697 498.192854 -381.39242676 497.79977051 -382.3215332 497.39477539 C-386.73888714 495.45443509 -391.11563593 493.44666365 -395.45605469 491.33984375 C-396.21909912 490.97068848 -396.98214355 490.6015332 -397.76831055 490.22119141 C-399.19166785 489.52573583 -400.60959911 488.81901841 -402.02075195 488.09912109 C-406.04396881 486.11866309 -409.0501151 485.11410389 -413.52636719 485.7109375 C-420.82900679 488.69558374 -428.07064438 492.98774485 -432.46386719 499.6484375 C-433.74004062 503.32681974 -433.66268118 504.99897846 -432.52636719 508.7109375 C-431.84574219 509.7628125 -431.16511719 510.8146875 -430.46386719 511.8984375 C-427.62965717 516.57021226 -427.74819631 521.41616657 -428.52636719 526.7109375 C-430.34422019 530.56478586 -432.49233476 532.71835506 -435.77636719 535.2734375 C-445.43405571 543.36226101 -450.4046945 557.22518299 -455.69482422 568.33300781 C-472.41077592 602.79453559 -511.05016203 622.78733898 -542.92480469 641.12133789 C-556.3626337 648.84206806 -556.3626337 648.84206806 -569.71386719 656.7109375 C-570.41294189 657.11876465 -571.1120166 657.5265918 -571.83227539 657.94677734 C-580.84080289 663.39461766 -586.00496652 670.55733089 -591.40136719 679.4609375 C-602.39306577 697.10397825 -613.46995496 710.59425596 -634.21386719 716.4609375 C-643.94051237 718.63646802 -655.07091633 720.98934858 -664.02636719 715.55859375 C-671.53424687 710.00980142 -678.69337543 704.16314198 -684.65527344 696.9375 C-687.17907612 693.9342275 -689.8530896 691.08102581 -692.52636719 688.2109375 C-695.90079971 684.58593088 -699.21255083 680.93958583 -702.40136719 677.1484375 C-705.14188992 673.96350568 -707.90522253 671.83063193 -711.52636719 669.7109375 C-711.36136719 670.7834375 -711.19636719 671.8559375 -711.02636719 672.9609375 C-709.34939869 687.02744934 -709.34939869 687.02744934 -712.08886719 693.2734375 C-715.55047293 696.73504324 -718.61018769 698.6458926 -723.62792969 698.7578125 C-731.06250414 697.75953042 -735.44150124 692.8255395 -740.52636719 687.7109375 C-741.51948993 686.75087477 -742.51433499 685.792591 -743.51074219 684.8359375 C-750.03643744 678.51374842 -755.92979912 671.87968636 -761.52636719 664.7109375 C-762.33847656 663.70417969 -763.15058594 662.69742188 -763.98730469 661.66015625 C-775.42021951 647.35578019 -794.84817466 621.359857 -793.65136719 602.2109375 C-792.07534693 597.30776337 -789.86758203 594.48703152 -785.71386719 591.3359375 C-780.90164113 589.96101577 -777.0401893 590.04864033 -772.52636719 592.0234375 C-768.69625506 594.91428507 -766.19855514 599.11716894 -763.55371094 603.0546875 C-761.0149715 606.38097423 -758.48135268 609.0333573 -754.46386719 610.42578125 C-751.18280337 610.80283899 -748.90386518 610.82838132 -745.71386719 609.8359375 C-741.57722287 605.81748302 -740.66321553 600.80309351 -740.29589844 595.1875 C-740.3853298 589.42691013 -741.82051771 583.88221076 -743.02636719 578.2734375 C-748.19672293 552.70361291 -748.19672293 552.70361291 -743.83886719 542.8984375 C-741.15743723 539.20241242 -738.60469019 536.750099 -734.52636719 534.7109375 C-732.25725748 534.61315584 -729.98507777 534.58118104 -727.71386719 534.5859375 C-726.49054687 534.58335937 -725.26722656 534.58078125 -724.00683594 534.578125 C-721.02134034 534.69204964 -718.43012148 535.08097047 -715.52636719 535.7109375 C-711.45494959 535.96871813 -707.43506569 536.013837 -703.52636719 534.7109375 C-702.48251023 532.05689686 -702.48251023 532.05689686 -702.52636719 528.7109375 C-703.82435142 526.9351895 -703.82435142 526.9351895 -705.52636719 525.2734375 C-708.49015555 522.08753853 -708.49015555 522.08753853 -708.83886719 518.4609375 C-705.54958617 509.06299173 -698.88873385 501.23335974 -692.52636719 493.7109375 C-691.52863281 492.51017578 -691.52863281 492.51017578 -690.51074219 491.28515625 C-680.73094095 479.92972037 -668.84887568 471.0973936 -656.86132812 462.22143555 C-650.84706093 457.7532835 -645.07130576 453.09837877 -639.40917969 448.1953125 C-636.59414429 445.76934704 -633.72950731 443.42099498 -630.83886719 441.0859375 C-627.36554943 438.26324122 -624.00978639 435.36345938 -620.71386719 432.3359375 C-614.58966548 426.77199399 -608.09647132 421.73157044 -601.52636719 416.7109375 C-600.92131348 416.24365234 -600.31625977 415.77636719 -599.69287109 415.29492188 C-582.43770351 402.01253043 -560.90082565 387.4522199 -538.08105469 390.33203125 C-536.25104285 390.60345502 -534.42309388 390.88893226 -532.59667969 391.18359375 C-526.96789692 392.14130091 -526.96789692 392.14130091 -522.02636719 389.8984375 C-517.46339544 380.20212253 -516.28175348 369.66482705 -514.79956055 359.16064453 C-511.00965035 332.57717701 -495.04601751 316.81075571 -474.38867188 301.14550781 C-470.96289242 298.50656181 -467.62433641 295.75993598 -464.27636719 293.0234375 C-462.91846156 291.91646142 -461.56039375 290.80968426 -460.20214844 289.703125 C-459.56744629 289.18588867 -458.93274414 288.66865234 -458.27880859 288.13574219 C-455.24132195 285.66614452 -452.18445816 283.22130732 -449.12011719 280.78515625 C-447.13113858 279.19457246 -445.15422076 277.59234309 -443.18261719 275.98046875 C-435.8977106 270.05204858 -428.46793744 264.48533214 -420.734375 259.15478516 C-416.14483143 255.956808 -411.89821403 252.54357857 -407.71386719 248.8359375 C-399.76006924 241.87268198 -391.38137303 237.66462642 -380.99902344 235.64453125 C-375.73563596 233.65724909 -372.3788813 228.42339249 -368.77636719 224.2734375 C-363.5005511 218.46455233 -358.52395274 213.88264361 -350.90136719 211.6484375 C-346.67786166 211.72665057 -344.2675409 212.8021754 -340.52636719 214.7109375 C-340.89761719 213.2259375 -340.89761719 213.2259375 -341.27636719 211.7109375 C-341.92029475 206.87172427 -340.39962845 203.56475618 -337.52636719 199.7109375 C-328.398921 190.41018537 -316.95520612 187.3602909 -304.38574219 186.10546875 C-300.96174366 185.75544461 -297.60406602 185.29839259 -294.21386719 184.7109375 C-293.37210938 184.5665625 -292.53035156 184.4221875 -291.66308594 184.2734375 C-289.25164661 183.76222385 -289.25164661 183.76222385 -286.52636719 181.7109375 C-286.67074219 181.17726563 -286.81511719 180.64359375 -286.96386719 180.09375 C-288.70154213 173.11891584 -289.8120509 166.29731839 -287.33886719 159.3984375 C-284.03166033 154.49464802 -279.54969851 150.85152679 -275.08886719 147.0234375 C-268.20091725 140.76418635 -264.52019646 134.36173581 -261.15136719 125.7734375 C-257.16597905 115.89220532 -250.71381032 108.7385651 -243.14746094 101.4140625 C-240.29257829 98.46983181 -237.77791866 95.39176247 -235.27636719 92.1484375 C-234.82382568 91.56199463 -234.37128418 90.97555176 -233.9050293 90.37133789 C-233.2071228 89.46629517 -233.2071228 89.46629517 -232.49511719 88.54296875 C-223.00762265 76.24046828 -212.87559983 64.67710842 -202.15966797 53.43701172 C-197.84939043 48.88190526 -193.70925534 44.16937761 -189.54589844 39.48046875 C-184.58930305 33.92870994 -179.54290872 28.46321806 -174.46386719 23.0234375 C-173.47277954 21.95403931 -173.47277954 21.95403931 -172.46166992 20.86303711 C-168.05599188 16.16477532 -163.43685478 11.87475568 -158.52636719 7.7109375 C-157.57632813 6.87949219 -156.62628906 6.04804688 -155.64746094 5.19140625 C-110.28524675 -33.56786556 -47.16024923 -39.82823351 0 0 Z " fill="#FFFFFF" transform="translate(4440.5263671875,2270.2890625)"/>
<path d="M0 0 C1.19234756 -0.01058945 1.19234756 -0.01058945 2.40878296 -0.02139282 C68.91706719 -0.47751166 121.98992999 24.8942661 172.4609375 67.203125 C173.09580078 67.73357422 173.73066406 68.26402344 174.38476562 68.81054688 C180.72134262 74.12027344 186.90982474 79.4639436 192.66796875 85.40625 C194.54782115 87.29019794 196.50681589 89.02940982 198.5234375 90.765625 C204.28036318 95.735471 209.44039134 101.09616974 214.39453125 106.859375 C216.4412932 109.18084413 218.54961883 111.43639424 220.67163086 113.68896484 C226.91924588 120.34185735 232.63619239 127.27586373 238.17138672 134.52832031 C239.3646529 136.07807533 240.58549942 137.60648846 241.80859375 139.1328125 C270.70065611 175.50111805 304.54034836 228.26651121 299.15917969 276.93212891 C297.2055069 292.48515474 293.2770146 307.31706851 288.4609375 322.203125 C288.11853027 323.27530273 287.77612305 324.34748047 287.42333984 325.45214844 C280.83380312 345.89377077 272.77744187 365.7009529 264.43261719 385.47753906 C263.05763781 388.74510291 261.7331635 392.02851281 260.43457031 395.32714844 C255.24677271 408.36999618 250.90262491 416.26850004 237.7734375 422.328125 C229.61527633 426.04343837 229.61527633 426.04343837 224.4609375 433.203125 C223.66410947 436.93537844 223.66410947 436.93537844 223.4609375 440.203125 C231.45060575 443.51591428 239.48371332 446.58445838 247.64868164 449.43847656 C288.95245411 463.9231892 288.95245411 463.9231892 296.62109375 479.5703125 C299.01915016 487.08794049 298.20651923 494.56574087 294.8984375 501.640625 C291.06585558 508.4124131 287.25984962 512.51892964 279.7734375 514.890625 C277.00584334 515.62359514 274.2361493 516.25011299 271.43359375 516.8359375 C264.78892558 518.29391009 259.13434198 520.00246463 254.4609375 525.203125 C253.24313279 527.80285904 253.24313279 527.80285904 252.4609375 530.203125 C253.45351562 530.1309375 254.44609375 530.05875 255.46875 529.984375 C294.48457143 527.25626648 294.48457143 527.25626648 309.4609375 540.203125 C321.34870992 554.33993545 321.70915456 572.66021613 320.4609375 590.203125 C319.97208064 594.62272765 319.32744545 599.00760064 318.52905273 603.38183594 C317.07132815 611.44555011 316.39004948 618.93077765 319.6484375 626.640625 C320.10089844 627.73117187 320.55335938 628.82171875 321.01953125 629.9453125 C322.78616747 633.93819762 324.57128571 637.91952235 326.4453125 641.86328125 C329.4571112 648.80200209 329.38716346 656.16515407 327.0859375 663.328125 C321.60828082 676.99343693 311.86193411 689.21668281 303.4609375 701.203125 C302.96271484 701.91678223 302.46449219 702.63043945 301.95117188 703.36572266 C292.89212449 716.33558497 283.65734584 729.09156519 273.4609375 741.203125 C272.36458984 742.53923828 272.36458984 742.53923828 271.24609375 743.90234375 C263.63706665 752.84863396 254.38701742 759.32498463 242.42431641 760.38330078 C224.05259421 761.49252184 209.35669698 757.15217412 193.4609375 748.203125 C192.49671875 747.66945313 191.5325 747.13578125 190.5390625 746.5859375 C159.50494473 728.13073729 139.19019674 694.77729869 128.14404297 661.23388672 C127.52594664 659.39638664 126.84275907 657.58109861 126.15234375 655.76953125 C119.52495331 637.40088163 123.61876236 614.03390271 130.3359375 596.19140625 C132.58564848 592.21535455 136.07756315 589.61759952 139.7109375 586.953125 C140.41734375 586.43234375 141.12375 585.9115625 141.8515625 585.375 C142.38265625 584.98828125 142.91375 584.6015625 143.4609375 584.203125 C138.6197409 579.23452849 136.74111383 578.21387148 129.8984375 577.640625 C106.70478873 574.98122934 84.26286093 556.53070703 67.66796875 541.22265625 C65.74611598 539.46407593 63.78446261 537.79492725 61.7734375 536.140625 C57.91122253 532.84426944 54.71832269 529.08566492 51.4609375 525.203125 C50.33365234 523.90761719 50.33365234 523.90761719 49.18359375 522.5859375 C30.31935565 500.59256038 17.4412243 474.71087872 4.39123535 449.03118896 C3.48713979 447.25461331 2.57907748 445.48005807 1.67089844 443.70556641 C-6.93296046 426.87976194 -14.91703053 409.83686688 -22.65489197 392.60183716 C-24.88203776 387.64626854 -27.13737465 382.7043231 -29.41015625 377.76953125 C-37.38843206 360.43822152 -45.17801938 343.03369239 -52.81860352 325.55078125 C-53.57434105 323.8215969 -54.3301189 322.09243017 -55.0859375 320.36328125 C-55.45814926 319.51170441 -55.83036102 318.66012756 -56.21385193 317.78274536 C-59.69938533 309.817996 -63.24241923 301.87938684 -66.78945923 293.94189453 C-89.22787924 243.68750614 -111.02268077 193.15838004 -118.5390625 138.203125 C-118.6436377 137.50952881 -118.74821289 136.81593262 -118.85595703 136.10131836 C-119.84299545 128.78505057 -119.76111038 121.39153693 -119.77929688 114.0222168 C-119.78894188 111.67004183 -119.82001561 109.31876562 -119.8515625 106.96679688 C-120.05102748 78.73852097 -110.68165049 54.59541132 -90.9765625 34.203125 C-67.93955616 11.21014543 -31.99451588 0.18977405 0 0 Z " fill="#FFFFFF" transform="translate(1118.5390625,2280.796875)"/>
<path d="M0 0 C27.27276688 25.95585758 37.2582229 63.1646045 38.42407227 99.76953125 C39.50152015 162.45740822 14.9427234 217.10529644 -14.82202148 270.890625 C-18.95654039 278.43610516 -22.77295234 286.12174775 -26.57546997 293.83746338 C-35.15366237 311.2270564 -44.18842537 327.66817286 -56.5546875 342.69921875 C-57.19664062 343.50617188 -57.83859375 344.313125 -58.5 345.14453125 C-69.48420467 358.33476865 -85.01416422 368.18613164 -102.32080078 369.98706055 C-105.15550723 370.1010831 -107.96801358 370.11409835 -110.8046875 370.07421875 C-111.83319824 370.06841797 -112.86170898 370.06261719 -113.92138672 370.05664062 C-122.24060889 369.9196987 -130.34499651 368.98096084 -138.56860352 367.77587891 C-151.62110207 365.88502037 -151.62110207 365.88502037 -164.5546875 367.69921875 C-164.11799392 373.15788848 -163.11580848 376.49892221 -159.5546875 380.69921875 C-153.61635234 385.10970871 -146.93648051 387.82115903 -140.08984375 390.484375 C-133.31053622 393.31389859 -129.2968461 397.08913075 -126.09375 403.7265625 C-122.60966251 414.81906327 -122.60966251 414.81906327 -123.5546875 420.69921875 C-127.74456469 424.70692737 -132.36983286 426.3603575 -137.71484375 428.35546875 C-140.71954093 429.77722367 -142.43707718 431.15613015 -144.5546875 433.69921875 C-145.61731596 436.88710413 -145.72746661 439.41240937 -145.8671875 442.76171875 C-146.42738154 450.39224056 -147.92916729 457.14110746 -153.3046875 462.82421875 C-161.8295955 472.17823251 -165.73761429 485.58298064 -170.0546875 497.19921875 C-182.38910655 530.28931158 -201.64596178 560.66855476 -225.5546875 586.69921875 C-226.31749023 587.52993896 -226.31749023 587.52993896 -227.09570312 588.37744141 C-242.67557958 605.1165926 -260.44754602 616.5976477 -282.5546875 622.69921875 C-285.56607306 623.66806285 -288.55865033 624.68361293 -291.5546875 625.69921875 C-292.08164874 631.85881012 -292.02332496 636.51045546 -288.9921875 642.01171875 C-287.42343234 644.88249549 -286.57374498 646.54040646 -286.1796875 649.82421875 C-288.94496892 655.60617081 -294.48440435 660.08071183 -300.3046875 662.69921875 C-310.77996583 665.87291694 -320.586489 663.16234875 -330.5546875 659.69921875 C-338.68783548 657.07103993 -345.95787846 654.98611938 -354.5546875 655.69921875 C-354.28851573 662.08734134 -352.03554252 666.14321312 -347.5546875 670.69921875 C-342.42752332 674.88915937 -337.25779882 675.96375669 -330.9296875 677.26171875 C-329.06056115 677.64962648 -327.19325839 678.04645174 -325.328125 678.453125 C-324.09715088 678.70557983 -324.09715088 678.70557983 -322.84130859 678.96313477 C-320.27686967 679.78865082 -318.6103687 680.98123554 -316.5546875 682.69921875 C-319.23269129 688.98786448 -325.41991093 691.3911228 -331.4296875 694.01171875 C-351.87766392 700.94083939 -374.16814983 691.80156038 -392.43359375 682.8203125 C-419.68262542 668.97701397 -458.87602353 643.40822877 -469.1328125 612.984375 C-470.87397724 603.55306599 -470.95658768 591.90210421 -465.5546875 583.69921875 C-460.80185464 577.56841469 -455.73779903 575.91260334 -448.30859375 574.4921875 C-433.63175344 571.3918768 -416.1160971 565.7518567 -405.5546875 554.69921875 C-404.86395103 552.60121727 -404.86395103 552.60121727 -404.5546875 550.69921875 C-408.22159149 549.47691742 -411.33675196 549.84237723 -415.1171875 550.13671875 C-421.5313471 550.55698804 -427.93990008 550.89112062 -434.3671875 551.01171875 C-435.12523682 551.04128662 -435.88328613 551.07085449 -436.66430664 551.10131836 C-440.09878708 551.13897458 -442.12192335 551.01667403 -444.9296875 548.95703125 C-446.50860879 546.76324157 -447.68700819 544.7467737 -448.7421875 542.26171875 C-449.06574219 541.52050781 -449.38929688 540.77929688 -449.72265625 540.015625 C-454.07512713 527.8981826 -449.67199606 515.64024096 -445.62890625 504.05859375 C-445.11975646 502.56481439 -444.61187754 501.07060133 -444.10517883 499.57598877 C-442.7705107 495.65158362 -441.41712882 491.73388313 -440.05999756 487.81719971 C-438.98894892 484.71596275 -437.931496 481.61018115 -436.87469292 478.50406647 C-433.74742483 469.31298561 -430.56541263 460.14181775 -427.35295868 450.98019409 C-426.55026029 448.68656846 -425.7520279 446.39142772 -424.95465088 444.09594727 C-423.65427631 440.35696498 -422.33845953 436.6237348 -421.0115757 432.89408112 C-420.52334499 431.51587666 -420.03943212 430.13613249 -419.56052208 428.75466156 C-414.56977736 414.38751226 -407.76682431 402.0722379 -397.5546875 390.69921875 C-396.94238281 390.00441406 -396.33007812 389.30960938 -395.69921875 388.59375 C-385.55453893 377.75689586 -372.82195413 370.92110931 -359.5546875 364.69921875 C-358.21881937 364.03764596 -356.88394774 363.37397014 -355.5546875 362.69921875 C-356.4621875 361.75046875 -357.3696875 360.80171875 -358.3046875 359.82421875 C-361.9771994 355.53673434 -363.79913388 351.01652057 -365.5546875 345.69921875 C-365.7815625 345.05210937 -366.0084375 344.405 -366.2421875 343.73828125 C-368.307365 336.94040532 -369.24410426 328.66643534 -366.421875 322.0390625 C-362.03088352 315.15371199 -356.43658917 310.19415785 -348.5546875 307.69921875 C-343.82505996 306.85691307 -339.04624737 306.43821574 -334.26757812 305.97070312 C-327.47657768 305.21115377 -321.74323125 303.59863899 -315.5546875 300.69921875 C-314.84272217 300.45115479 -314.13075684 300.20309082 -313.3972168 299.94750977 C-310.5421187 298.0132158 -310.28708936 296.0120065 -309.5546875 292.69921875 C-309.49410574 290.07453599 -309.52885671 287.57908018 -309.67578125 284.96875 C-309.73365402 283.44226483 -309.78795232 281.91564094 -309.83911133 280.38891602 C-309.86631256 279.59365509 -309.89351379 278.79839417 -309.92153931 277.97903442 C-310.43954011 259.8883879 -307.74167127 245.44109543 -300.5546875 228.69921875 C-299.56534611 226.28689285 -298.57709781 223.8741184 -297.58984375 221.4609375 C-292.12485972 208.27788661 -286.06705143 195.3626076 -279.8671875 182.51171875 C-279.57334167 181.90211304 -279.27949585 181.29250732 -278.97674561 180.66442871 C-275.52760143 173.53379327 -271.93316027 166.49894197 -268.2109375 159.5078125 C-263.36556967 150.38597126 -258.75656945 141.1511468 -254.16015625 131.90234375 C-253.39281928 130.35966898 -252.62546992 128.81700038 -251.85810852 127.27433777 C-248.68987716 120.90257278 -245.52405708 114.52962572 -242.36694336 108.15234375 C-233.23746176 89.71744337 -224.05541261 71.4044099 -213.5546875 53.69921875 C-213.19073883 53.08510132 -212.82679016 52.47098389 -212.45181274 51.83825684 C-210.56215694 48.67192357 -208.61517112 45.54815166 -206.6171875 42.44921875 C-205.76096802 41.11419312 -205.76096802 41.11419312 -204.88745117 39.75219727 C-183.25776913 6.41912745 -157.55320559 -25.88930298 -116.87988281 -34.83984375 C-74.40268467 -43.2603551 -31.73651703 -28.58227604 0 0 Z " fill="#FFFFFF" transform="translate(3658.5546875,1062.30078125)"/>
<path d="M0 0 C2.77343658 2.85500824 3.91068616 4.43742045 4.2265625 8.46484375 C2.5420146 12.25507653 0.62298949 13.38400666 -3.0234375 15.27734375 C-6.93370521 16.29711762 -10.64020421 16.40716501 -14.67114258 16.41918945 C-15.3191684 16.42266388 -15.96719421 16.42613831 -16.63485718 16.42971802 C-18.03708358 16.43704422 -19.43932135 16.44240622 -20.84156227 16.44600868 C-23.07697767 16.45323494 -25.31218116 16.46895193 -27.54753113 16.48735046 C-33.90201685 16.53949266 -40.25638953 16.58763076 -46.61108398 16.60327148 C-50.50748267 16.61348608 -54.4033495 16.64315026 -58.29953575 16.68459129 C-59.76833719 16.69672552 -61.2372144 16.70205555 -62.70606422 16.69979286 C-80.43639432 16.57608985 -80.43639432 16.57608985 -95.86140442 23.77900696 C-100.27593802 28.86757937 -100.27593802 28.86757937 -101.0234375 35.33984375 C-97.15359576 59.84884144 -75.22942755 86.53644056 -56.0234375 101.27734375 C-44.92669218 109.26135132 -44.92669218 109.26135132 -31.8359375 111.08984375 C-27.29160518 110.21045693 -27.29160518 110.21045693 -24.0234375 107.27734375 C-22.47795018 102.82270381 -22.90068961 99.84048904 -24.7734375 95.65234375 C-27.82371996 90.06720053 -31.92899337 85.42531727 -36.08984375 80.66015625 C-39.03256716 77.28891896 -41.87373393 73.85047565 -44.6484375 70.33984375 C-45.46570312 69.32019531 -46.28296875 68.30054688 -47.125 67.25 C-49.11717029 64.13057286 -49.70748794 61.93255337 -50.0234375 58.27734375 C-45.89356121 54.60418319 -42.67701569 54.83691892 -37.33984375 55.00390625 C-25.13842511 56.0099125 -14.26124122 60.75496399 -3.10717773 65.47705078 C4.05335785 68.22716627 12.6991527 68.71985565 19.9765625 66.265625 C22.42481384 65.05242902 24.70201578 63.78944878 26.9765625 62.27734375 C27.71261719 61.80554687 28.44867187 61.33375 29.20703125 60.84765625 C31.38951614 59.23682942 31.38951614 59.23682942 31.6640625 55.46484375 C31.17085774 44.97148728 23.0598795 34.50189962 17.578125 25.82421875 C15.14312062 21.95196789 14.87694425 19.85978309 14.9765625 15.27734375 C20.88439988 14.9816233 25.32990133 15.71298574 30.7890625 18.08984375 C31.51407959 18.39970215 32.23909668 18.70956055 32.98608398 19.02880859 C63.13806472 32.34601388 90.93416748 55.30697807 103.83349609 86.33886719 C110.93339861 105.05557952 110.11363553 123.73955106 102.02685547 142.02978516 C93.53282735 160.20645249 82.54000147 177.2486728 71.9765625 194.27734375 C71.34927246 195.28925781 70.72198242 196.30117187 70.07568359 197.34375 C54.57821467 222.246955 37.72697507 246.40559614 18.44042969 268.54248047 C17.31308334 269.87852502 16.21498302 271.23928589 15.12988281 272.60986328 C9.30922029 279.92898011 2.99706608 286.56544527 -3.63378906 293.1484375 C-5.39623988 294.9001595 -7.14772318 296.66233803 -8.8984375 298.42578125 C-15.61837034 305.15445263 -22.51295924 311.42330437 -30.0234375 317.27734375 C-30.73032715 317.83824707 -31.4372168 318.39915039 -32.16552734 318.97705078 C-54.04371467 336.25440778 -75.35680507 351.37631064 -102.7109375 358.21484375 C-111.43997341 360.48640818 -121.48601006 363.70952625 -127.0234375 371.27734375 C-128.67569629 374.64795169 -129.35978938 376.89946089 -128.45703125 380.59765625 C-125.60552187 388.20963526 -121.48823126 395.25050656 -116.4140625 401.5859375 C-115.95854004 402.15658936 -115.50301758 402.72724121 -115.03369141 403.31518555 C-114.12853054 404.43395417 -113.20936421 405.54157303 -112.27490234 406.63598633 C-110.06324554 409.34782825 -109.05040581 411.04852176 -108.63671875 414.55859375 C-109.0234375 417.27734375 -109.0234375 417.27734375 -110.5859375 419.02734375 C-136.23225853 432.17930325 -180.40064299 418.00120557 -206.0234375 410.27734375 C-236.78835332 400.34299624 -266.69235873 385.60691332 -290.5703125 363.5390625 C-292.26652584 361.97519702 -293.98716524 360.43756366 -295.7265625 358.921875 C-306.44659305 349.56535711 -306.44659305 349.56535711 -307.6484375 342.71484375 C-306.99988172 339.14778697 -306.78182448 338.6270265 -304.2109375 336.40234375 C-298.59899037 332.66104567 -293.59528019 332.5023623 -287.0234375 333.27734375 C-276.13585458 336.29617356 -265.86194563 341.52935576 -255.7121582 346.40551758 C-249.27456731 349.44845924 -242.95594231 351.64621604 -236.0234375 353.27734375 C-239.77541648 338.53742634 -256.43666726 331.22919358 -268.48828125 323.74707031 C-296.08282047 306.60272516 -296.08282047 306.60272516 -299.59375 295.46875 C-300.18568089 292.44990244 -300.27369461 289.54095308 -300.3359375 286.46484375 C-300.37332031 285.28277344 -300.41070313 284.10070313 -300.44921875 282.8828125 C-299.8962345 271.32435745 -294.85614711 259.61653468 -290.8984375 248.90234375 C-287.2142774 238.80817548 -283.89316361 228.68432727 -280.91943359 218.35968018 C-276.8808886 204.37980891 -271.89739335 190.98179363 -266.37060547 177.52468872 C-260.78062053 163.90701452 -255.68870927 150.17406432 -250.8359375 136.27734375 C-225.20614895 63.11717602 -225.20614895 63.11717602 -201.0234375 35.27734375 C-199.83041016 33.86775391 -199.83041016 33.86775391 -198.61328125 32.4296875 C-159.54958378 -12.70308338 -50.63712124 -43.1099816 0 0 Z " fill="#FFFFFF" transform="translate(3225.0234375,1804.72265625)"/>
<path d="M0 0 C1.37478516 0.01740234 1.37478516 0.01740234 2.77734375 0.03515625 C3.69644531 0.04417969 4.61554687 0.05320312 5.5625 0.0625 C6.27277344 0.07410156 6.98304688 0.08570312 7.71484375 0.09765625 C11.04817708 6.76432292 14.38151042 13.43098958 17.71484375 20.09765625 C18.90659309 18.64279342 20.09293532 17.18350156 21.27734375 15.72265625 C22.38142578 14.36914062 22.38142578 14.36914062 23.5078125 12.98828125 C25.60424002 10.24251777 27.31801755 7.43274776 29.08984375 4.47265625 C31.90856002 0.28709149 31.90856002 0.28709149 35.375 -0.52734375 C37.90104671 -0.52734375 40.23188766 -0.35197363 42.71484375 0.09765625 C43.55082683 3.59070043 43.75344405 6.41778331 43.30932617 9.97631836 C43.13870918 11.38819679 43.13870918 11.38819679 42.96464539 12.82859802 C42.83451553 13.83391068 42.70438568 14.83922333 42.5703125 15.875 C42.44046463 16.91910538 42.31061676 17.96321075 42.17683411 19.03895569 C41.90064801 21.24415048 41.62049974 23.44885216 41.33666992 25.65307617 C40.90453165 29.01811918 40.4874703 32.38478353 40.07226562 35.75195312 C39.80168134 37.89724914 39.53022576 40.04243547 39.2578125 42.1875 C39.13375534 43.19078842 39.00969818 44.19407684 38.88188171 45.22776794 C38.25021047 50.06987511 37.50073692 54.51590655 35.71484375 59.09765625 C32.74484375 59.09765625 29.77484375 59.09765625 26.71484375 59.09765625 C26.54612098 51.49107154 27.18155276 44.25357884 28.21484375 36.72265625 C28.49827461 34.61096865 28.77961335 32.49899892 29.05859375 30.38671875 C29.18427734 29.46584473 29.30996094 28.5449707 29.43945312 27.59619141 C29.78788199 24.85394697 29.78788199 24.85394697 29.71484375 21.09765625 C29.07417969 22.10828125 28.43351562 23.11890625 27.7734375 24.16015625 C26.90100397 25.47349704 26.02723548 26.78595172 25.15234375 28.09765625 C24.73404297 28.76539062 24.31574219 29.433125 23.88476562 30.12109375 C23.2418457 31.06855469 23.2418457 31.06855469 22.5859375 32.03515625 C22.0125061 32.91494141 22.0125061 32.91494141 21.42749023 33.8125 C19.71484375 35.09765625 19.71484375 35.09765625 12.71484375 35.09765625 C10.40484375 30.47765625 8.09484375 25.85765625 5.71484375 21.09765625 C5.56861572 22.21325928 5.4223877 23.3288623 5.27172852 24.47827148 C4.72994063 28.6030292 4.18259915 32.72703384 3.63354492 36.85083008 C3.39634183 38.63838866 3.16066117 40.42614994 2.92651367 42.21411133 C2.5903953 44.7787016 2.248873 47.34252169 1.90625 49.90625 C1.80204239 50.71041855 1.69783478 51.5145871 1.59046936 52.34312439 C0.82871546 57.98378454 0.82871546 57.98378454 -0.28515625 59.09765625 C-1.80443663 59.16945589 -3.32683107 59.18157632 -4.84765625 59.16015625 C-5.67394531 59.15113281 -6.50023438 59.14210938 -7.3515625 59.1328125 C-7.98964844 59.12121094 -8.62773437 59.10960938 -9.28515625 59.09765625 C-10.38612163 55.79476011 -10.20847386 54.14166683 -9.77197266 50.72412109 C-9.63497955 49.62643402 -9.49798645 48.52874695 -9.35684204 47.39779663 C-9.20170135 46.21335968 -9.04656067 45.02892273 -8.88671875 43.80859375 C-8.73230316 42.5944278 -8.57788757 41.38026184 -8.41879272 40.12930298 C-8.09071498 37.56169588 -7.75929497 34.99451397 -7.42480469 32.42773438 C-6.91147687 28.4828052 -6.4100071 24.53650074 -5.91015625 20.58984375 C-5.5905464 18.10017011 -5.27025711 15.61058359 -4.94921875 13.12109375 C-4.79812653 11.93260834 -4.6470343 10.74412292 -4.49136353 9.5196228 C-4.3480661 8.42824005 -4.20476868 7.3368573 -4.05712891 6.21240234 C-3.93197906 5.24660248 -3.80682922 4.28080261 -3.67788696 3.28573608 C-3.14488497 0.3161417 -3.03942128 0.1298898 0 0 Z " fill="#FFFFFF" transform="translate(3454.28515625,3631.90234375)"/>
<path d="M0 0 C1.72974441 0.00015918 3.45949355 0.0058569 5.18920898 0.01586914 C6.09783188 0.01728409 7.00645477 0.01869904 7.94261169 0.02015686 C10.85687494 0.02577346 13.77106254 0.03832874 16.68530273 0.05102539 C18.65600475 0.05603825 20.62670797 0.06060153 22.59741211 0.06469727 C27.43923832 0.07574828 32.28100768 0.09302401 37.12280273 0.11352539 C38.12280273 3.11352539 38.12280273 3.11352539 37.12280273 9.11352539 C31.51280273 9.11352539 25.90280273 9.11352539 20.12280273 9.11352539 C19.99905273 11.39387695 19.87530273 13.67422852 19.74780273 16.02368164 C19.26196661 24.17653993 18.39925794 32.26138257 17.39331055 40.36474609 C17.1165959 42.60118985 16.84982009 44.83868446 16.58374023 47.07641602 C16.40983705 48.50422066 16.23538043 49.93195804 16.06030273 51.35961914 C15.90432617 52.63506592 15.74834961 53.9105127 15.58764648 55.22460938 C15.12280273 58.11352539 15.12280273 58.11352539 14.12280273 59.11352539 C10.78952432 59.25597319 7.4582638 59.15574642 4.12280273 59.11352539 C4.73988739 49.78519468 5.71090667 40.52875399 6.85229492 31.25341797 C7.12624256 29.02301938 7.39430928 26.79196445 7.66186523 24.56079102 C7.83599973 23.12910843 8.01046637 21.69746619 8.18530273 20.26586914 C8.3412793 18.98703857 8.49725586 17.70820801 8.65795898 16.390625 C9.12280273 13.11352539 9.12280273 13.11352539 10.12280273 9.11352539 C5.17280273 9.11352539 0.22280273 9.11352539 -4.87719727 9.11352539 C-4.97485352 2.96118164 -4.97485352 2.96118164 -4.87719727 1.11352539 C-3.87719727 0.11352539 -3.87719727 0.11352539 0 0 Z " fill="#FFFFFF" transform="translate(3405.877197265625,3631.886474609375)"/>
</svg>
